<?xml version="1.0" encoding="utf-8"?>
<!-- Generator: Adobe Illustrator 23.0.1, SVG Export Plug-In . SVG Version: 6.00 Build 0)  -->
<svg version="1.1"
	 id="svg2" inkscape:output_extension="org.inkscape.output.svg.inkscape" inkscape:version="0.92.1 r15371" sodipodi:docname="Coat_of_arms_of_the_Democratic_Republic_of_the_Congo.svg" sodipodi:version="0.32" xmlns:cc="http://creativecommons.org/ns#" xmlns:dc="http://purl.org/dc/elements/1.1/" xmlns:inkscape="http://www.inkscape.org/namespaces/inkscape" xmlns:rdf="http://www.w3.org/1999/02/22-rdf-syntax-ns#" xmlns:sodipodi="http://sodipodi.sourceforge.net/DTD/sodipodi-0.dtd" xmlns:svg="http://www.w3.org/2000/svg"
	 xmlns="http://www.w3.org/2000/svg" xmlns:xlink="http://www.w3.org/1999/xlink" x="0px" y="0px" viewBox="0 0 622 600"
	 style="enable-background:new 0 0 622 600;" xml:space="preserve">
<style type="text/css">
	.st0{fill-rule:evenodd;clip-rule:evenodd;fill:none;stroke:#FFFFFF;stroke-width:1.592;}
	.st1{fill-rule:evenodd;clip-rule:evenodd;fill:none;stroke:#FFFFFF;stroke-miterlimit:10;}
	
		.st2{fill-rule:evenodd;clip-rule:evenodd;fill:none;stroke:#FFFFFF;stroke-width:1.592;stroke-linecap:round;stroke-linejoin:round;}
	.st3{fill-rule:evenodd;clip-rule:evenodd;fill:none;stroke:#FFFFFF;stroke-width:1.592;stroke-linecap:round;}
	.st4{fill-rule:evenodd;clip-rule:evenodd;fill:none;stroke:#FFFFFF;stroke-width:0.796;}
	.st5{fill:none;stroke:#FFFFFF;stroke-miterlimit:10;}
	.st6{fill:none;}
	.st7{fill:none;stroke:#FFFFFF;stroke-width:2;stroke-miterlimit:10;}
	.st8{fill:#FFFFFF;}
</style>
<sodipodi:namedview  bordercolor="#666666" borderopacity="1.0" gridtolerance="10.0" guidetolerance="10.0" id="base" inkscape:current-layer="svg2" inkscape:cx="88.923229" inkscape:cy="74.402174" inkscape:pageopacity="0.0" inkscape:pageshadow="2" inkscape:window-height="967" inkscape:window-maximized="0" inkscape:window-width="1249" inkscape:window-x="9" inkscape:window-y="21" inkscape:zoom="0.44429876" objecttolerance="10.0" pagecolor="#ffffff" showgrid="false">
	</sodipodi:namedview>
<g id="g2912">
	<g id="g1485">
		<g id="g1423">
			<g id="g1408">
				<path id="path23740" inkscape:connector-curvature="0" sodipodi:nodetypes="cccccc" class="st0" d="M335.5,371.4L391,226.9
					c-26.2-40.2,22.1-70.4,36.4-85.4c0.5,34.9,14.9,72.2-27.5,89.6l-52,143.3L335.5,371.4z"/>
				<path id="path1172" inkscape:connector-curvature="0" class="st1" d="M425.9,144.5c-14.4,13.2-31.1,25.7-38.7,44.4
					c-5.1,11.9-3.1,25.9,4.1,36.6c2,2.3-1.3,5.2-1.6,7.8c-17.6,45.8-35.2,91.6-52.8,137.4c3.5,0.8,7,1.7,10.4,2.5
					c17.3-47.6,34.5-95.3,51.8-142.9c11.8-4.5,23-13.3,27-25.7c5.8-17.7,1.5-36.6,0.6-54.8c-0.1-1.9-0.2-3.8-0.3-5.8l-0.4,0.4
					L425.9,144.5z"/>
				<path id="path1178" inkscape:connector-curvature="0" class="st1" d="M423.3,149.7c-14.1,12.6-29.9,25.5-35.6,44.2
					c-3,10.8-0.1,22.5,6.1,31.8c0.9,4.1-2.7,7.4-3.3,11.3c-16.9,44-33.8,88-50.8,132.1c2.1,0.3,4.2,2,6.3,1.3
					c17.1-47.2,34.3-94.5,51.4-141.7c12.3-4.3,23.8-13.7,27.3-26.6c4.5-16.7,0.8-34.5-0.2-51.7C424.4,149.2,425,147.7,423.3,149.7z"
					/>
				<path id="path1184" inkscape:connector-curvature="0" class="st1" d="M418.6,159.6c-11.8,10.6-24.3,22.8-27.5,39
					c-1.2,8.9,1.8,18.5,6.8,25.4c11.8-4.6,22.2-14.9,24-27.9c1.8-12.8,0.2-25.8-1-38.6C420.1,158.3,419.4,158.9,418.6,159.6z"/>
				<path id="path1194" inkscape:connector-curvature="0" class="st1" d="M413.3,176.4c-7.9,8.3-15.6,19.1-13.5,31.2
					c0.4,1.5,0.6,4.7,1.9,5c9.1-6.1,13.8-17.6,12.5-28.3c0-2.9-0.1-5.7-0.3-8.6l-0.4,0.4L413.3,176.4z"/>
				<path id="path41675" inkscape:connector-curvature="0" sodipodi:nodetypes="cccc" class="st1" d="M427.9,142.1l-1.5-0.5
					c0,0-21.7,55-28,80.2C409.5,197.2,427.9,142.1,427.9,142.1z"/>
			</g>
			<g id="g1398">
				<path id="path21798" inkscape:connector-curvature="0" sodipodi:nodetypes="cccc" class="st2" d="M299.3,372
					c-113.2-119-64.2-186-45.4-219.8c-90,77.2-47.8,164.3-1.2,228.7L299.3,372z"/>
				<path id="path1212" inkscape:connector-curvature="0" class="st1" d="M245.4,163c-21.8,21-38.6,48.7-41.6,79.2
					c-3.3,31.7,6.8,63.3,21.4,91.1c8.3,15.9,18,30.9,28.5,45.4c13.8-2.7,27.6-5.3,41.5-8c-27.5-29.5-52.7-62.9-64.6-102
					c-8-26.5-7.5-55.8,3.1-81.5C236.9,178.8,241.2,170.5,245.4,163L245.4,163z"/>
				<path id="path1218" inkscape:connector-curvature="0" class="st1" d="M227.2,191.1c-14.8,22.2-22.6,49.6-19,76.2
					c3.9,36.3,22,69.4,42.3,99.2c1.7,2.5,3.4,5,5.2,7.4c10.4-2,20.9-4,31.3-6c-27.5-30.3-52.1-65-62.4-105.2
					c-5.9-23.9-4.7-49.5,3.4-72.8C227.7,190.4,227.4,190.8,227.2,191.1z"/>
				<path id="path1228" inkscape:connector-curvature="0" sodipodi:nodetypes="cccccc" class="st1" d="M214.8,252
					c-0.6,29.7,10.7,58.2,25,83.7c5.8,10.3,14.7,24.5,21.4,34.2c4.5-1.1,10.3-1.6,14.3-2.8c-27.3-31.9-53.8-73.2-60.7-115.2
					L214.8,252z"/>
				<path id="path22769" inkscape:connector-curvature="0" sodipodi:nodetypes="cc" class="st3" d="M253.9,152.3
					c-49.4,51-49.6,138.3,13.4,218.6"/>
			</g>
		</g>
		<g id="g1391">
			<g id="g1373">
				<path id="path19856" inkscape:connector-curvature="0" sodipodi:nodetypes="cccccccccccssccccccccc" class="st0" d="
					M208.6,405.8c18.7-1.9,36.5-1.1,54.7-1.5c14.9-0.5,29.7,2.2,44.6,3.4c13.5,0.9,27-0.7,40.5-1.1l35.5,1.9l24.3,1.1
					c3.7,0.2,3.5,2.1,3.4,4c-1,10.1-6.2,16.9-9.7,24.9c-4.3,5.8-8.9,10.3-13.5,14.4c-2.9,3-7.3,3.6-13.1,2.1c-2.7-1.6-25.8,0-38.6,0
					c0,0-4.9-1.1-8.2-1.1c-3.4,0.1-2.3,1.2-5.3,1.3c-3,0.1-4.1-1-6.8-0.8c-1.8,0.3-1.6,1.4-4,1.5c-6.9,0.1-22-2.2-23.6-1.3
					c-12.1,6.6-29.3,2.9-44.8,2.5h-16.3c-5.8,0-8.2-4.3-10.1-9.1c-1.7-5-4.3-7.3-6.5-10.8c-5.7-10.2-4.1-17.9-4.3-26.3
					C205.2,406.4,207.1,406.6,208.6,405.8L208.6,405.8z"/>
				<path id="path1058" inkscape:connector-curvature="0" sodipodi:nodetypes="ccccccccccccccccccc" class="st1" d="M266.2,406.4
					c-19.3,0.7-38.7-0.2-58,0.8c1.2,4.4,0,10.1,0.6,14.6c0.3,6.8,2.5,13.6,7.2,18.7c3.2,4.1,3.7,9.9,7.6,13.3
					c4.6,2.6,10.1,0.8,15.1,1.2c15.1-0.5,30.6,3.9,45.4-0.6c3.1-1.7,6.6-2.7,10.1-2c6.4,0.2,13,2,19.3,0.9c3.7-2.8,8.6,1.4,12.3-1.1
					c6.1-1.2,12.1,1.6,18.2,0.6c10.6,0,21.5-1.7,32.1,0.2c4.8,1.7,10.3,0.3,13.3-3.9c6-5.3,11.2-11.3,14.2-18.8
					c2.9-5.7,6.1-12.6,5.9-19.1c-3.9-0.3-7.7,0.8-11.5,0.1c-18.7-0.5-37.3-2.6-56-2.2c-16.3,1.1-32.8,1.8-49.1-0.8
					C283.9,407.3,275.1,406.3,266.2,406.4z"/>
				<path id="path1070" inkscape:connector-curvature="0" sodipodi:nodetypes="scccccccccccccccs" class="st1" d="M266.2,413.6
					c-18.1,0.7-36.9-2.4-54.4-2.4c0.2,8.7-0.9,18.6,5.4,25.6c3,3.8,4.9,8.3,6.8,12.7c3,4.1,8.6,1.8,12.8,2.3
					c14.2-0.8,28.4,3.3,42.5,0.5c4.7-1,8.9-3.8,13.9-3.2c7.4,0.2,15.2,3,22.3,0.2c3.9-0.2,7.9,1.4,11.6-0.4c7-0.4,14,1.9,21,0.7
					c11-0.5,22.1-1.2,32.9,1c5.6-1.1,8.6-6.5,12.5-10c6-7.4,10.3-16.2,12.6-25.5c-1.1-0.7-4,0-5.6-0.4c-25.8,0.2-50.3-0.7-76.3-0.1
					c-16.8,0.8-33.5,0.3-50.2-0.9C271.3,413.5,268.8,413.5,266.2,413.6L266.2,413.6z"/>
				<path id="path1086" inkscape:connector-curvature="0" sodipodi:nodetypes="ccccccccccccc" class="st1" d="M264.7,417.8
					c-15.2,0.5-30.5-1.2-45.6,0c-0.2,6.9,2.2,13.8,7,18.7c1.6,2.4,2,5.9,4.1,7.8c7.9,0,15.8-0.7,23.6,0.7
					c10.8,1.1,22.2,1.7,32.4-2.8c10.1-2.3,20.4,2.8,30.3-0.4c8,0.8,16.1-1.1,24.1,0.4c12.6,0.1,25.4-1.7,38,0.2c3.9,0.4,6-3.7,8.5-6
					c3.7-4.4,6.5-9.5,8.9-14.7c-26.9-1.3-53.8-3.1-80.7-1C298.3,420.4,281.6,417.6,264.7,417.8L264.7,417.8z"/>
			</g>
			<g id="g1378">
				<path id="path20827" inkscape:connector-curvature="0" sodipodi:nodetypes="cccccc" class="st0" d="M206.8,406.7
					c5.6-8,23.8-14.8,35.6-22.6l138,6.3c10.2,5.3,19.5,11.8,29,18.1c3,2.7,1.5,2.6,0.3,2.6C342,412,274.4,413.4,206.8,406.7z"/>
				<path id="path1060" inkscape:connector-curvature="0" class="st1" d="M242.8,386.3c-10.2,6.8-22.2,10.8-31.6,18.8
					c16.9,1.3,33.8,2.7,50.8,3.3c48,2.1,96.1,1.3,144.2,0.6c-8.7-6-17.4-12.1-26.9-16.5C333.8,390.4,288.2,388.1,242.8,386.3
					L242.8,386.3z"/>
				<path id="path1072" inkscape:connector-curvature="0" class="st1" d="M243.7,390.8c-6.5,4.1-13.5,7.2-20.2,11
					c56.2,4.4,112.7,3.9,169,3.1c-6.4-4.1-13-9.3-21-8.6C328.9,394.5,286.2,392,243.7,390.8z"/>
			</g>
		</g>
		<g id="g1367">
			<g id="g1307" transform="translate(-4.1733207e-6)">
				<g id="g1283">
					<path id="path18883" inkscape:connector-curvature="0" sodipodi:nodetypes="cccccccc" class="st4" d="M248.8,372.5
						c5.6-9.3,4.1-19.9-2.1-26c-20.2-18.2-49-44.1-59.1-72.6c-5.7-17.8-12.2-34.3-14.1-57.4c-2.7-18.1-30.1-10.7-26.6,10.8l7.8,33.1
						c16.8,80,64,92.3,91.6,121.6L248.8,372.5z"/>
					<path id="path1142" inkscape:connector-curvature="0" class="st1" d="M162.3,209.4c-9.2,0-15.2,10.9-11.9,19
						c3.8,16.7,7.4,33.6,12,50c8,26.1,23.2,50,44.6,67.1c10.5,8.8,21.7,16.6,32.2,25.4c1.7-4,5.5-6.7,9.7-7.5
						c1.5-7.5-3-14.8-9.1-18.8c-20.6-18.8-41.7-38.7-53.2-64.6c-5.5-14.2-10.1-28.8-13.5-43.6c-1.7-7.6-2.2-15.4-3.9-22.9
						C167.9,210.9,165.2,209.2,162.3,209.4z"/>
					<path id="path1244" inkscape:connector-curvature="0" class="st1" d="M162.6,213.6c-7,0-11,9-7.8,14.8
						c6.8,27.9,10.9,57.4,26.8,82c11,17.9,26.9,32.1,43.8,44.2c4.3,3.1,8.7,7.1,12.9,9.8c1.7-2.1,4.7-3.1,6.5-4.7
						c-0.7-8.3-9-12.5-14.2-17.8c-20.5-19-40.9-39.9-50.4-66.8c-7.2-19.3-12.3-39.3-14.9-59.7C164.9,214.4,163.8,213.5,162.6,213.6z
						"/>
				</g>
				<g id="g1288">
					<path id="path19854" inkscape:connector-curvature="0" sodipodi:nodetypes="cccccccc" class="st4" d="M373.2,373.4
						c-5.6-9.3-4.1-19.9,2.1-26c20.2-18.2,49-44.1,59.1-72.6c5.7-17.8,12.2-34.3,14.1-57.4c2.7-18.1,30.1-10.7,26.6,10.8l-7.8,33.1
						c-16.8,80-64,92.3-91.6,121.6L373.2,373.4z"/>
					<path id="path1144" inkscape:connector-curvature="0" class="st1" d="M459.4,210.3c-5.8-0.2-8.5,6.7-8,11.6
						c-2.4,21.1-9.3,41.3-16.8,61c-11.6,24.5-31.5,43.5-51.2,61.5c-5.5,4.2-11.3,10.5-10.3,17.6c5.4-0.5,10.7,4.9,9.3,10.4
						c18.4-15.8,39.8-28.8,54.4-48.4c16.5-21.1,24.7-47.2,29.8-73.2c2.1-9.4,5.3-18.8,5.8-28.4C471.6,216.1,466.1,210,459.4,210.3z"
						/>
					<path id="path1246" inkscape:connector-curvature="0" class="st1" d="M459.5,214.6c-4.1,0.7-4.1,5.7-4.1,9
						c-3.2,23.5-10.3,46.4-20.5,67.8c-13.4,24.4-34.6,43-54.7,61.7c-1.2,1.5-2.7,3.5-2.7,5.3c3.1,1,5.9,3.3,7.5,6.1
						c20.2-16.1,42.5-31.1,55.7-53.9c13.6-22,18.9-47.9,24.5-72.9c1.4-6,3.9-12.6,1.5-18.6C465.4,216.6,462.6,214.4,459.5,214.6z"/>
				</g>
				<g id="g1293">
					<path id="path17912" inkscape:connector-curvature="0" sodipodi:nodetypes="ccccccccc" class="st4" d="M242.6,381.3
						c-5.8-16.5,12.9-16.8,17.1-13.5l87.4,0.4c5.1,1.1,8.1,1.1,11.8,0c7.1-1.1,17.5-6.9,20.3,1.3c-0.2,7.9,0.7,14.6,1.3,21.7
						c0.2,3.4-0.8,7.9-3.2,8.2l-114.4,0.8C248.2,402.6,240.8,395.4,242.6,381.3L242.6,381.3z"/>
					<path id="path1164" inkscape:connector-curvature="0" class="st1" d="M372.9,368.4c-8.4,0.9-16.8,5.6-25.4,3.2
						c-29.3-0.7-58.6-0.1-87.9-0.8c-4.3-1.5-9.9-2.8-13.5,1c-3.2,3.5,0.2,7.9-0.4,12c-1.1,5.8,2.1,12.6,8.4,13.5
						c7.7,0.6,15.4-0.7,23.2-0.2c33-0.3,66-0.4,99.1-0.8c2.4-5.6-0.3-11.6-0.1-17.5c-0.3-3.2,0.4-6.7-0.9-9.7
						C374.7,368.5,373.8,368.4,372.9,368.4z"/>
					<path id="path1248" inkscape:connector-curvature="0" class="st1" d="M371.8,372.9c-8.8,1.9-17.9,5-27,2.9
						c-28.9-0.7-57.8,0.3-86.7-1c-2.8-0.9-6.9-2.5-9,0.3c0.1,4.3,1.3,8.7,0.7,13c0.9,4.5,6.1,5.9,10.1,5
						c36.9-0.8,73.9-0.4,110.8-1.1c0.9,0.1,2.8,0.7,2.2-1C372.9,385,371.4,378.8,371.8,372.9z"/>
				</g>
			</g>
			<g id="g1330">
				<g id="g24841">
					<path id="text24739" inkscape:connector-curvature="0" sodipodi:nodetypes="cccccsssssssssssccsscccc" class="st5" d="
						M172,243.7l0.5,7.2l-0.9,0c-0.3-0.8-0.7-0.9-1.8-0.9l-7.3,0.5c-1.4,0.1-2.5,0-3.1-0.4c-0.7-0.3-1.2-1-1.7-1.9
						c-0.5-0.9-0.7-2.1-0.8-3.5c-0.1-1.7,0.2-3,0.8-4.1s2.1-1.6,2.9-1.7c0.5,0,0.9,0.2,1.3,0.6s0.5,0.9,0.5,1.5
						c0,0.6-0.1,1.1-0.4,1.5c-0.3,0.4-0.6,0.6-1,0.7c-0.2,0-0.4,0-0.5-0.1c-0.1,0-0.4-0.1-0.6-0.4c-0.4-0.8-1.3-0.5-1.5-0.4
						c-0.7,0.5-0.7,1.1-0.7,1.9c0,0.4,0.1,0.8,0.3,1c0.2,0.3,0.4,0.4,0.8,0.5s1.3,0.1,2.8,0l7.9-0.5c1.3,0,1.5-0.4,1.6-1.5
						L172,243.7z"/>
					<path id="text24743" inkscape:connector-curvature="0" class="st5" d="M174.8,256.1l1.8,6.3l-0.4,0.2c-0.2-0.6-0.3-0.8-0.5-1
						c-0.2-0.2-0.4-0.3-0.6-0.3c-0.2,0-0.8,0.1-1.6,0.3l-7.1,2.1c-1.3,0.4-1.2,0.4-1.6,0.8c-0.4,0.3-0.6,0.8-0.8,1.3
						c-0.1,0.5-0.1,1.2,0.1,1.9c0.2,0.8,0.6,1.5,1.1,1.9c0.3,0.2,0.6,0.4,0.9,0.6c0.8,0.6,7.1-1.6,10.7-2.4c0.2-0.2,0.4-0.5,0.4-0.7
						c0.1-0.4,0-0.9-0.1-1.5l0.4-0.1l1.3,4.7l-0.4,0c-0.5-1-1.4-1.1-2.6-0.9l-5.5,1.7c-1.7,0.5-3,0.8-3.8,0.8
						c-0.8,0-1.7-0.4-2.6-1.1c-0.9-0.7-1.6-1.8-2-3.4c-0.4-1.3-0.5-2.4-0.3-3.2c0.2-1.1,0.6-2,1.2-2.6c0.6-0.6,1.5-1.1,2.7-1.5
						l7.1-2.1c1.4-0.3,1.9-0.8,1.8-1.8L174.8,256.1z"/>
					<path id="text24757" inkscape:connector-curvature="0" class="st5" d="M185.7,284.9l-4.3,2.5l-0.2-0.5c1-0.8,1.6-1.9,1.8-3.2
						c0.2-1.3,0.1-2.5-0.5-3.5c-0.4-0.8-0.9-1.4-1.5-1.7c-0.6-0.3-1.1-0.3-1.6-0.1c-0.3,0.2-0.5,0.4-0.7,0.7
						c-0.2,0.4-0.3,0.9-0.4,1.6c0,0.5,0,1.6,0.2,3.2c0.2,2.3,0.1,4-0.2,5.1c-0.3,1-1,1.8-1.8,2.2c-1.1,0.6-2.3,0.6-3.6-0.1
						c-1.3-0.6-2.4-1.8-3.2-3.4c-0.3-0.5-0.5-1-0.6-1.5c-0.1-0.5-0.3-1.2-0.4-2c-0.1-0.5-0.2-0.8-0.3-1.1c-0.1-0.2-0.3-0.4-0.5-0.6
						c-0.2-0.2-0.5-0.2-0.9-0.2l-0.2-0.4l5-2.7l0.2,0.4c-1.2,1.1-2,2.4-2.2,3.8c-0.2,1.4-0.1,2.7,0.5,3.9c0.4,0.9,1,1.5,1.7,1.8
						c0.7,0.3,1.3,0.3,1.8,0.1c0.3-0.2,0.6-0.4,0.8-0.8c0.2-0.4,0.3-0.8,0.4-1.4c0.1-0.6,0-1.5-0.1-2.8c-0.1-1.8-0.2-3.2-0.1-4
						c0.1-0.9,0.3-1.6,0.6-2.3c0.3-0.6,0.8-1.1,1.4-1.4c1-0.6,2.2-0.6,3.4,0c1.2,0.6,2.2,1.6,2.9,3c0.3,0.5,0.5,1.1,0.6,1.6
						c0.1,0.4,0.2,1,0.2,1.6c0.1,0.7,0.1,1.1,0.2,1.3c0.1,0.2,0.2,0.3,0.4,0.4c0.2,0.1,0.5,0,0.9-0.1L185.7,284.9z"/>
					<path id="text24761" inkscape:connector-curvature="0" class="st5" d="M195.4,301.9l-3.2,2.4l-0.2-0.3c0.6-0.7,1-1.3,1.2-1.8
						c0.2-0.5,0.2-1,0.1-1.5c-0.1-0.3-0.3-0.8-0.7-1.3l-0.6-0.9l-9.2,6.7c-0.6,0.4-1,0.8-1.1,0.9s-0.1,0.4-0.1,0.7
						c0,0.3,0.2,0.6,0.4,1l0.3,0.4l-0.3,0.2l-4.4-6.5l0.3-0.2l0.3,0.4c0.2,0.4,0.5,0.6,0.8,0.7c0.2,0.1,0.4,0.1,0.7,0.1
						c0.2,0,0.6-0.3,1.2-0.7l9.2-6.7l-0.6-0.9c-0.6-0.8-1.1-1.3-1.7-1.5c-0.8-0.2-1.7,0-2.7,0.5l-0.2-0.3l3.2-2.4L195.4,301.9z"/>
					<path id="text24765" inkscape:connector-curvature="0" class="st5" d="M194.4,322.9l-0.3,0.3l-7.2-7.7l0.3-0.3l0.5,0.5
						c0.4,0.4,0.8,0.7,1.1,0.9c0.3,0.1,0.5,0.2,0.8,0.1c0.2,0,0.6-0.3,1.2-0.8l7.4-6.2c0.6-0.5,0.9-0.8,1-1c0.1-0.2,0-0.5-0.1-0.8
						c-0.1-0.3-0.4-0.7-0.8-1.1l-0.5-0.5l0.3-0.3l7.2,7.7L205,314l-0.5-0.5c-0.4-0.4-0.8-0.7-1.1-0.9c-0.3-0.1-0.5-0.2-0.8-0.1
						c-0.2,0-0.6,0.3-1.2,0.8l-7.4,6.2c-0.6,0.5-0.9,0.8-1,1c-0.1,0.2,0,0.5,0.1,0.8c0.1,0.3,0.4,0.7,0.8,1.1L194.4,322.9z"/>
					<path id="text24769" inkscape:connector-curvature="0" class="st5" d="M218.3,324.6l-3,4.5l-0.4-0.3c0.5-1.4,0.6-2.6,0.2-3.8
						c-0.3-1.1-1-2-2-2.7c-0.8-0.5-1.7-0.8-2.7-0.8c-1,0-1.9,0.3-2.7,0.8c-1,0.7-2,1.6-2.8,2.8c-0.8,1.2-1.3,2.3-1.7,3.5
						c-0.3,1.2-0.4,2.2-0.1,3.1s0.9,1.7,1.9,2.4c0.8,0.5,1.7,0.9,2.6,1s2,0,3.4-0.4l-0.8,1.1c-1.2,0.3-2.4,0.3-3.4,0.1
						c-1-0.2-2.1-0.6-3.1-1.3c-1.4-0.9-2.4-2-3.1-3.3c-0.7-1.3-1-2.6-0.9-4.1c0.1-1.4,0.6-2.7,1.4-3.9c0.8-1.2,1.9-2.2,3.3-2.9
						c1.4-0.7,2.8-1,4.4-0.8c1.5,0.1,2.9,0.6,4.1,1.4c0.9,0.6,1.7,1.5,2.5,2.5c0.4,0.6,0.7,1,0.9,1.1c0.2,0.1,0.4,0.2,0.7,0.1
						c0.3,0,0.5-0.2,0.8-0.5L218.3,324.6z"/>
					<path id="text24773" inkscape:connector-curvature="0" class="st5" d="M226.5,335.3l-4,4.7l0.3,0.2c0.9,0.7,1.7,1.1,2.5,0.9
						c0.8-0.1,1.6-0.6,2.5-1.4l0.4,0.3l-5.2,6l-0.4-0.3c0.5-0.7,0.8-1.4,0.9-2c0.1-0.6,0-1.2-0.2-1.6c-0.2-0.4-0.6-0.9-1.3-1.5
						l-2.8,3.2c-0.5,0.6-0.8,1-0.9,1.2c-0.1,0.2,0,0.4,0.1,0.7c0.1,0.2,0.3,0.5,0.7,0.9l0.8,0.7c1.3,1.1,2.5,1.7,3.7,1.9
						c1.2,0.2,2.4-0.1,3.6-0.8l0.4,0.3l-3.8,3.1L212,341.6l0.3-0.3l0.4,0.4c0.4,0.3,0.8,0.6,1.1,0.6c0.2,0.1,0.5,0.1,0.8-0.1
						c0.2-0.1,0.5-0.4,1-1l6.5-7.5c0.4-0.5,0.7-0.9,0.8-1c0.1-0.3,0.1-0.5,0-0.8c-0.1-0.4-0.4-0.8-0.8-1.1l-0.4-0.4l0.3-0.3
						l11.3,9.8l-2.9,3.4L230,343c0.5-1,0.8-1.8,0.7-2.5c0-0.7-0.3-1.4-0.8-2.1c-0.3-0.4-0.9-1.1-2-2L226.5,335.3z"/>
				</g>
				<g id="g24832">
					<path id="path24785" inkscape:connector-curvature="0" class="st5" d="M396.7,337.6l2.6,3l-0.3,0.2c-0.8-0.5-1.4-0.9-1.9-1
						c-0.5-0.1-1-0.1-1.6,0c-0.3,0.1-0.7,0.3-1.3,0.8l-0.9,0.7l7.4,8.6c0.5,0.6,0.8,0.9,1,1c0.2,0.1,0.4,0.1,0.7,0.1
						c0.3,0,0.6-0.2,0.9-0.5l0.4-0.3l0.3,0.3l-6.1,4.9l-0.3-0.3l0.4-0.3c0.3-0.3,0.6-0.5,0.7-0.8c0.1-0.2,0.1-0.4,0-0.7
						c-0.1-0.2-0.3-0.6-0.8-1.1l-7.4-8.6l-0.8,0.7c-0.8,0.6-1.2,1.2-1.3,1.8c-0.1,0.8,0.1,1.7,0.7,2.7l-0.3,0.3l-2.6-3L396.7,337.6z
						"/>
					<path id="path24787" inkscape:connector-curvature="0" class="st5" d="M451.2,279.7l-2.2,5.2l1.2,1.2c0.4,0.4,0.7,0.7,1.1,0.8
						c0.4,0.2,0.8,0.1,1.1-0.1c0.2-0.1,0.5-0.6,0.9-1.3l0.4,0.2l-2.4,5.9l-0.4-0.2c0-0.6,0.2-0.9-0.1-1.6c-0.3-0.7-0.8-1.2-1.7-2.2
						l-8.4-9.1l1-2.4l12.6-0.1c1.4,0,2.3-0.1,2.7-0.4c0.3-0.2,0.6-0.4,0.8-0.9l0.4,0.2l-3,7.1l-0.4-0.2l0.1-0.3
						c0.2-0.6,0.3-1,0.3-1.3c0-0.2-0.2-0.4-0.4-0.4c-0.1-0.1-0.3-0.1-0.4-0.1c-0.1,0-0.4,0-1,0L451.2,279.7z M450.2,279.7l-6,0.1
						l4.1,4.4L450.2,279.7z"/>
					<path id="path24789" inkscape:connector-curvature="0" class="st5" d="M430.9,317.5l-3.6,4.3l0.8,1.5c0.3,0.5,0.5,0.9,0.8,1.1
						c0.3,0.3,0.7,0.4,1.1,0.2c0.2-0.1,0.6-0.4,1.2-1l0.3,0.3l-4.1,4.9l-0.3-0.3c0.2-0.6,0.5-0.8,0.4-1.5c-0.1-0.8-0.4-1.4-1-2.6
						l-5.2-11.2l1.7-2l12.1,3.7c1.3,0.4,2.2,0.5,2.7,0.5c0.4,0,0.7-0.2,1.1-0.6l0.3,0.3l-5,5.9l-0.3-0.3l0.2-0.2
						c0.4-0.5,0.6-0.9,0.6-1.2c0-0.2-0.1-0.4-0.2-0.5c-0.1-0.1-0.2-0.2-0.4-0.2c-0.1,0-0.4-0.1-0.9-0.3L430.9,317.5z M429.9,317.2
						l-5.7-1.7l2.6,5.4L429.9,317.2z"/>
					<path id="path24791" inkscape:connector-curvature="0" class="st5" d="M446,266.6l-0.4-0.1l3.1-10.1l0.4,0.1l-0.2,0.6
						c-0.2,0.6-0.2,1-0.2,1.4c0,0.3,0.1,0.5,0.3,0.7c0.1,0.2,0.5,0.4,1.2,0.6l9.1,3.3c0.7,0.3,1.2,0.4,1.4,0.3
						c0.2,0,0.4-0.2,0.7-0.5c0.2-0.3,0.4-0.7,0.6-1.2l0.2-0.6l0.4,0.1l-3.1,10.1l-0.4-0.1l0.2-0.6c0.2-0.6,0.2-1,0.2-1.4
						c0-0.3-0.1-0.5-0.3-0.8c-0.1-0.2-0.5-0.4-1.2-0.6l-9.1-3.3c-0.7-0.3-1.2-0.4-1.4-0.3s-0.4,0.2-0.7,0.5
						c-0.2,0.3-0.4,0.7-0.6,1.2L446,266.6z"/>
					<path id="text24795" inkscape:connector-curvature="0" class="st5" d="M411.7,334.6l2.8,3.2c0.5,0.6,0.9,1,1.1,1.1
						c0.2,0.1,0.5,0.1,0.7,0c0.3-0.1,0.7-0.3,1.2-0.8l0.3,0.3l-5.9,5.2l-0.3-0.3c0.5-0.5,0.8-0.8,1-1.1s0.1-0.5,0.1-0.7
						c-0.1-0.2-0.4-0.6-0.9-1.3l-6.6-7.5c-0.5-0.6-0.9-1-1.1-1.1c-0.2-0.1-0.5-0.1-0.7,0c-0.3,0.1-0.7,0.3-1.2,0.8l-0.3-0.3l5.3-4.7
						c1.4-1.2,2.5-2,3.3-2.4c0.8-0.4,1.7-0.5,2.5-0.3c0.9,0.2,1.6,0.6,2.2,1.3c0.7,0.8,1.1,1.8,0.9,2.9c-0.1,0.7-0.4,1.4-0.9,2.2
						l6.2,1.5c0.8,0.2,1.3,0.3,1.6,0.3c0.4,0,0.7-0.2,1.1-0.4l0.3,0.3l-3.6,3.2l-8.3-2L411.7,334.6z M406.8,329l4.4,5l0.5-0.4
						c0.8-0.7,1.3-1.3,1.6-1.8c0.3-0.5,0.3-1,0.2-1.6c-0.1-0.6-0.4-1.2-1-1.8c-0.8-0.9-1.5-1.3-2.3-1.4s-1.6,0.3-2.5,1.1L406.8,329z
						"/>
					<path id="text24799" inkscape:connector-curvature="0" sodipodi:nodetypes="cccccccscccccssscccssssccc" class="st5" d="
						M437.4,288.6l0.4,0.2c-0.2,0.6-0.2,1.2,0,1.9c0.2,0.5,0.7,1.4,1.7,2.7l7.1,9.9l-0.8,1.5l-12.7-1.6c-1.7-0.2-2.7-0.3-3.1-0.2
						c-0.4,0.1-0.7,0.3-1.1,0.9l-0.4-0.2l4-6.8l0.4,0.2l-0.1,0.2c-0.4,0.6-0.5,1.1-0.5,1.4c0,0.2,0.1,0.4,0.3,0.5
						c0.1,0.1,0.3,0.1,0.5,0.2c0.2,0,0.8,0.1,1.7,0.2l8.8,1.1l-4.6-6.5c-0.6-0.8-0.9-1.3-1.2-1.5c-0.2-0.2-0.4-0.4-0.6-0.5
						c-0.2-0.1-0.4-0.2-0.6-0.2s-0.4,0.1-0.7,0.3c-0.3,0.2-0.6,0.6-0.9,1.1l-0.4-0.2L437.4,288.6z"/>
					<path id="text24803" inkscape:connector-curvature="0" class="st5" d="M462.6,241.3l4.8,1.8l-3.1,13l-0.4-0.1l0.1-0.5
						c0.1-0.4,0.1-0.8,0-1.1c-0.1-0.2-0.2-0.4-0.4-0.6c-0.1-0.1-0.6-0.3-1.3-0.5l-9.3-2.4c-0.7-0.2-1.2-0.3-1.4-0.2
						c-0.2,0-0.4,0.2-0.6,0.4c-0.2,0.2-0.3,0.5-0.4,0.9l-0.1,0.5l-0.4-0.1l1.9-7.8l0.4,0.1l-0.2,0.6c-0.1,0.4-0.1,0.8,0,1.1
						c0.1,0.2,0.2,0.4,0.4,0.6c0.1,0.1,0.6,0.3,1.3,0.5l9,2.3c0.7,0.2,1.2,0.3,1.4,0.2c0.2,0,0.4-0.2,0.6-0.4
						c0.1-0.2,0.2-0.6,0.4-1.3l0.3-1.2c0.2-0.8,0.2-1.5,0.1-2c-0.1-0.6-0.4-1.1-0.9-1.7c-0.5-0.5-1.2-1.1-2.3-1.7L462.6,241.3z"/>
				</g>
				<g id="g24850">
					<path id="text24711" inkscape:connector-curvature="0" sodipodi:nodetypes="cccccccccccsssccccccssscc" class="st5" d="
						M270.8,387.5c0.2,1.6,0.1,1.7,1.8,1.8v0.9H265v-1c1.8,0.1,1.8-0.1,1.9-1.7V378c0-0.8-0.1-1.3-0.2-1.5c-0.4-0.3-0.9-0.3-1.4-0.3
						l0-0.8h6.7c2.4,0,4.2,0.4,5.3,1.1s1.6,1.7,1.6,2.8c0,0.9-0.3,1.8-1,2.4c-0.7,0.7-1.6,1.1-2.8,1.4c-0.8,0.2-2.2,0.3-4.1,0.3
						L270.8,387.5z M270.8,376.3v6.2c0.6,0.1,1.3,0.1,1.9-0.1c0.4-0.1,0.8-0.3,1.1-0.6c0.6-0.5,0.8-1.3,0.8-2.4
						c0-1.1-0.3-1.9-0.8-2.4c-0.6-0.5-1.4-0.8-2.5-0.8L270.8,376.3z"/>
					<path id="text24723" inkscape:connector-curvature="0" sodipodi:nodetypes="cccsscccczccccscccccssscccccc" class="st5" d="
						M297.9,385.4h-5.6l-0.7,1.6c-0.2,0.5-0.3,0.9-0.3,1.3c0,0.4,0.2,0.8,0.5,1c0.2,0.1,0.7,0.2,1.6,0.3v0.4H287v-0.4
						c0.6-0.3,0.9-0.1,1.4-0.7c0.5-0.6,0.8-1.2,1.4-2.4l5.2-11.2l2.6,0l5,11.6c0.5,1.2,1,2,1.4,2.3c0.3,0.2,0.6,0.4,1.1,0.4v0.4
						h-7.7v-0.4h0.3c0.6,0,1.1-0.1,1.3-0.3c0.2-0.1,0.3-0.3,0.3-0.5c0-0.1,0-0.3-0.1-0.4c0-0.1-0.1-0.4-0.4-0.9L297.9,385.4z
						 M297.5,384.6l-2.4-5.5l-2.5,5.5H297.5z"/>
					
						<path id="text24731" inkscape:connector-curvature="0" sodipodi:nodetypes="ccsccccssscccccccccscccsscccccssccccssscccccc" class="st5" d="
						M341.4,381.5l3.9,5.8c0.7,1,1.2,1.7,1.5,1.9s0.6,0.4,1,0.4v0.4h-7.4v-0.4c0.6,0,1-0.1,1.1-0.3c0.2-0.1,0.3-0.3,0.3-0.5
						c0-0.1,0-0.3-0.1-0.4c-0.1-0.2-0.4-0.6-0.8-1.3l-2-2.9l-3.6,4.2c-0.2,0.3-0.1,0.5,0.3,0.7c0.3,0.2,0.4,0.2,0.8,0.3
						c0.2,0,0.5,0.1,1,0.1v0.4h-5.8v-0.4c0.7-0.1,1.2-0.3,1.6-0.5c0.5-0.3,1.2-1.1,2.1-2.1l3-3.7l-3.9-5.7c-0.6-0.9-1-1.5-1.1-1.6
						c-0.2-0.2-0.4-0.4-0.6-0.5c-0.2-0.1-0.5-0.2-0.8-0.2v-0.4h7.5v0.4h-0.4c-0.4,0-0.7,0.1-0.9,0.2c-0.2,0.1-0.3,0.3-0.3,0.5
						c0,0.2,0,0.3,0.1,0.4l0.8,1.2l1.9,2.9l1.6-2c0.8-1,1.2-1.7,1.2-2.1c0-0.2-0.1-0.4-0.2-0.6c-0.1-0.2-0.3-0.3-0.5-0.4
						s-0.6-0.1-1-0.1v-0.4h5.6v0.4c-0.4,0-0.8,0-1.3,0.4L341.4,381.5z"/>
					<path id="path24793" inkscape:connector-curvature="0" class="st5" d="M322.5,389.7l0,0.4l-10.5,0.1l0-0.4l0.7,0
						c0.6,0,1.1-0.1,1.4-0.2c0.3-0.1,0.5-0.3,0.6-0.5c0.1-0.2,0.2-0.6,0.2-1.4l0.4-9.6c0-0.7,0-1.2-0.1-1.4
						c-0.1-0.2-0.3-0.3-0.6-0.5c-0.3-0.1-0.8-0.2-1.3-0.2l-0.7,0l0-0.4l10.5-0.1l0,0.4l-0.7,0c-0.6,0-1.1,0.1-1.4,0.2
						c-0.3,0.1-0.5,0.3-0.6,0.5c-0.1,0.2-0.2,0.6-0.2,1.4l-0.4,9.6c0,0.7,0,1.2,0.1,1.4c0.1,0.2,0.3,0.3,0.6,0.5
						c0.3,0.1,0.8,0.2,1.3,0.2L322.5,389.7z"/>
				</g>
			</g>
		</g>
	</g>
	<g id="g2743">
		<g id="g2636">
			<g id="g2529">
				<g id="g1904">
					<path id="path2161" inkscape:connector-curvature="0" sodipodi:nodetypes="cccccccccccccccccccccccccccccc" class="st1" d="
						M347.6,214.7c3.7-4.6,8.4-8.4,13.9-12c9.5-5.4,16.4-2.5,13.1,17.5c-2.2,6-5.5,10-9.1,13.1l0.4,1.3l-3.4,3.2
						c-3.2,3.6-0.8,6.2,0.6,8.9c5.8,12,0,19.6-5.5,25.1l-10.3,8.2c-1.8,2.6-2.5,5.5-3,8.4c-0.7,3.4-4.9,7.6-7.6,12.7
						c-1.7,4-1.1,7.7-1.9,12.7c-4.4,14.4-18.2,12.5-24.9,12.8c-6.7-0.2-20.5,1.7-24.9-12.7c-0.8-5-0.2-8.7-1.9-12.7
						c-2.7-5.1-6.9-9.3-7.6-12.7c-0.4-2.9-1.1-5.8-3-8.4l-10.3-8.2c-5.4-5.5-11.3-13.1-5.5-25.1c1.4-2.7,3.8-5.3,0.6-8.9l-3.4-3.2
						l0.4-1.3c-3.6-3.1-6.9-7.1-9.1-13.1c-3.3-20,3.6-23,13.1-17.5c5.5,3.6,10.2,7.4,13.9,12l-4.9-5.4c6.6-5.1,17.3-7.2,25.4-9.7
						c13.5-11.9,21.7-11.6,34.9,0.3c8.5,2.4,18.2,5.1,24.5,9.6L347.6,214.7z"/>
					<path id="path1716" inkscape:connector-curvature="0" sodipodi:nodetypes="cccccssccccccccccccccccascccc" class="st1" d="
						M310.1,193c-0.2,0-0.4,0-0.6,0c-6.5,0.4-11.3,5.5-16.4,8.8c-7.6,2.3-15.5,3.8-22.3,7.9c2.4,2.1,4.6,4.9,4.4,8.4
						c-5.9-1.6-16.2-8.9-19.9-4.9c-3.5,3.7-0.9,11.9,0.1,14.3c0.7,1.7,1.2,4.8,1.7,5.2c-1.4,2.8,3.4,3.4,3.6,6.1
						c2.2,5.1-3.2,9.1-3.7,13.9c-1.9,8.5,4.2,16.2,10.8,20.7c4.2,3,8.9,6.4,9.4,12c0.5,4,2.8,7.3,5.3,10.4c3.1,4.2,4.7,9.3,4.3,14.5
						c0.4,6.8,5.7,13,12.7,13.6c7.3,1.1,14.7,0.6,21.9,0c6.6-1.2,12.2-7.2,11.9-14.1c0.1-5.2,1.3-10.6,4.9-14.5
						c2.6-3.3,4.8-6.9,5.1-11.2c1.1-4.8,5-8,9-10.5c6.3-4.7,12.7-11.8,11.2-20.3c-0.5-4.6-4.8-8.3-4.3-13c0.3-2.9,3.1-4.7,4.5-6.7
						c0.1-0.9,1.4-3.9,1.6-6c0.6-4.8,3.8-11.4-0.4-14.4c-6.6-4.9-13.5,3.7-19.7,4.7c-0.5-3.3,1.9-5.8,4-7.9
						c-6.9-4.1-15-5.7-22.6-8.4C321.8,197.5,316.5,192.9,310.1,193L310.1,193z"/>
					
						<path id="path1724" inkscape:connector-curvature="0" sodipodi:nodetypes="ccccccccccccccccccccccsccccccccccccccssc" class="st1" d="
						M319.1,314c-2.9,0-5.5-1.6-8-2.9c-4.1,0.3-7.7,4.5-12.1,2.7c-6.4-1.9-8.1-9.5-8.7-15.3c-0.5-6.5-1.2-14.6-7.5-18.4
						c-2.4-1.9-2.7-6.8,0.9-7.4c6.1-0.8,11.9,2.7,18.1,1.3c3.2-0.3,5.8-2.5,8.5-3.7c3.3,1.1,6,3.8,9.7,3.8
						c5.9,0.8,11.5-2.1,17.3-1.5c3.3,1,3.2,5.9,0.3,7.5c-3.9,2.9-6.1,7.3-6.4,12.1c-0.4,2.7-0.6,5.6-1.5,10.9
						C327.8,310,324.2,314.5,319.1,314z M343.8,221.1c-2.8-0.8-2.2-4.6-1.6-6.8c0.2-1.3,1.5-2.7,1.5-3.7
						c-7.8-3.7-17.4-3.9-23.7-10.4c-3-2.3-6.5-4.3-10.4-4.1c-8.1,0.9-12.8,9.4-20.9,10.2c-4.2,1.3-9.2,2.3-12.7,4.4
						c2.3,3.2,3,7.4,1.9,11.2c-7.7-0.2-19.1-12.4-21.3-6.4c-1.9,5.1,2.2,11.1,4.6,16.5c-2.4,1.3,0.3,2.2,1.3,3.2
						c3.7,4.7,1,11.1-1.6,15.6c-3.4,6.8,1.4,14.5,6.9,18.6c6,3.8,12.5,9.2,12.8,16.9c2.4,6.6,9.1,11.5,9.1,19
						c0.2,5.1,0.4,11.5,5.8,13.9c6.7,3.2,14.5,1.7,21.7,1.8c5.6,0,11.8-3.2,12.7-9.2c0.4-2.1,0.7-4,2.3-10.6
						c1.6-6.6,7.2-10.8,7.9-17.5c0.8-4.9,4.2-8.6,8.1-11.3c5.8-4.1,12.6-9.4,12.1-17.4c0.1-5.3-5.2-9.1-4.4-14.5
						c-0.1-3.5,3.8-5.4,4.5-8.4c1.6-7,4.3-13.6,1.6-15.7C357.7,213.2,350.9,221.1,343.8,221.1L343.8,221.1z"/>
					
						<path id="path1738" inkscape:connector-curvature="0" sodipodi:nodetypes="cccczcccccccccccccsccccccccccccccccccccc" class="st1" d="
						M310,200.4c-7.6,1.7-12.4,9.5-20.4,10.1c-2.5,0.9-5.3,1.1-7.8,2.4c1.4,4.3,1,9-0.8,13.1c-8.7,1.5-12.8-0.8-16.5-4.4
						c-3.7-3.6-3.5-3.1-5.4-4.1c-1.3,1.6,0,8.1,6,12.3c0.8,1.6,0.6,3.5,2,4.8c3.2,6.1,0.5,13.2-2.7,18.7c-1.7,6.2,3.6,11.5,8.4,14.5
						c2.1,1.5,4,3.2,5.9,5c1.7-4.2,6.9-5.1,10.9-4.3c5.8,0.7,12.6,3.4,17.6-0.9c3.1-2,7.5-1.7,10.1,1c7.8,4.3,16.8-3.2,24.6,1.1
						c1,0.8,1.7,1.6,2.7,0.2c4.7-3.7,11.5-7.5,11.5-14.3c-0.9-5.9-6.3-11.1-4.2-17.4c2.2-9.8,10.1-13.6,7-17.9
						c-2.9-4-5.6,4.7-14.3,5.1c-4.7,0.1-8-4.7-7.1-9.1c-0.2-1.4,1.9-3.8-0.9-3.6c-7.9-2.2-15.9-5.2-22-10.8
						C313.2,201,311.6,200.4,310,200.4L310,200.4z M335.7,226.8c4.1,0.1,9.8,0,11.4,4.8c0.8,4.4-4,6.2-7.1,7.8
						c-4.2,3.4-9.3,8.1-15.2,6.3c-6-1-9.7-9.5-4.9-14C323.7,227.1,330.2,226.9,335.7,226.8z M284.7,226.8c6.3-0.2,14.4,1.2,17.2,7.7
						c2.7,6.3-4.6,12.8-10.8,11.5c-6.4-1-10-7.4-16-9.2c-3.2-2.2-2.7-7.9,1.3-8.9C279,226.8,281.9,227.1,284.7,226.8z M311.3,315.7
						c-1.1,0.4-2.2,0.9-3.2,1.4c1.9-0.1,4.8,0,5.9-0.3C313.1,316.4,312.2,315.8,311.3,315.7z"/>
					<path id="path1869" inkscape:connector-curvature="0" class="st1" d="M309.8,209.7c-5.4,3-10.8,7.4-16.7,9.1
						c7.2,1.4,14.3,6,17,13.2c2.4-7.6,10-12.3,17.6-13.1C321.3,216.8,315.6,212.7,309.8,209.7z M310,242.6
						c-3.6,10-16.9,15.6-26.2,9.8c-2.8-1.2-5.3-3.8-7.7-5c-0.9,3.2-3.2,6.2-2.7,9.6c1.5,1.7,3.6,4.2,5.8,4.1
						c6.8-3,14.2-0.4,21.2,0.1c5.2-2.1,11.3-5.5,16.8-2.5c3.5,1.7,7.4,3.5,11.3,1.9c4.7-0.9,9.6-1.3,14.3-0.3c2.3-1.4,6-3.9,3.7-6.9
						c-0.9-2.1-1.7-4.2-2.4-6.3c-5.6,4.5-12.6,8.6-20,7C317.6,253.3,312,248.6,310,242.6L310,242.6z"/>
				</g>
				<g id="g2427">
					<g id="g2332">
						<g id="g2241">
							<path id="path11931" inkscape:connector-curvature="0" sodipodi:nodetypes="ccc" class="st1" d="M304.9,233.7
								c2,0,3.9,5.9,0.3,6.5C304.8,240.1,304.7,234.3,304.9,233.7z"/>
							<path id="path11907" inkscape:connector-curvature="0" sodipodi:nodetypes="cssss" class="st1" d="M296.1,268.6
								c-0.6,0.5-0.5,1.1,0,1.7c0.5,0.6,1.3,0.7,1.9,0.2c0.6-0.5,0.6-1,0.1-1.6S296.6,268.1,296.1,268.6z"/>
							<path id="path11909" inkscape:connector-curvature="0" sodipodi:nodetypes="cssss" class="st1" d="M293.7,258.5
								c-0.6,0.5-0.5,1.1,0,1.7c0.5,0.6,1.3,0.7,1.9,0.2s0.6-1,0.1-1.6C295.2,258.2,294.3,258,293.7,258.5z"/>
							<path id="path11911" inkscape:connector-curvature="0" sodipodi:nodetypes="ccc" class="st1" d="M299.1,262.2
								c0.7-0.8,3,2.3,2.3,2.8C300.6,264.9,299.7,264.3,299.1,262.2z"/>
							<path id="path11913" inkscape:connector-curvature="0" sodipodi:nodetypes="ccc" class="st1" d="M293.2,254
								c0.7-0.8,3.2,1.3,2.5,1.7C294.9,255.7,293.8,256.1,293.2,254z"/>
							<path id="path11915" inkscape:connector-curvature="0" sodipodi:nodetypes="csss" class="st1" d="M298.8,264.8
								c-0.3-0.9-1.8-1.6-2.4-0.8c-0.6,0.8,0.2,2.8,1.1,2.9C298.3,267.1,299.1,265.7,298.8,264.8L298.8,264.8z"/>
							<path id="path11917" inkscape:connector-curvature="0" sodipodi:nodetypes="csss" class="st1" d="M302.1,268.1
								c-0.3-0.7-1.5-1.3-1.9-0.6c-0.5,0.7,0.2,2.3,0.9,2.4C301.7,269.9,302.3,268.8,302.1,268.1z"/>
							<path id="path11919" inkscape:connector-curvature="0" sodipodi:nodetypes="csss" class="st1" d="M291.3,255.9
								c-0.2-0.6-1.2-1.1-1.6-0.5c-0.4,0.5,0.1,1.9,0.7,2S291.5,256.5,291.3,255.9L291.3,255.9z"/>
							<path id="path11921" inkscape:connector-curvature="0" sodipodi:nodetypes="csss" class="st1" d="M290.6,259.5
								c-0.5,0.7-0.3,2.2,0.6,2.2c0.9,0,2.1-1.5,1.8-2.2C292.5,258.8,291.1,258.8,290.6,259.5L290.6,259.5z"/>
							<path id="path11923" inkscape:connector-curvature="0" sodipodi:nodetypes="ccc" class="st1" d="M293.3,263.1
								c0.9-0.6,2.7,2.2,1.9,2.4C294.5,265.2,293.3,265.3,293.3,263.1z"/>
							<path id="path11925" inkscape:connector-curvature="0" sodipodi:nodetypes="ccc" class="st1" d="M296.9,249.3
								c1.4-1.6,7.4,2.8,6.9,4.4C302.9,254.6,296.4,250.9,296.9,249.3z"/>
							<path id="path11927" inkscape:connector-curvature="0" sodipodi:nodetypes="ccc" class="st1" d="M300.6,244.9
								c1.8-1.2,5.4,4.3,5.5,6C304.2,250.2,299.7,246.3,300.6,244.9z"/>
							<path id="path11929" inkscape:connector-curvature="0" sodipodi:nodetypes="ccc" class="st1" d="M306.4,242.8
								c1.4,0.1,1.5,4.4,0.3,5C305.4,247.6,304.9,243.4,306.4,242.8z"/>
							<path id="path3154" inkscape:connector-curvature="0" sodipodi:nodetypes="csss" class="st1" d="M282.8,214.4
								c-1.3-0.4-3.9,2.4-3.4,3.7c0.4,1.3,4.4,2.6,5.2,1.6C285.4,218.8,284.1,214.8,282.8,214.4L282.8,214.4z"/>
							<path id="path4125" inkscape:connector-curvature="0" sodipodi:nodetypes="csss" class="st1" d="M275.3,223
								c-1.3-0.4-3.9,1.5-3.4,2.8c0.4,1.3,4.4,2.6,5.2,1.6S276.6,223.5,275.3,223L275.3,223z"/>
							<path id="path4127" inkscape:connector-curvature="0" sodipodi:nodetypes="csss" class="st1" d="M301.1,206.2
								c-1.3-0.4-5.2,1.8-4.8,3.1c0.4,1.3,4.8,2,5.7,1C302.8,209.4,302.4,206.6,301.1,206.2z"/>
							<path id="path4129" inkscape:connector-curvature="0" sodipodi:nodetypes="cssss" class="st1" d="M283.5,206.2
								c-0.9,0.8-1.2,2.7-0.4,3.6c0.7,0.9,2.6,0.8,3.4,0c0.9-0.8,0.7-2.2,0-3.1C285.7,205.7,284.4,205.4,283.5,206.2L283.5,206.2z"
								/>
							<path id="path5100" inkscape:connector-curvature="0" sodipodi:nodetypes="cssss" class="st1" d="M275.6,208.3
								c-0.9,0.8-0.7,1.6,0,2.5c0.7,0.9,2,1.1,2.8,0.3c0.9-0.8,0.9-1.5,0.1-2.4C277.8,207.9,276.4,207.5,275.6,208.3L275.6,208.3z"
								/>
							<path id="path5102" inkscape:connector-curvature="0" sodipodi:nodetypes="css" class="st1" d="M298,226.8
								c-1.3,1.2-8.9-7.7-7.2-8.2C291.4,218.4,298.9,225.9,298,226.8z"/>
							<path id="path5104" inkscape:connector-curvature="0" sodipodi:nodetypes="css" class="st1" d="M304,224.8
								c-1.1,1.4-8.9-7.6-7.2-8.2C298.5,216,305,223.7,304,224.8z"/>
							<path id="path6075" inkscape:connector-curvature="0" sodipodi:nodetypes="csss" class="st1" d="M297.5,198.4
								c-1.3-0.4-3.4,0.7-3,2.1s3.5,2.3,4.3,1.3C299.7,200.9,298.8,198.8,297.5,198.4L297.5,198.4z"/>
							<path id="path6077" inkscape:connector-curvature="0" sodipodi:nodetypes="ccc" class="st1" d="M272.9,236.2
								c0.7-0.4,7.2,6.8,5.7,7.3C276.1,243.5,272.8,240.9,272.9,236.2z"/>
							<path id="path6079" inkscape:connector-curvature="0" sodipodi:nodetypes="ccc" class="st1" d="M267.7,244.2
								c1.8-1.3,5.2,5.8,3.6,6.4C269.8,250.1,268.2,248.6,267.7,244.2z"/>
							<path id="path6081" inkscape:connector-curvature="0" sodipodi:nodetypes="ccc" class="st1" d="M283.1,242.3
								c2.6,1.7,6.9,6.2,5.7,8.2C287.1,251,283.7,245.3,283.1,242.3z"/>
							<path id="path8021" inkscape:connector-curvature="0" sodipodi:nodetypes="ccc" class="st1" d="M281.2,258.9
								c-1.9,2.6,5.9,8.7,8.3,6.1C286,264.1,283.6,261.4,281.2,258.9z"/>
							<path id="path8992" inkscape:connector-curvature="0" sodipodi:nodetypes="css" class="st1" d="M275.7,262.9
								c0.2-0.2,8.1,4.9,7.3,5.7C281.9,269.6,275.4,263.1,275.7,262.9L275.7,262.9z"/>
							<path id="path8994" inkscape:connector-curvature="0" sodipodi:nodetypes="css" class="st1" d="M278.4,283.6
								c0.6-1.7,4.3,7.5,4,8.4C281.8,293.4,278.3,284,278.4,283.6L278.4,283.6z"/>
							<path id="path9965" inkscape:connector-curvature="0" sodipodi:nodetypes="ccsc" class="st1" d="M262.7,252.5
								c-2.7,7.2,1,15.7,5.8,16.8c0.7-1.1-3.3-2.6-4.5-7.9C263.1,257.2,263.4,252.3,262.7,252.5z"/>
							<path id="path10936" inkscape:connector-curvature="0" sodipodi:nodetypes="csss" class="st1" d="M285.8,294.5
								c0.5-0.7,3.1,5,3.7,7.6c0.5,2.2-2.4,2.8-2.5,2C286.7,301.7,285.5,295,285.8,294.5z"/>
							<path id="path12966" inkscape:connector-curvature="0" sodipodi:nodetypes="ccccccc" class="st1" d="M305.9,257.6
								c3.1,3.5,5.7,1.8,7.2-0.1c4.4-4.5,8.5,0.2,5.5,3.3l-4.6,4.6c-1.7,1.8-6.7,2-8.1,0.2l-5.2-5.2
								C298.2,257,301.9,253.7,305.9,257.6L305.9,257.6z"/>
							<path id="path17836" inkscape:connector-curvature="0" sodipodi:nodetypes="csss" class="st1" d="M337.3,214.3
								c1.3-0.4,3.9,2.4,3.4,3.7c-0.4,1.3-4.4,2.6-5.2,1.6S336,214.7,337.3,214.3L337.3,214.3z"/>
							<path id="path17838" inkscape:connector-curvature="0" sodipodi:nodetypes="csss" class="st1" d="M344.8,223
								c1.3-0.4,3.9,1.5,3.4,2.8c-0.4,1.3-4.4,2.6-5.2,1.6S343.5,223.4,344.8,223L344.8,223z"/>
							<path id="path17840" inkscape:connector-curvature="0" sodipodi:nodetypes="csss" class="st1" d="M318.9,206.1
								c1.3-0.4,5.2,1.8,4.8,3.1c-0.4,1.3-4.8,2-5.7,1C317.2,209.4,317.6,206.5,318.9,206.1z"/>
							<path id="path17842" inkscape:connector-curvature="0" sodipodi:nodetypes="cssss" class="st1" d="M336.5,206.1
								c0.9,0.8,1.2,2.7,0.4,3.6c-0.7,0.9-2.6,0.8-3.4,0c-0.9-0.8-0.7-2.2,0-3.1C334.3,205.6,335.7,205.3,336.5,206.1L336.5,206.1z"
								/>
							<path id="path17844" inkscape:connector-curvature="0" sodipodi:nodetypes="cssss" class="st1" d="M344.5,208.2
								c0.9,0.8,0.7,1.6,0,2.5c-0.7,0.9-2,1.1-2.8,0.3c-0.9-0.8-0.9-1.5-0.1-2.4C342.2,207.8,343.6,207.4,344.5,208.2L344.5,208.2z"
								/>
							<path id="path17846" inkscape:connector-curvature="0" sodipodi:nodetypes="css" class="st1" d="M322,226.7
								c1.3,1.2,8.9-7.7,7.2-8.2C328.6,218.3,321.1,225.8,322,226.7z"/>
							<path id="path17848" inkscape:connector-curvature="0" sodipodi:nodetypes="css" class="st1" d="M316,224.8
								c1.1,1.4,8.9-7.6,7.2-8.2C321.5,216,315.1,223.6,316,224.8z"/>
							<path id="path17850" inkscape:connector-curvature="0" sodipodi:nodetypes="csss" class="st1" d="M322.5,198.3
								c1.3-0.4,3.4,0.7,3,2.1c-0.4,1.3-3.5,2.3-4.3,1.3S321.2,198.8,322.5,198.3L322.5,198.3z"/>
							<path id="path17852" inkscape:connector-curvature="0" sodipodi:nodetypes="ccc" class="st1" d="M347.1,236.1
								c-0.7-0.4-7.2,6.8-5.7,7.3C343.9,243.4,347.3,240.8,347.1,236.1z"/>
							<path id="path17854" inkscape:connector-curvature="0" sodipodi:nodetypes="ccc" class="st1" d="M352.3,244.1
								c-1.8-1.3-5.2,5.8-3.6,6.4C350.2,250,351.9,248.5,352.3,244.1z"/>
							<path id="path17856" inkscape:connector-curvature="0" sodipodi:nodetypes="ccc" class="st1" d="M337,242.2
								c-2.6,1.7-6.9,6.2-5.7,8.2C332.9,250.9,336.4,245.2,337,242.2z"/>
							<path id="path17858" inkscape:connector-curvature="0" sodipodi:nodetypes="ccc" class="st1" d="M338.9,258.8
								c1.9,2.6-5.9,8.7-8.3,6.1C334,264,336.4,261.3,338.9,258.8L338.9,258.8z"/>
							<path id="path17860" inkscape:connector-curvature="0" sodipodi:nodetypes="css" class="st1" d="M344.3,262.8
								c-0.2-0.2-8.1,4.9-7.3,5.7C338.1,269.5,344.6,263,344.3,262.8z"/>
							<path id="path17862" inkscape:connector-curvature="0" sodipodi:nodetypes="css" class="st1" d="M341.6,283.6
								c-0.6-1.7-4.3,7.5-4,8.4C338.2,293.3,341.7,283.9,341.6,283.6z"/>
							<path id="path17864" inkscape:connector-curvature="0" sodipodi:nodetypes="ccsc" class="st1" d="M357.3,252.4
								c2.7,7.2-1,15.7-5.8,16.8c-0.7-1.1,3.3-2.6,4.5-7.9C356.9,257.1,356.7,252.2,357.3,252.4L357.3,252.4z"/>
							<path id="path17866" inkscape:connector-curvature="0" sodipodi:nodetypes="csss" class="st1" d="M334.2,294.5
								c-0.5-0.7-3.1,5-3.7,7.6c-0.5,2.2,2.4,2.8,2.5,2C333.4,301.6,334.5,295,334.2,294.5z"/>
							<path id="path17868" inkscape:connector-curvature="0" sodipodi:nodetypes="cssss" class="st1" d="M323.9,268.5
								c0.6,0.5,0.5,1.1,0,1.7c-0.5,0.6-1.3,0.7-1.9,0.2c-0.6-0.5-0.6-1-0.1-1.6S323.4,268,323.9,268.5z"/>
							<path id="path17870" inkscape:connector-curvature="0" sodipodi:nodetypes="cssss" class="st1" d="M326.3,258.4
								c0.6,0.5,0.5,1.1,0,1.7c-0.5,0.6-1.3,0.7-1.9,0.2s-0.6-1-0.1-1.6S325.7,257.9,326.3,258.4z"/>
							<path id="path17872" inkscape:connector-curvature="0" sodipodi:nodetypes="ccc" class="st1" d="M320.9,262.1
								c-0.7-0.8-3,2.3-2.3,2.8C319.4,264.8,320.3,264.2,320.9,262.1z"/>
							<path id="path17874" inkscape:connector-curvature="0" sodipodi:nodetypes="ccc" class="st1" d="M326.8,254
								c-0.7-0.8-3.2,1.3-2.5,1.7C325.1,255.6,326.2,256,326.8,254z"/>
							<path id="path17876" inkscape:connector-curvature="0" sodipodi:nodetypes="csss" class="st1" d="M321.2,264.8
								c0.3-0.9,1.8-1.6,2.4-0.8s-0.2,2.8-1.1,2.9C321.7,267,320.9,265.7,321.2,264.8L321.2,264.8z"/>
							<path id="path17878" inkscape:connector-curvature="0" sodipodi:nodetypes="csss" class="st1" d="M317.9,268
								c0.3-0.7,1.5-1.3,1.9-0.6c0.5,0.7-0.2,2.3-0.9,2.4S317.7,268.8,317.9,268z"/>
							<path id="path17880" inkscape:connector-curvature="0" sodipodi:nodetypes="csss" class="st1" d="M328.7,255.9
								c0.2-0.6,1.2-1.1,1.6-0.5c0.4,0.5-0.1,1.9-0.7,2S328.5,256.5,328.7,255.9L328.7,255.9z"/>
							<path id="path17882" inkscape:connector-curvature="0" sodipodi:nodetypes="csss" class="st1" d="M329.5,259.4
								c0.5,0.7,0.3,2.2-0.6,2.2s-2.1-1.5-1.8-2.2S328.9,258.8,329.5,259.4L329.5,259.4z"/>
							<path id="path17884" inkscape:connector-curvature="0" sodipodi:nodetypes="ccc" class="st1" d="M326.7,263
								c-0.9-0.6-2.7,2.2-1.9,2.4C325.5,265.1,326.8,265.2,326.7,263z"/>
							<path id="path17886" inkscape:connector-curvature="0" sodipodi:nodetypes="ccc" class="st1" d="M323.1,249.2
								c-1.4-1.6-7.4,2.8-6.9,4.4C317.1,254.5,323.6,250.8,323.1,249.2z"/>
							<path id="path17888" inkscape:connector-curvature="0" sodipodi:nodetypes="ccc" class="st1" d="M319.4,244.8
								c-1.8-1.2-5.4,4.3-5.5,6C315.8,250.1,320.3,246.2,319.4,244.8z"/>
							<path id="path17890" inkscape:connector-curvature="0" sodipodi:nodetypes="ccc" class="st1" d="M313.6,242.7
								c-1.4,0.1-1.5,4.4-0.3,5C314.6,247.5,315.2,243.3,313.6,242.7z"/>
							<path id="path17892" inkscape:connector-curvature="0" sodipodi:nodetypes="ccc" class="st1" d="M315.1,233.6
								c-2,0-3.9,5.9-0.3,6.5C315.2,240,315.3,234.2,315.1,233.6z"/>
						</g>
						<g id="g2261">
							<g id="g2246">
								<path id="path40702" inkscape:connector-curvature="0" sodipodi:nodetypes="cccsc" class="st1" d="M276.3,234.1
									c0-1.1,13.6-2.7,19,1.3c5.9,5.8-2.5,9.4-6.2,7.8c-1.2-0.6-2.9-2-5.2-3.9C280.3,236.4,275.4,234.8,276.3,234.1L276.3,234.1z"
									/>
								<path id="path11993" inkscape:connector-curvature="0" sodipodi:nodetypes="cccsc" class="st1" d="M277.2,232.4
									c0-1.1,13.6-2.7,19,1.3c5.9,5.8-2.5,9.4-6.2,7.8c-1.2-0.6-2.9-2-5.2-3.9C281.2,234.6,276.2,233.1,277.2,232.4z"/>
								<ellipse id="path12964" class="st5" cx="291.6" cy="237" rx="4.1" ry="3.9"/>
							</g>
							<g id="g2251">
								<path id="path41673" inkscape:connector-curvature="0" sodipodi:nodetypes="cccsc" class="st1" d="M343.5,233.9
									c0-1.1-13.6-2.7-19,1.3c-5.9,5.8,2.5,9.4,6.2,7.8c1.2-0.6,2.9-2,5.2-3.9C339.4,236.1,344.4,234.6,343.5,233.9z"/>
								<path id="path17894" inkscape:connector-curvature="0" sodipodi:nodetypes="cccsc" class="st1" d="M342.9,232.3
									c0-1.1-13.6-2.7-19,1.3c-5.9,5.8,2.5,9.4,6.2,7.8c1.2-0.6,2.9-2,5.2-3.9C338.8,234.6,343.8,233,342.9,232.3z"/>
								<ellipse id="path17896" class="st5" cx="328.5" cy="236.9" rx="4.1" ry="3.9"/>
							</g>
						</g>
					</g>
					<g id="g2089">
						<path id="path13937" inkscape:connector-curvature="0" sodipodi:nodetypes="ccccccccccc" class="st1" d="M311.4,307.7
							c1.7,0.2,3,0.9,4.6,1.9c9.7,4.7,11.8-5.6,12.7-18.5c1.6-11.9,9.2-13.2,8.7-15.4c-0.4-0.7-6,0.5-8.8,1
							c-10.3,1.8-13.8-0.8-17.5-3.1c-3.7,2.4-7.3,5-17.5,3.2c-2.7-0.5-8.3-1.6-8.8-1c-0.6,2.2,7,3.5,8.7,15.4
							c0.8,12.8,2.9,23.2,12.7,18.5C307.8,308.5,309.4,307.9,311.4,307.7L311.4,307.7z"/>
						<g id="g2065">
							<g id="g2021">
								<path id="path14913" inkscape:connector-curvature="0" sodipodi:nodetypes="ccccccccccc" class="st1" d="M312,301.2
									c0.7,0.1,1.3,0.4,2,0.8c4.2,2,5.9-2.5,6.3-8.1c-0.1-7.1,3.2-13,2.9-13.9c-0.2-0.3-2.7,0.2-3.9,0.4c-4.5,0.8-5.9-0.4-7.5-1.4
									c-1.6,1-3.2,2.2-7.7,1.4c-1.2-0.2-4.3-0.6-4.5-0.3c-0.2,0.5,3.9,4.9,3.9,14.2c0.4,5.6,1.9,9.7,6.2,7.6
									C310.4,301.5,311.1,301.2,312,301.2L312,301.2z"/>
								<path id="path1987" inkscape:connector-curvature="0" class="st1" d="M311.6,280.4c-3,2.3-7.4,1-10.3,1
									c3.1,5,3,11.1,3.7,16.7c0.1,2.4,2.5,4.7,4.7,2.7c2.2-1.6,4.3,0.5,6.4,0.7c3.3-1.7,2.8-6.3,3.1-9.5c0.1-3.7,1.6-7.6,2.5-10.8
									C318.4,281.8,314.6,282.5,311.6,280.4z"/>
								<path id="path1993" class="st1" d="M313.2,283.4c-0.1,4.5-0.2,9.8-0.4,14.7c0.4,0.1,0.8,0.2,1.1,0.4
									c1.1,0.8,2.6,0.8,2.5-0.9c1-4.6,0.3-9.6,2.4-13.9C317,284.1,315,284,313.2,283.4z M310.2,283.5c-1.8,0.5-3.8,0.2-5.3,0.5
									c1.9,4.9,1.1,10.6,2.9,15.3c0.9-0.5,1.9-1,2.9-1.2C310.5,293.3,310.4,288.4,310.2,283.5z"/>
							</g>
							<g id="g1985" transform="translate(0,0.80885889)">
								<g id="g1968">
									<path id="path16861" inkscape:connector-curvature="0" sodipodi:nodetypes="cscs" class="st1" d="M305.5,278.4
										c-0.4-0.8,1.7-1.7,2.1-0.9c0.6,1.1,0.4,3.7,0.4,3.7S305.9,279.3,305.5,278.4z"/>
									<path id="path17832" inkscape:connector-curvature="0" sodipodi:nodetypes="cscs" class="st1" d="M315.2,278
										c0.4-0.8-1.7-1.7-2.1-0.9c-0.6,1.1-0.4,3.7-0.4,3.7S314.8,278.9,315.2,278z"/>
								</g>
								<g id="g1956">
									<path id="path15888" inkscape:connector-curvature="0" sodipodi:nodetypes="cccc" class="st1" d="M323.6,279.5
										c0.6-2.9,2.6-2.1,4.1-2.6c1.7,1.9-1.9,9.8-3.8,9.7L323.6,279.5z"/>
									<path id="path1906" inkscape:connector-curvature="0" sodipodi:nodetypes="ccc" class="st1" d="M327,278.2
										c-2.9-0.1-2.3,2.9-2,6.3C326,282.8,327.4,279.9,327,278.2z"/>
								</g>
								<g id="g1946">
									<path id="path16859" inkscape:connector-curvature="0" sodipodi:nodetypes="cccc" class="st1" d="M295.8,279.1
										c-0.6-2.9-2.6-2.1-4.1-2.6c-1.7,1.9,1.9,9.8,3.8,9.7L295.8,279.1z"/>
									<path id="path1908" inkscape:connector-curvature="0" sodipodi:nodetypes="ccccc" class="st1" d="M292.3,277.8
										c0,2.3,1,4.4,2.2,6.3c-0.2-2.1,1.5-6.7-2.1-6.4l-0.1,0L292.3,277.8z"/>
								</g>
								<g id="g1964">
									<path id="path14915" inkscape:connector-curvature="0" sodipodi:nodetypes="cccc" class="st1" d="M299.3,304.8
										c0,3.7,6.6,2.6,6.9,0.1c0.2-4-2.2-7-1.7-10.7C302.2,296.9,299.5,299.4,299.3,304.8L299.3,304.8z"/>
									<path id="path1910" inkscape:connector-curvature="0" sodipodi:nodetypes="cccccc" class="st1" d="M303.2,297.4
										c-1.7,2.2-3.4,5.5-2.4,8.3c1.8,1.2,5.5-0.1,4.3-2.8c-0.3-2-1.2-3.9-1.5-6L303.2,297.4L303.2,297.4z"/>
								</g>
								<g id="g1960">
									<path id="path15886" inkscape:connector-curvature="0" sodipodi:nodetypes="cccc" class="st1" d="M322.1,304.3
										c0,3.7-6.6,2.6-6.9,0.1c-0.2-4,2.2-7,1.7-10.7C319.3,296.3,322,298.9,322.1,304.3L322.1,304.3z"/>
									<path id="path1912" inkscape:connector-curvature="0" sodipodi:nodetypes="cccc" class="st1" d="M318,296.6
										c-0.3,2.7-2.2,5.5-1.4,8.1c1.5,1.6,5.7,1.2,4.4-1.7C320.7,300.6,319.5,298.1,318,296.6z"/>
								</g>
							</g>
						</g>
					</g>
				</g>
			</g>
			<path id="path1690" class="st5" d="M251.2,200.3c-5.3,0-8.2,5.5-5.9,19.9c1.1,3,2.4,5.4,4,7.5c0.8-6.6-1.5-16.5,2.6-20.5
				c3.5-3.4,10.4,3.1,15.3,2.1c-2.6-2.4-5.6-4.6-8.8-6.7C255.8,201.2,253.3,200.3,251.2,200.3z"/>
			<path id="path1694" class="st5" d="M368.8,200.2c-2.1,0-4.6,0.9-7.2,2.4c-3.2,2.1-6.2,4.3-8.8,6.7c4.9,0.9,11.8-5.5,15.3-2.1
				c4.1,4.1,1.8,14.1,2.6,20.7c1.6-2.1,2.9-4.6,4.1-7.7C377,205.7,374.1,200.2,368.8,200.2z"/>
		</g>
		<path id="path1893" inkscape:connector-curvature="0" sodipodi:nodetypes="cccccccccccccccccccccccccccccc" class="st5" d="
			M347.6,214.7c3.7-4.6,8.4-8.4,13.9-12c9.5-5.4,16.4-2.5,13.1,17.5c-2.2,6-5.5,10-9.1,13.1l0.4,1.3l-3.4,3.2
			c-3.2,3.6-0.8,6.2,0.6,8.9c5.8,12,0,19.6-5.5,25.1l-10.3,8.2c-1.8,2.6-2.5,5.5-3,8.4c-0.7,3.4-4.9,7.6-7.6,12.7
			c-1.7,4-1.1,7.7-1.9,12.7c-4.4,14.4-18.2,12.5-24.9,12.8c-6.7-0.2-20.5,1.7-24.9-12.7c-0.8-5-0.2-8.7-1.9-12.7
			c-2.7-5.1-6.9-9.3-7.6-12.7c-0.4-2.9-1.1-5.8-3-8.4l-10.3-8.2c-5.4-5.5-11.3-13.1-5.5-25.1c1.4-2.7,3.8-5.3,0.6-8.9l-3.4-3.2
			l0.4-1.3c-3.6-3.1-6.9-7.1-9.1-13.1c-3.3-20,3.6-23,13.1-17.5c5.5,3.6,10.2,7.4,13.9,12l-4.9-5.4c6.6-5.1,17.3-7.2,25.4-9.7
			c13.5-11.9,21.7-11.6,34.9,0.3c8.5,2.4,18.2,5.1,24.5,9.6L347.6,214.7z"/>
	</g>
</g>
<path id="SVGID_x5F_1_x5F_" class="st6" d="M546.8,300c0,128.2-105.5,232.1-235.8,232.1S75.3,428.2,75.3,300S180.8,67.9,311,67.9
	S546.8,171.8,546.8,300z"/>
<text><textPath  xlink:href="#SVGID_x5F_1_x5F_" startOffset="73.1934%">
<tspan  style="fill:#FFFFFF;stroke:#FFFFFF;stroke-miterlimit:10; font-family:'Arvo'; font-size:33px;">République Démocratique du Congo</tspan></textPath>
</text>
<ellipse class="st7" cx="311" cy="300" rx="275.9" ry="274.9"/>
<path id="SVGID_x5F_2_x5F_" class="st6" d="M567.1,300c0-139.6-114.7-252.7-256.1-252.7S54.9,160.4,54.9,300S169.6,552.7,311,552.7
	S567.1,439.6,567.1,300z"/>
<text><textPath  xlink:href="#SVGID_x5F_2_x5F_" startOffset="66.8315%">
<tspan  style="fill:#FFFFFF;stroke:#FFFFFF;stroke-miterlimit:10; font-family:'Arvo'; font-size:27px;">Commission Nationale de Lutte contre la Fraude Minière</tspan></textPath>
</text>
<ellipse class="st7" cx="311" cy="300" rx="212.9" ry="212.1"/>
<image style="overflow:visible;" width="1753" height="2048" xlink:href="C:\Users\SHANGWE\Downloads\Coat_of_arms_of_the_Democratic_Republic_of_the_Congo_(with_background).svg.png"  transform="matrix(0.1782 0 0 0.1782 -404.2122 293.5)">
</image>
<polygon class="st8" points="69.8,256.1 79.5,251 77.7,261.9 85.6,269.5 74.7,271.1 69.8,281 64.9,271.1 54,269.5 61.9,261.9 
	60,251 "/>
<polygon class="st8" points="551.1,244 560.9,238.9 559,249.7 566.9,257.4 556,259 551.1,268.9 546.3,259 535.4,257.4 543.2,249.7 
	541.4,238.9 "/>
</svg>
