<svg xmlns="http://www.w3.org/2000/svg" viewBox="0 0 553.75 551.81"><title>clearedAsset 8full-white-2</title><g id="Layer_2" data-name="Layer 2"><g id="svg2"><g id="g2912"><g id="g1485"><g id="g1423"><g id="g1408"><path id="path23740" d="M301.33,347.34l55.54-144.52c-26.24-40.21,22.13-70.41,36.43-85.4.48,34.89,14.86,72.17-27.47,89.58l-52,143.33Z" style="fill:none;stroke:#fff;stroke-width:1.5920297027859647px;fill-rule:evenodd"/><path id="path1172" d="M391.81,120.39c-14.37,13.23-31.06,25.7-38.69,44.36-5.07,11.85-3.05,25.92,4.06,36.57,2,2.35-1.29,5.24-1.6,7.82q-26.41,68.73-52.82,137.45l10.44,2.49Q339.09,277.64,365,206.2c11.82-4.5,23-13.3,27-25.68,5.84-17.68,1.47-36.56.56-54.83-.12-1.92-.22-3.84-.28-5.77l-.38.37Z" style="fill:none;stroke:#fff;stroke-miterlimit:10;fill-rule:evenodd"/><path id="path1178" d="M389.18,125.64c-14.09,12.59-29.89,25.52-35.59,44.21-3,10.82-.08,22.55,6.14,31.76.91,4.12-2.69,7.38-3.31,11.27L305.66,345c2.1.31,4.18,2,6.29,1.34q25.69-70.86,51.38-141.73c12.32-4.31,23.79-13.74,27.34-26.62,4.51-16.72.83-34.53-.22-51.65C390.26,125.12,390.84,123.57,389.18,125.64Z" style="fill:none;stroke:#fff;stroke-miterlimit:10;fill-rule:evenodd"/><path id="path1184" d="M384.47,135.52c-11.84,10.65-24.3,22.78-27.53,39-1.21,8.87,1.76,18.46,6.8,25.41,11.84-4.59,22.16-14.91,24-27.87,1.85-12.78.24-25.8-1-38.61Z" style="fill:none;stroke:#fff;stroke-miterlimit:10;fill-rule:evenodd"/><path id="path1194" d="M379.21,152.33c-7.89,8.33-15.62,19.12-13.55,31.16.42,1.53.65,4.65,1.95,5,9.09-6.1,13.75-17.63,12.48-28.26,0-2.87-.08-5.73-.26-8.58l-.36.38Z" style="fill:none;stroke:#fff;stroke-miterlimit:10;fill-rule:evenodd"/><path id="path41675" d="M393.8,118.05l-1.5-.53s-21.67,55-28,80.18C375.41,173.07,393.8,118.05,393.8,118.05Z" style="fill:none;stroke:#fff;stroke-miterlimit:10;fill-rule:evenodd"/></g><g id="g1398"><path id="path21798" d="M265.2,347.94c-113.18-119-64.22-186-45.39-219.77-90,77.19-47.75,164.26-1.19,228.73Z" style="fill:none;stroke:#fff;stroke-linecap:round;stroke-linejoin:round;stroke-width:1.5920297027859647px;fill-rule:evenodd"/><path id="path1212" d="M211.23,138.87c-21.81,21-38.59,48.72-41.57,79.24-3.3,31.67,6.81,63.27,21.44,91.06a378.05,378.05,0,0,0,28.45,45.39l41.47-8C233.53,317,208.35,283.69,196.4,244.63c-8-26.53-7.46-55.8,3.1-81.55a202.77,202.77,0,0,1,11.73-24.21Z" style="fill:none;stroke:#fff;stroke-miterlimit:10;fill-rule:evenodd"/><path id="path1218" d="M193.05,167c-14.85,22.2-22.58,49.58-19.05,76.22,3.92,36.35,22,69.4,42.26,99.22,1.7,2.48,3.42,5,5.17,7.41l31.33-6c-27.5-30.31-52.07-65-62.37-105.16a128.46,128.46,0,0,1,3.39-72.76Z" style="fill:none;stroke:#fff;stroke-miterlimit:10;fill-rule:evenodd"/><path id="path1228" d="M180.68,227.93c-.58,29.69,10.7,58.22,25,83.71,5.84,10.31,14.68,24.45,21.4,34.19,4.47-1.08,10.34-1.56,14.33-2.8-27.3-31.85-53.77-73.22-60.75-115.23Z" style="fill:none;stroke:#fff;stroke-miterlimit:10;fill-rule:evenodd"/><path id="path22769" d="M219.81,128.17c-49.43,51-49.61,138.31,13.44,218.58" style="fill:none;stroke:#fff;stroke-linecap:round;stroke-width:1.5920297027859647px;fill-rule:evenodd"/></g></g><g id="g1391"><g id="g1373"><path id="path19856" d="M174.52,381.71c18.68-1.86,36.5-1.11,54.68-1.47,14.85-.54,29.7,2.16,44.55,3.37,13.52.95,27-.69,40.54-1.05l35.48,1.9,24.28,1.05c3.7.24,3.51,2.14,3.38,4-1,10.08-6.17,16.85-9.72,24.91A95.73,95.73,0,0,1,354.2,428.8c-2.94,3-7.33,3.64-13.09,2.11-2.69-1.6-25.76,0-38.64,0a43.57,43.57,0,0,0-8.23-1.06c-3.38.06-2.27,1.17-5.28,1.27s-4.07-1-6.76-.84c-1.85.26-1.64,1.42-4,1.47-6.85.12-21.95-2.23-23.65-1.26-12.15,6.6-29.26,2.9-44.76,2.53H193.52c-5.84,0-8.18-4.33-10.14-9.08-1.72-5-4.32-7.3-6.54-10.77-5.74-10.19-4.13-17.93-4.33-26.28-1.45-4.63.42-4.44,2-5.18Z" style="fill:none;stroke:#fff;stroke-width:1.5920297027859647px;fill-rule:evenodd"/><path id="path1058" d="M232,382.29c-19.29.7-38.66-.21-58,.76,1.22,4.37,0,10.08.58,14.56.25,6.8,2.5,13.61,7.16,18.67,3.15,4.07,3.74,9.85,7.64,13.32,4.61,2.57,10,.82,15.06,1.23,15.12-.49,30.6,3.91,45.36-.58,3.12-1.67,6.59-2.75,10.13-2,6.44.23,13,2,19.29.93,3.74-2.8,8.57,1.37,12.32-1.1,6.08-1.23,12.12,1.64,18.23.6,10.63,0,21.5-1.69,32.05.21A11.67,11.67,0,0,0,355.19,425c6-5.35,11.23-11.34,14.22-18.81,2.88-5.66,6-12.57,5.88-19.11-3.93-.32-7.74.76-11.52.12-18.68-.51-37.34-2.6-56-2.24-16.33,1.06-32.82,1.81-49.05-.78C249.81,383.19,241,382.21,232,382.29Z" style="fill:none;stroke:#fff;stroke-miterlimit:10;fill-rule:evenodd"/><path id="path1070" d="M232.06,389.5c-18.13.67-36.93-2.4-54.36-2.45.16,8.67-.85,18.6,5.37,25.59,3,3.81,4.85,8.33,6.79,12.7,3,4.08,8.56,1.83,12.77,2.28,14.22-.77,28.39,3.29,42.49.48,4.69-1,8.95-3.79,13.91-3.2,7.44.24,15.16,3,22.33.2,3.89-.23,7.9,1.36,11.6-.39,7-.37,14,1.92,21,.7,10.95-.54,22.1-1.2,32.91,1,5.56-1.08,8.6-6.45,12.5-10a66.28,66.28,0,0,0,12.59-25.46c-1.11-.7-4,0-5.62-.36-25.76.22-50.29-.66-76.31-.08a418.06,418.06,0,0,1-50.21-.91c-2.57-.13-5.15-.17-7.73-.07Z" style="fill:none;stroke:#fff;stroke-miterlimit:10;fill-rule:evenodd"/><path id="path1086" d="M230.61,393.72c-15.19.51-30.45-1.21-45.58,0a25.79,25.79,0,0,0,7,18.71c1.56,2.44,2,5.86,4.14,7.76,7.86,0,15.76-.68,23.58.65,10.79,1.1,22.18,1.66,32.37-2.79,10.07-2.25,20.37,2.81,30.25-.39,8,.79,16.12-1.12,24.09.44,12.64.12,25.39-1.68,38,.23,3.92.37,6-3.68,8.51-6a66,66,0,0,0,8.91-14.68c-26.89-1.29-53.84-3.11-80.72-1-16.95-.31-33.65-3.1-50.56-2.93Z" style="fill:none;stroke:#fff;stroke-miterlimit:10;fill-rule:evenodd"/></g><g id="g1378"><path id="path20827" d="M172.63,382.58c5.6-8.05,23.84-14.8,35.61-22.62l138,6.27c10.2,5.34,19.53,11.77,29,18.07,3,2.72,1.54,2.59.3,2.61C307.9,387.89,240.27,389.25,172.63,382.58Z" style="fill:none;stroke:#fff;stroke-width:1.5920297027859647px;fill-rule:evenodd"/><path id="path1060" d="M208.67,362.21C198.46,369,186.5,373,177.05,381c16.91,1.31,33.84,2.7,50.82,3.32,48,2.08,96.14,1.26,144.2.56-8.69-6-17.43-12.06-26.91-16.54-45.48-2-91.05-4.28-136.49-6.09Z" style="fill:none;stroke:#fff;stroke-miterlimit:10;fill-rule:evenodd"/><path id="path1072" d="M209.53,366.72c-6.46,4.12-13.52,7.19-20.15,11,56.19,4.42,112.67,3.91,169,3.07-6.37-4.07-13-9.3-21-8.57C294.79,370.44,252.11,367.93,209.53,366.72Z" style="fill:none;stroke:#fff;stroke-miterlimit:10;fill-rule:evenodd"/></g></g><g id="g1367"><g id="g1307"><g id="g1283"><path id="path18883" d="M214.63,348.35c5.63-9.26,4.07-19.94-2.11-26-20.23-18.2-49-44.13-59.12-72.63-5.65-17.8-12.23-34.29-14.14-57.43-2.68-18.09-30.15-10.74-26.61,10.77l7.81,33.15c16.79,80,64,92.26,91.64,121.61Z" style="fill:none;stroke:#fff;stroke-width:0.7960148513929823px;fill-rule:evenodd"/><path id="path1142" d="M128.19,185.26c-9.17,0-15.22,10.91-11.87,19,3.84,16.68,7.42,33.57,12,50,8,26.07,23.22,50,44.57,67.13,10.46,8.79,21.71,16.59,32.16,25.39a13.29,13.29,0,0,1,9.65-7.54c1.46-7.49-3-14.79-9.09-18.82-20.57-18.81-41.7-38.66-53.18-64.59A320.85,320.85,0,0,1,139,212.28c-1.66-7.57-2.16-15.43-3.88-22.93A7.65,7.65,0,0,0,128.19,185.26Z" style="fill:none;stroke:#fff;stroke-miterlimit:10;fill-rule:evenodd"/><path id="path1244" d="M128.51,189.49c-7,0-11,9-7.82,14.85,6.75,27.94,10.88,57.41,26.83,82,11,17.94,26.92,32.08,43.84,44.24,4.32,3.1,8.72,7.05,12.9,9.8,1.73-2.1,4.66-3.13,6.5-4.73-.7-8.34-9-12.49-14.24-17.81-20.49-19-40.9-39.92-50.4-66.78a267.65,267.65,0,0,1-14.91-59.72A3,3,0,0,0,128.51,189.49Z" style="fill:none;stroke:#fff;stroke-miterlimit:10;fill-rule:evenodd"/></g><g id="g1288"><path id="path19854" d="M339.12,349.28c-5.63-9.26-4.07-19.95,2.11-26,20.23-18.2,49-44.14,59.12-72.63,5.65-17.81,12.23-34.3,14.14-57.44,2.68-18.08,30.15-10.73,26.61,10.77l-7.81,33.15c-16.79,80-64,92.27-91.64,121.62Z" style="fill:none;stroke:#fff;stroke-width:0.7960148513929823px;fill-rule:evenodd"/><path id="path1144" d="M425.25,186.21c-5.76-.15-8.53,6.71-8,11.63-2.42,21.06-9.27,41.31-16.84,61-11.56,24.47-31.51,43.54-51.21,61.52-5.46,4.15-11.27,10.45-10.32,17.61,5.38-.54,10.73,4.9,9.31,10.35,18.37-15.78,39.84-28.8,54.45-48.35,16.5-21.11,24.73-47.22,29.77-73.23,2.08-9.44,5.34-18.76,5.78-28.44C437.48,192,431.93,185.92,425.25,186.21Z" style="fill:none;stroke:#fff;stroke-miterlimit:10;fill-rule:evenodd"/><path id="path1246" d="M425.37,190.46c-4.1.67-4.09,5.73-4.05,9a232.16,232.16,0,0,1-20.48,67.83c-13.35,24.41-34.57,43-54.65,61.73-1.17,1.52-2.71,3.55-2.68,5.32a13.65,13.65,0,0,1,7.5,6.15c20.17-16.13,42.48-31.06,55.73-53.86,13.62-22,18.9-47.9,24.46-72.92,1.42-6,3.88-12.56,1.51-18.62C431.23,192.47,428.5,190.31,425.37,190.46Z" style="fill:none;stroke:#fff;stroke-miterlimit:10;fill-rule:evenodd"/></g><g id="g1293"><path id="path17912" d="M208.51,357.22c-5.77-16.46,12.94-16.85,17.1-13.51l87.42.42c5.05,1.14,8.06,1.1,11.82,0,7.08-1.1,17.48-6.9,20.27,1.27-.2,7.87.75,14.59,1.27,21.74.15,3.44-.84,7.88-3.17,8.24l-114.44.84c-14.68,2.27-22.06-4.89-20.27-19Z" style="fill:none;stroke:#fff;stroke-width:0.7960148513929823px;fill-rule:evenodd"/><path id="path1164" d="M338.8,344.28c-8.39.94-16.76,5.6-25.38,3.21-29.29-.69-58.64-.06-87.91-.8-4.32-1.5-9.93-2.81-13.49,1-3.16,3.48.16,7.92-.42,12-1.1,5.75,2.1,12.61,8.36,13.5,7.73.6,15.44-.74,23.21-.23,33-.28,66-.39,99.06-.81,2.38-5.6-.34-11.64-.1-17.47-.28-3.24.38-6.7-.88-9.69A3.66,3.66,0,0,0,338.8,344.28Z" style="fill:none;stroke:#fff;stroke-miterlimit:10;fill-rule:evenodd"/><path id="path1248" d="M337.69,348.79c-8.79,1.94-17.88,5-26.95,2.89-28.88-.73-57.81.26-86.66-1-2.76-.9-6.89-2.53-9,.32.14,4.33,1.33,8.66.66,13,.91,4.51,6.11,5.93,10.06,5,36.94-.82,73.93-.41,110.84-1.06.93.07,2.83.69,2.22-1C338.81,360.94,337.27,354.67,337.69,348.79Z" style="fill:none;stroke:#fff;stroke-miterlimit:10;fill-rule:evenodd"/></g></g><g id="g1330"><g id="g24841"><path id="text24739" d="M137.9,219.55l.46,7.21-.91,0c-.27-.8-.71-.94-1.85-.91l-7.25.47a6.27,6.27,0,0,1-3.12-.38,4.11,4.11,0,0,1-1.69-1.92,8.41,8.41,0,0,1-.77-3.46,7.56,7.56,0,0,1,.84-4.11,4.08,4.08,0,0,1,2.94-1.68,1.44,1.44,0,0,1,1.26.55,2.41,2.41,0,0,1,.53,1.5,2.6,2.6,0,0,1-.37,1.53,1.3,1.3,0,0,1-1,.67,1.34,1.34,0,0,1-.54-.06,1,1,0,0,1-.57-.43,1,1,0,0,0-1.46-.36c-.72.47-.75,1.06-.73,1.88a1.92,1.92,0,0,0,.27,1,1.27,1.27,0,0,0,.77.53,13,13,0,0,0,2.83,0l7.92-.5c1.34,0,1.48-.44,1.62-1.5Z" style="fill:none;stroke:#fff;stroke-miterlimit:10"/><path id="text24743" d="M140.71,232l1.76,6.26-.4.17a2,2,0,0,0-.46-1,1,1,0,0,0-.62-.32,5.15,5.15,0,0,0-1.59.32l-7.13,2.13c-1.31.39-1.25.43-1.61.76a2.64,2.64,0,0,0-.77,1.32,3.52,3.52,0,0,0,.07,1.89,4,4,0,0,0,1.11,1.92,3.3,3.3,0,0,0,.91.59c.76.62,7.12-1.58,10.67-2.37a1.35,1.35,0,0,0,.44-.7,3.4,3.4,0,0,0-.15-1.48l.4-.12,1.3,4.67-.43.05c-.46-1-1.42-1.11-2.63-.86l-5.53,1.65a14.52,14.52,0,0,1-3.81.76,4.27,4.27,0,0,1-2.57-1.08,6.46,6.46,0,0,1-2-3.41,7.75,7.75,0,0,1-.34-3.17,4.78,4.78,0,0,1,1.19-2.58,6.34,6.34,0,0,1,2.72-1.46l7.14-2.12c1.36-.33,1.88-.78,1.81-1.81Z" style="fill:none;stroke:#fff;stroke-miterlimit:10"/><path id="text24757" d="M151.58,260.79l-4.33,2.51-.24-.5a5.12,5.12,0,0,0,1.81-3.16,5.58,5.58,0,0,0-.46-3.52,3.43,3.43,0,0,0-1.49-1.68,1.63,1.63,0,0,0-1.57-.06,1.52,1.52,0,0,0-.65.68,4.43,4.43,0,0,0-.35,1.61,30.9,30.9,0,0,0,.15,3.25,14.07,14.07,0,0,1-.23,5.05,3.73,3.73,0,0,1-5.46,2.18,7.09,7.09,0,0,1-3.19-3.44,8.75,8.75,0,0,1-.59-1.53,15.44,15.44,0,0,1-.38-2,3.59,3.59,0,0,0-.27-1.06,1.63,1.63,0,0,0-.52-.57,1.59,1.59,0,0,0-.88-.24l-.22-.45,5-2.69.22.44a6.57,6.57,0,0,0-2.2,3.79,6.35,6.35,0,0,0,.51,3.88,3.79,3.79,0,0,0,1.66,1.84,1.86,1.86,0,0,0,1.77.06,1.88,1.88,0,0,0,.75-.8,3.9,3.9,0,0,0,.37-1.39,17.52,17.52,0,0,0-.07-2.78,25,25,0,0,1-.08-4,6.19,6.19,0,0,1,.65-2.26,3.53,3.53,0,0,1,4.82-1.45,6.11,6.11,0,0,1,2.89,3,8,8,0,0,1,.61,1.64,10.31,10.31,0,0,1,.25,1.62,4.36,4.36,0,0,0,.25,1.32.73.73,0,0,0,.4.41,1.69,1.69,0,0,0,.91-.07Z" style="fill:none;stroke:#fff;stroke-miterlimit:10"/><path id="text24761" d="M161.23,277.75,158,280.11l-.23-.33A6.46,6.46,0,0,0,159,278a3.28,3.28,0,0,0,.12-1.54,3.89,3.89,0,0,0-.66-1.34l-.62-.93-9.18,6.7a4.89,4.89,0,0,0-1.07.94,1.28,1.28,0,0,0-.12.71,2,2,0,0,0,.39,1l.28.42-.33.23-4.36-6.51.33-.24.27.41a2.05,2.05,0,0,0,.77.74,1,1,0,0,0,.67.07,4.4,4.4,0,0,0,1.18-.71l9.18-6.7-.61-.9a3,3,0,0,0-1.73-1.45,3.92,3.92,0,0,0-2.7.47l-.23-.35,3.22-2.35Z" style="fill:none;stroke:#fff;stroke-miterlimit:10"/><path id="text24765" d="M160.25,298.79l-.31.26-7.18-7.72.3-.25.46.49a3.81,3.81,0,0,0,1.14.88,1.23,1.23,0,0,0,.8.11,3.65,3.65,0,0,0,1.15-.76l7.36-6.2a3.47,3.47,0,0,0,1-1,1.22,1.22,0,0,0-.07-.8,3.51,3.51,0,0,0-.76-1.12l-.45-.49.3-.25,7.19,7.71-.31.26-.45-.49a3.7,3.7,0,0,0-1.14-.89,1.31,1.31,0,0,0-.81-.11,3.28,3.28,0,0,0-1.15.75l-7.37,6.21a3.16,3.16,0,0,0-.95,1,1.23,1.23,0,0,0,.08.8,3.35,3.35,0,0,0,.75,1.12Z" style="fill:none;stroke:#fff;stroke-miterlimit:10"/><path id="text24769" d="M184.21,300.47l-3,4.52-.37-.25a5.75,5.75,0,0,0,.24-3.76,4.88,4.88,0,0,0-2-2.7,4.6,4.6,0,0,0-2.7-.79,4.85,4.85,0,0,0-2.71.84,10,10,0,0,0-2.76,2.82,12.91,12.91,0,0,0-1.68,3.48,5.08,5.08,0,0,0-.07,3.1,4.56,4.56,0,0,0,1.94,2.36,5.55,5.55,0,0,0,2.6,1,9.1,9.1,0,0,0,3.39-.41l-.75,1.13a8.7,8.7,0,0,1-3.38.13,8.51,8.51,0,0,1-3.11-1.34,9.57,9.57,0,0,1-3.13-3.32,7.09,7.09,0,0,1-.88-4.07,8,8,0,0,1,1.35-3.92,8.49,8.49,0,0,1,7.68-3.72A8.5,8.5,0,0,1,179,297a9.68,9.68,0,0,1,2.49,2.53,5.23,5.23,0,0,0,.89,1.1.86.86,0,0,0,.68.13,1.41,1.41,0,0,0,.77-.52Z" style="fill:none;stroke:#fff;stroke-miterlimit:10"/><path id="text24773" d="M192.41,311.18l-4,4.66.27.24a3.08,3.08,0,0,0,2.46.93,5,5,0,0,0,2.49-1.38l.38.33-5.19,6-.38-.33a5.22,5.22,0,0,0,.88-2,2.59,2.59,0,0,0-.17-1.62,5,5,0,0,0-1.29-1.49L185,319.7a5.1,5.1,0,0,0-.91,1.24,1,1,0,0,0,.06.65,2.51,2.51,0,0,0,.72.86l.81.71a7.41,7.41,0,0,0,3.69,1.89,5.49,5.49,0,0,0,3.6-.84l.37.32-3.76,3.11L177.91,317.5l.27-.31.45.38a2.87,2.87,0,0,0,1.1.65,1.09,1.09,0,0,0,.75-.06,3.85,3.85,0,0,0,1-1l6.52-7.53a6.89,6.89,0,0,0,.78-1,1.1,1.1,0,0,0,0-.78,2.59,2.59,0,0,0-.83-1.14l-.45-.39.27-.31,11.34,9.82-2.93,3.39-.38-.33a5,5,0,0,0,.73-2.49,4.24,4.24,0,0,0-.8-2.08,12.05,12.05,0,0,0-2-2Z" style="fill:none;stroke:#fff;stroke-miterlimit:10"/></g><g id="g24832"><path id="path24785" d="M362.58,313.54l2.6,3-.31.24a6.36,6.36,0,0,0-1.91-1,3.13,3.13,0,0,0-1.55,0,3.83,3.83,0,0,0-1.28.76l-.87.69,7.42,8.61a4.58,4.58,0,0,0,1,1,1.2,1.2,0,0,0,.72.06,2.11,2.11,0,0,0,.93-.46l.39-.31.26.3-6.14,4.88-.26-.31.39-.31a2,2,0,0,0,.67-.82,1,1,0,0,0,0-.68,4.49,4.49,0,0,0-.8-1.11l-7.42-8.6-.85.67a3.08,3.08,0,0,0-1.31,1.84,4,4,0,0,0,.69,2.66l-.33.26-2.61-3Z" style="fill:none;stroke:#fff;stroke-miterlimit:10"/><path id="path24787" d="M417,255.61l-2.17,5.21L416,262a3.49,3.49,0,0,0,1.06.8,1.07,1.07,0,0,0,1.12-.12,4.7,4.7,0,0,0,.86-1.34l.4.17L417,267.43l-.41-.17c0-.61.22-.86-.11-1.58a8.42,8.42,0,0,0-1.7-2.18l-8.37-9.13,1-2.38,12.6-.14a7.77,7.77,0,0,0,2.69-.35,1.77,1.77,0,0,0,.82-.88l.41.17-3,7.13-.4-.16.12-.3a2.32,2.32,0,0,0,.26-1.3.62.62,0,0,0-.4-.45,1.18,1.18,0,0,0-.43-.1,8.46,8.46,0,0,0-.95,0Zm-1,0-6,.08,4.13,4.38Z" style="fill:none;stroke:#fff;stroke-miterlimit:10"/><path id="path24789" d="M396.73,293.36l-3.63,4.32.76,1.52a3.58,3.58,0,0,0,.77,1.08,1.07,1.07,0,0,0,1.11.22,4.48,4.48,0,0,0,1.22-1l.34.28-4.11,4.88-.33-.28c.16-.6.47-.76.37-1.54a8.6,8.6,0,0,0-1-2.6L387,289l1.66-2,12.06,3.66a8.25,8.25,0,0,0,2.67.47,1.91,1.91,0,0,0,1-.6l.33.28-5,5.92-.33-.28.2-.24a2.45,2.45,0,0,0,.64-1.17.61.61,0,0,0-.24-.55,1.6,1.6,0,0,0-.38-.23c-.07,0-.37-.13-.91-.29Zm-.92-.25-5.74-1.72,2.63,5.42Z" style="fill:none;stroke:#fff;stroke-miterlimit:10"/><path id="path24791" d="M411.86,242.48l-.38-.14,3.09-10.08.38.14-.2.64a3.74,3.74,0,0,0-.2,1.43,1.2,1.2,0,0,0,.31.74,3.4,3.4,0,0,0,1.23.62l9.06,3.28a3.57,3.57,0,0,0,1.36.32,1.23,1.23,0,0,0,.66-.46,3.38,3.38,0,0,0,.59-1.22l.2-.64.37.14-3.09,10.08-.37-.14.19-.64a3.74,3.74,0,0,0,.2-1.43,1.36,1.36,0,0,0-.3-.76,3.59,3.59,0,0,0-1.24-.62l-9.05-3.28a3.49,3.49,0,0,0-1.37-.31,1.32,1.32,0,0,0-.66.47,3.74,3.74,0,0,0-.59,1.22Z" style="fill:none;stroke:#fff;stroke-miterlimit:10"/><path id="text24795" d="M377.6,310.53l2.82,3.23a4.66,4.66,0,0,0,1.15,1.07,1,1,0,0,0,.74,0,3.6,3.6,0,0,0,1.21-.8l.27.32-5.89,5.16-.27-.31a3.48,3.48,0,0,0,.95-1.1,1.2,1.2,0,0,0,.06-.74,4.94,4.94,0,0,0-.91-1.27l-6.55-7.46a5,5,0,0,0-1.15-1.08,1.15,1.15,0,0,0-.74,0,3.6,3.6,0,0,0-1.21.8l-.27-.31,5.34-4.69a15.71,15.71,0,0,1,3.31-2.39,4,4,0,0,1,2.51-.32,3.83,3.83,0,0,1,2.21,1.28,3.58,3.58,0,0,1,.93,2.91,5.07,5.07,0,0,1-.94,2.22l6.18,1.47a7.54,7.54,0,0,0,1.6.27,2,2,0,0,0,1.06-.42l.27.31-3.62,3.18-8.31-2Zm-5-5.64,4.42,5,.48-.42a7.24,7.24,0,0,0,1.58-1.77,2.34,2.34,0,0,0,.23-1.59,3.73,3.73,0,0,0-1-1.76,3.55,3.55,0,0,0-2.31-1.41,3.65,3.65,0,0,0-2.54,1.11Z" style="fill:none;stroke:#fff;stroke-miterlimit:10"/><path id="text24799" d="M403.27,264.51l.38.23a2.7,2.7,0,0,0,0,1.86,15.42,15.42,0,0,0,1.68,2.74l7.08,9.86-.77,1.54L399,279.12a16.68,16.68,0,0,0-3.07-.23,1.87,1.87,0,0,0-1.11.85l-.39-.23,4-6.76.39.23-.14.23a2.78,2.78,0,0,0-.51,1.38.6.6,0,0,0,.32.51,2.11,2.11,0,0,0,.49.18c.2,0,.77.13,1.7.25l8.8,1.14-4.6-6.48c-.56-.78-.94-1.29-1.15-1.52a3,3,0,0,0-.59-.5,1.1,1.1,0,0,0-.65-.16,1.26,1.26,0,0,0-.66.27,3.83,3.83,0,0,0-.87,1.09l-.39-.23Z" style="fill:none;stroke:#fff;stroke-miterlimit:10"/><path id="text24803" d="M428.51,217.22l4.81,1.83-3.11,13-.38-.1.11-.49a2.22,2.22,0,0,0,0-1.08,1,1,0,0,0-.39-.56,4.37,4.37,0,0,0-1.28-.46L419,227a4.56,4.56,0,0,0-1.38-.23,1.05,1.05,0,0,0-.59.36,2,2,0,0,0-.43.92l-.12.49-.38-.1L418,220.6l.38.1-.15.64a2.22,2.22,0,0,0,0,1.08,1,1,0,0,0,.39.58,4.47,4.47,0,0,0,1.28.45l9,2.33a4.62,4.62,0,0,0,1.4.23.88.88,0,0,0,.57-.4,5.46,5.46,0,0,0,.4-1.28l.29-1.22a4.53,4.53,0,0,0,.08-2.05,3.79,3.79,0,0,0-.93-1.67,11,11,0,0,0-2.25-1.73Z" style="fill:none;stroke:#fff;stroke-miterlimit:10"/></g><g id="g24850"><path id="text24711" d="M236.72,363.4c.19,1.61.15,1.65,1.8,1.79v.88h-7.66v-1c1.8.06,1.79-.1,1.92-1.67V354a3.94,3.94,0,0,0-.17-1.49c-.39-.35-.91-.26-1.43-.26l0-.81h6.69q3.68,0,5.27,1.12a3.3,3.3,0,0,1,.57,5.22,5.54,5.54,0,0,1-2.84,1.37,22.87,22.87,0,0,1-4.13.26Zm0-11.17v6.22a6.25,6.25,0,0,0,1.88-.07,2.63,2.63,0,0,0,1.11-.62,3.12,3.12,0,0,0,.83-2.41,3,3,0,0,0-.83-2.37,3.59,3.59,0,0,0-2.48-.75Z" style="fill:none;stroke:#fff;stroke-miterlimit:10"/><path id="text24723" d="M263.81,361.33h-5.64l-.67,1.56a3.39,3.39,0,0,0-.33,1.28,1.06,1.06,0,0,0,.54,1,4.68,4.68,0,0,0,1.57.28v.44H252.9v-.44c.56-.26.89-.13,1.42-.71a8.35,8.35,0,0,0,1.36-2.41l5.22-11.23h2.58l5,11.58A7.85,7.85,0,0,0,269.8,365a1.85,1.85,0,0,0,1.13.42v.44H263.2v-.44h.32a2.38,2.38,0,0,0,1.31-.26.61.61,0,0,0,.25-.54,1.29,1.29,0,0,0-.07-.43,7.58,7.58,0,0,0-.35-.89Zm-.4-.87L261,355l-2.45,5.5Z" style="fill:none;stroke:#fff;stroke-miterlimit:10"/><path id="text24731" d="M307.27,357.4l3.9,5.79a9.48,9.48,0,0,0,1.48,1.88,2,2,0,0,0,1.05.39v.42h-7.4v-.42a2.25,2.25,0,0,0,1.14-.27.59.59,0,0,0,.26-.49.86.86,0,0,0-.08-.36,12.73,12.73,0,0,0-.79-1.25l-1.95-2.9-3.62,4.2c-.17.27-.07.51.27.71a2.65,2.65,0,0,0,.79.3,4.9,4.9,0,0,0,1,.06v.42h-5.84v-.42a3.62,3.62,0,0,0,1.57-.53,12.23,12.23,0,0,0,2.09-2.15l3-3.67-3.87-5.68q-.94-1.4-1.08-1.56a2,2,0,0,0-.6-.52,2.3,2.3,0,0,0-.8-.24v-.41h7.53v.41h-.38a1.5,1.5,0,0,0-.91.21.64.64,0,0,0-.25.52,1,1,0,0,0,.08.43l.77,1.16,1.88,2.87,1.6-2a4.65,4.65,0,0,0,1.23-2.12,1,1,0,0,0-.17-.56,1.12,1.12,0,0,0-.5-.4,2.55,2.55,0,0,0-1-.15v-.41h5.59v.41a2,2,0,0,0-1.33.38Z" style="fill:none;stroke:#fff;stroke-miterlimit:10"/><path id="path24793" d="M288.38,365.57v.4l-10.55.06,0-.4h.67a3.73,3.73,0,0,0,1.42-.23,1.24,1.24,0,0,0,.62-.53,3.24,3.24,0,0,0,.22-1.36l.43-9.61a3.37,3.37,0,0,0-.11-1.41,1.26,1.26,0,0,0-.64-.48,3.27,3.27,0,0,0-1.33-.2h-.67l0-.4,10.54-.06,0,.4h-.67a3.56,3.56,0,0,0-1.42.24,1.27,1.27,0,0,0-.63.52,3.36,3.36,0,0,0-.23,1.36l-.42,9.62a3.34,3.34,0,0,0,.11,1.4,1.28,1.28,0,0,0,.65.48,3.42,3.42,0,0,0,1.33.21Z" style="fill:none;stroke:#fff;stroke-miterlimit:10"/></g></g></g></g><g id="g2743"><g id="g2636"><g id="g2529"><g id="g1904"><path id="path2161" d="M313.49,190.55a58.27,58.27,0,0,1,13.93-12c9.49-5.43,16.41-2.51,13.09,17.52a30.49,30.49,0,0,1-9.08,13.09l.43,1.27-3.38,3.17c-3.19,3.55-.82,6.22.63,8.87,5.76,12-.05,19.58-5.49,25.12l-10.34,8.24a19.25,19.25,0,0,0-3,8.44c-.68,3.4-4.87,7.58-7.6,12.67-1.72,4-1.15,7.67-1.9,12.67-4.45,14.45-18.23,12.53-24.94,12.81-6.7-.21-20.48,1.71-24.93-12.74-.75-5-.18-8.66-1.9-12.66-2.73-5.09-6.92-9.27-7.6-12.67a19.29,19.29,0,0,0-3-8.45l-10.34-8.23c-5.44-5.55-11.25-13.15-5.49-25.13,1.45-2.65,3.82-5.31.63-8.87l-3.38-3.16.43-1.27a30.61,30.61,0,0,1-9.08-13.09c-3.32-20,3.6-23,13.09-17.53a58.08,58.08,0,0,1,13.93,12l-4.88-5.43c6.55-5.07,17.34-7.24,25.38-9.7,13.47-11.87,21.66-11.61,34.94.3,8.45,2.39,18.24,5.09,24.48,9.55Z" style="fill:none;stroke:#fff;stroke-miterlimit:10;fill-rule:evenodd"/><path id="path1716" d="M275.93,168.87l-.63,0c-6.55.4-11.29,5.5-16.41,8.79-7.58,2.34-15.46,3.79-22.29,7.92,2.42,2.15,4.6,4.94,4.39,8.37-5.93-1.59-16.17-8.88-19.92-4.93-3.52,3.73-.9,11.92.08,14.35.68,1.68,1.17,4.76,1.66,5.17-1.35,2.78,3.36,3.42,3.64,6.06,2.18,5.08-3.19,9.12-3.72,13.93-1.91,8.5,4.25,16.15,10.82,20.71,4.18,3,8.92,6.42,9.42,12,.46,4,2.84,7.32,5.32,10.39a21.22,21.22,0,0,1,4.27,14.49c.36,6.81,5.75,13,12.68,13.6,7.26,1.06,14.66.56,21.93,0,6.62-1.2,12.2-7.18,11.9-14.1.12-5.2,1.25-10.56,4.85-14.52,2.58-3.26,4.79-6.95,5.11-11.18,1.06-4.8,5-8,9-10.46,6.33-4.66,12.68-11.83,11.18-20.28-.49-4.65-4.8-8.28-4.35-13,.34-2.88,3.14-4.7,4.51-6.74.07-.88,1.35-3.94,1.59-6,.57-4.78,3.76-11.37-.36-14.42-6.6-4.89-13.45,3.68-19.68,4.72-.51-3.3,1.88-5.79,4-7.93-6.93-4.1-15-5.69-22.59-8.37-4.64-4-9.9-8.54-16.39-8.52Z" style="fill:none;stroke:#fff;stroke-miterlimit:10;fill-rule:evenodd"/><path id="path1724" d="M285,289.87c-2.94,0-5.55-1.64-8-2.88-4.14.3-7.71,4.48-12.11,2.67-6.44-1.86-8.15-9.52-8.67-15.35-.48-6.52-1.19-14.6-7.46-18.39-2.41-1.87-2.72-6.76.92-7.35,6.13-.82,11.92,2.74,18.05,1.28,3.19-.33,5.8-2.49,8.53-3.68,3.26,1.14,6,3.84,9.67,3.8,5.87.76,11.5-2.1,17.34-1.47,3.32,1.05,3.15,5.94.29,7.48a16.31,16.31,0,0,0-6.42,12.07c-.38,2.7-.55,5.63-1.53,10.92C293.71,285.91,290.06,290.43,285,289.87ZM309.66,197c-2.8-.78-2.22-4.63-1.58-6.79.24-1.27,1.54-2.71,1.5-3.67-7.77-3.66-17.39-4-23.75-10.37-3-2.28-6.5-4.3-10.38-4.11-8.06.86-12.75,9.39-20.9,10.18-4.19,1.27-9.16,2.31-12.69,4.36a13.1,13.1,0,0,1,1.85,11.18c-7.65-.16-19.05-12.4-21.32-6.43-1.94,5.11,2.23,11.12,4.61,16.53-2.39,1.34.34,2.2,1.28,3.21,3.75,4.71,1,11.05-1.58,15.62-3.38,6.81,1.44,14.5,6.88,18.64,6,3.85,12.51,9.19,12.83,16.91,2.38,6.63,9.07,11.46,9.13,19,.21,5.07.4,11.46,5.81,13.87,6.73,3.23,14.47,1.67,21.66,1.79,5.63,0,11.8-3.18,12.67-9.2.37-2.06.7-4,2.34-10.63s7.24-10.8,7.92-17.47c.77-4.88,4.18-8.59,8.1-11.3,5.76-4.1,12.64-9.43,12.1-17.38.09-5.34-5.15-9.05-4.42-14.5-.05-3.46,3.75-5.35,4.46-8.43,1.62-7,4.31-13.6,1.64-15.67-4.23-3.27-11,4.66-18.16,4.68Z" style="fill:none;stroke:#fff;stroke-miterlimit:10;fill-rule:evenodd"/><path id="path1738" d="M275.84,176.31c-7.61,1.65-12.41,9.52-20.42,10.12-2.55.94-5.33,1.15-7.78,2.35a18.5,18.5,0,0,1-.85,13.13c-8.67,1.53-12.83-.81-16.49-4.38s-3.55-3.11-5.38-4.07c-1.27,1.56,0,8.09,6,12.29.85,1.6.55,3.46,2,4.77,3.18,6.11.48,13.17-2.66,18.68-1.72,6.16,3.56,11.54,8.42,14.46a50.9,50.9,0,0,1,5.86,5c1.74-4.22,6.85-5.13,10.87-4.29,5.76.73,12.63,3.36,17.64-.91a8.23,8.23,0,0,1,10.11,1c7.84,4.34,16.78-3.18,24.61,1.09,1,.8,1.73,1.6,2.68.17,4.66-3.74,11.51-7.5,11.47-14.29-.85-5.88-6.3-11.12-4.15-17.37,2.21-9.77,10.11-13.59,7-17.87-2.9-4-5.58,4.65-14.31,5.08-4.66.13-8-4.73-7.06-9.1-.22-1.44,1.85-3.82-.85-3.63-7.94-2.17-15.92-5.2-22.05-10.85a9.21,9.21,0,0,0-4.61-1.37Zm25.69,26.37c4.06.09,9.84,0,11.38,4.75.78,4.38-4,6.22-7.13,7.84-4.18,3.45-9.28,8.11-15.19,6.29-6-1-9.66-9.53-4.87-14C289.57,203,296.05,202.81,301.53,202.68Zm-51,.06c6.35-.16,14.36,1.15,17.2,7.66,2.69,6.33-4.6,12.79-10.77,11.51-6.4-1-10-7.37-16-9.23-3.21-2.17-2.75-7.93,1.3-8.85C244.89,202.71,247.79,203,250.54,202.74Zm26.65,88.87A29.28,29.28,0,0,0,274,293a46.59,46.59,0,0,0,5.92-.31A16.7,16.7,0,0,0,277.19,291.61Z" style="fill:none;stroke:#fff;stroke-miterlimit:10;fill-rule:evenodd"/><path id="path1869" d="M275.63,185.61c-5.45,3-10.77,7.43-16.73,9.13,7.24,1.37,14.32,6,17,13.16,2.37-7.62,10-12.3,17.62-13.12C287.13,192.69,281.5,188.59,275.63,185.61Zm.21,32.92c-3.6,10-16.88,15.61-26.19,9.81-2.79-1.25-5.31-3.79-7.73-5-.92,3.18-3.23,6.23-2.73,9.63,1.45,1.72,3.6,4.16,5.81,4.15,6.77-3,14.25-.37,21.18.07,5.19-2.13,11.27-5.48,16.83-2.45,3.46,1.67,7.4,3.54,11.26,1.87a36.49,36.49,0,0,1,14.31-.26c2.32-1.38,6-3.88,3.66-6.91-.89-2.07-1.7-4.17-2.39-6.31-5.58,4.49-12.57,8.6-20,7a18,18,0,0,1-13.95-11.74Z" style="fill:none;stroke:#fff;stroke-miterlimit:10;fill-rule:evenodd"/></g><g id="g2427"><g id="g2332"><g id="g2241"><path id="path11931" d="M270.82,209.58c2,0,3.87,5.85.29,6.54C270.68,216,270.59,210.16,270.82,209.58Z" style="fill:none;stroke:#fff;stroke-miterlimit:10;fill-rule:evenodd"/><path id="path11907" d="M262,244.5c-.56.51-.49,1.07,0,1.66a1.25,1.25,0,0,0,1.85.19,1,1,0,0,0,.1-1.56A1.39,1.39,0,0,0,262,244.5Z" style="fill:none;stroke:#fff;stroke-miterlimit:10;fill-rule:evenodd"/><path id="path11909" d="M259.62,234.42a1.08,1.08,0,0,0,0,1.66,1.25,1.25,0,0,0,1.85.2,1,1,0,0,0,.1-1.56A1.39,1.39,0,0,0,259.62,234.42Z" style="fill:none;stroke:#fff;stroke-miterlimit:10;fill-rule:evenodd"/><path id="path11911" d="M265,238.1c.75-.8,3,2.33,2.27,2.78C266.47,240.76,265.56,240.18,265,238.1Z" style="fill:none;stroke:#fff;stroke-miterlimit:10;fill-rule:evenodd"/><path id="path11913" d="M259.07,229.94c.75-.8,3.23,1.29,2.49,1.73C260.79,231.56,259.65,232,259.07,229.94Z" style="fill:none;stroke:#fff;stroke-miterlimit:10;fill-rule:evenodd"/><path id="path11915" d="M264.68,240.74c-.31-.88-1.83-1.57-2.38-.77s.18,2.85,1.05,2.93,1.65-1.27,1.33-2.16Z" style="fill:none;stroke:#fff;stroke-miterlimit:10;fill-rule:evenodd"/><path id="path11917" d="M268,244c-.25-.73-1.49-1.29-1.94-.64s.15,2.33.86,2.4S268.22,244.74,268,244Z" style="fill:none;stroke:#fff;stroke-miterlimit:10;fill-rule:evenodd"/><path id="path11919" d="M257.17,231.85c-.21-.6-1.23-1.07-1.61-.53s.13,1.92.71,2,1.11-.86.9-1.45Z" style="fill:none;stroke:#fff;stroke-miterlimit:10;fill-rule:evenodd"/><path id="path11921" d="M256.44,235.41c-.53.68-.33,2.18.55,2.22s2.11-1.52,1.76-2.23-1.78-.66-2.31,0Z" style="fill:none;stroke:#fff;stroke-miterlimit:10;fill-rule:evenodd"/><path id="path11923" d="M259.16,239c.95-.56,2.73,2.15,1.9,2.37C260.36,241.07,259.13,241.18,259.16,239Z" style="fill:none;stroke:#fff;stroke-miterlimit:10;fill-rule:evenodd"/><path id="path11925" d="M262.76,225.21c1.43-1.63,7.4,2.79,6.91,4.35C268.75,230.5,262.25,226.82,262.76,225.21Z" style="fill:none;stroke:#fff;stroke-miterlimit:10;fill-rule:evenodd"/><path id="path11927" d="M266.52,220.77c1.81-1.2,5.37,4.3,5.55,6C270.08,226.06,265.61,222.19,266.52,220.77Z" style="fill:none;stroke:#fff;stroke-miterlimit:10;fill-rule:evenodd"/><path id="path11929" d="M272.31,218.72c1.43.13,1.48,4.38.3,5C271.3,223.53,270.73,219.31,272.31,218.72Z" style="fill:none;stroke:#fff;stroke-miterlimit:10;fill-rule:evenodd"/><path id="path3154" d="M248.63,190.28c-1.31-.41-3.88,2.39-3.43,3.73s4.36,2.58,5.22,1.64-.48-5-1.79-5.37Z" style="fill:none;stroke:#fff;stroke-miterlimit:10;fill-rule:evenodd"/><path id="path4125" d="M241.13,198.94c-1.31-.41-3.88,1.5-3.43,2.84s4.36,2.58,5.22,1.64-.48-4.07-1.79-4.48Z" style="fill:none;stroke:#fff;stroke-miterlimit:10;fill-rule:evenodd"/><path id="path4127" d="M267,182.08c-1.31-.41-5.23,1.79-4.78,3.14s4.82,2,5.67,1S268.26,182.49,267,182.08Z" style="fill:none;stroke:#fff;stroke-miterlimit:10;fill-rule:evenodd"/><path id="path4129" d="M249.38,182.07a3,3,0,0,0-.45,3.58c.74.9,2.57.78,3.43,0a2.34,2.34,0,0,0,0-3.14,2.12,2.12,0,0,0-3-.44Z" style="fill:none;stroke:#fff;stroke-miterlimit:10;fill-rule:evenodd"/><path id="path5100" d="M241.44,184.21c-.86.78-.74,1.64,0,2.54a1.94,1.94,0,0,0,2.84.3,1.49,1.49,0,0,0,.15-2.39,2.13,2.13,0,0,0-3-.45Z" style="fill:none;stroke:#fff;stroke-miterlimit:10;fill-rule:evenodd"/><path id="path5102" d="M263.86,202.67c-1.3,1.18-9-7.73-7.17-8.21C257.29,194.3,264.81,201.81,263.86,202.67Z" style="fill:none;stroke:#fff;stroke-miterlimit:10;fill-rule:evenodd"/><path id="path5104" d="M269.92,200.75c-1.09,1.37-8.89-7.57-7.16-8.21S270.84,199.61,269.92,200.75Z" style="fill:none;stroke:#fff;stroke-miterlimit:10;fill-rule:evenodd"/><path id="path6075" d="M263.38,174.32c-1.31-.41-3.44.74-3,2.09s3.47,2.27,4.33,1.34,0-3-1.34-3.43Z" style="fill:none;stroke:#fff;stroke-miterlimit:10;fill-rule:evenodd"/><path id="path6077" d="M238.78,212.08c.69-.4,7.16,6.81,5.67,7.31C242,219.38,238.63,216.77,238.78,212.08Z" style="fill:none;stroke:#fff;stroke-miterlimit:10;fill-rule:evenodd"/><path id="path6079" d="M233.59,220.07c1.8-1.34,5.22,5.8,3.58,6.42C235.66,226,234,224.47,233.59,220.07Z" style="fill:none;stroke:#fff;stroke-miterlimit:10;fill-rule:evenodd"/><path id="path6081" d="M248.93,218.2c2.58,1.73,6.93,6.21,5.67,8.21C253,226.92,249.54,221.19,248.93,218.2Z" style="fill:none;stroke:#fff;stroke-miterlimit:10;fill-rule:evenodd"/><path id="path8021" d="M247,234.76c-1.93,2.63,5.91,8.74,8.35,6.12C251.86,240,249.48,237.31,247,234.76Z" style="fill:none;stroke:#fff;stroke-miterlimit:10;fill-rule:evenodd"/><path id="path8992" d="M241.56,238.77c.15-.15,8.1,4.88,7.28,5.7-1.05,1.05-7.54-5.45-7.28-5.7Z" style="fill:none;stroke:#fff;stroke-miterlimit:10;fill-rule:evenodd"/><path id="path8994" d="M244.28,259.55c.59-1.67,4.33,7.46,4,8.36-.57,1.37-4.07-8-4-8.36Z" style="fill:none;stroke:#fff;stroke-miterlimit:10;fill-rule:evenodd"/><path id="path9965" d="M228.57,228.42c-2.67,7.21,1,15.73,5.81,16.79.7-1.05-3.33-2.58-4.49-7.85C229,233.11,229.23,228.16,228.57,228.42Z" style="fill:none;stroke:#fff;stroke-miterlimit:10;fill-rule:evenodd"/><path id="path10936" d="M251.69,270.44c.45-.67,3.12,5,3.7,7.6.48,2.22-2.43,2.84-2.54,2C252.53,277.61,251.35,271,251.69,270.44Z" style="fill:none;stroke:#fff;stroke-miterlimit:10;fill-rule:evenodd"/><path id="path12966" d="M271.77,233.5c3.09,3.54,5.74,1.82,7.17-.07,4.37-4.55,8.52.16,5.52,3.28l-4.55,4.55c-1.67,1.76-6.7,2-8.14.23l-5.15-5.23c-2.53-3.36,1.15-6.62,5.15-2.76Z" style="fill:none;stroke:#fff;stroke-miterlimit:10;fill-rule:evenodd"/><path id="path17836" d="M303.14,190.2c1.31-.41,3.88,2.39,3.43,3.74s-4.36,2.57-5.22,1.64.48-5,1.79-5.38Z" style="fill:none;stroke:#fff;stroke-miterlimit:10;fill-rule:evenodd"/><path id="path17838" d="M310.64,198.87c1.31-.41,3.88,1.49,3.43,2.84s-4.36,2.57-5.22,1.64.48-4.07,1.79-4.48Z" style="fill:none;stroke:#fff;stroke-miterlimit:10;fill-rule:evenodd"/><path id="path17840" d="M284.81,182c1.31-.41,5.23,1.79,4.78,3.13s-4.82,2-5.67,1.05S283.51,182.42,284.81,182Z" style="fill:none;stroke:#fff;stroke-miterlimit:10;fill-rule:evenodd"/><path id="path17842" d="M302.39,182a3,3,0,0,1,.45,3.59,2.66,2.66,0,0,1-3.43,0,2.34,2.34,0,0,1,0-3.14,2.12,2.12,0,0,1,3-.45Z" style="fill:none;stroke:#fff;stroke-miterlimit:10;fill-rule:evenodd"/><path id="path17844" d="M310.33,184.14c.86.78.74,1.64,0,2.53a1.92,1.92,0,0,1-2.84.3,1.49,1.49,0,0,1-.15-2.39,2.13,2.13,0,0,1,3-.44Z" style="fill:none;stroke:#fff;stroke-miterlimit:10;fill-rule:evenodd"/><path id="path17846" d="M287.91,202.6c1.3,1.17,8.95-7.74,7.17-8.22C294.48,194.22,287,201.73,287.91,202.6Z" style="fill:none;stroke:#fff;stroke-miterlimit:10;fill-rule:evenodd"/><path id="path17848" d="M281.85,200.68c1.09,1.36,8.89-7.58,7.16-8.21S280.93,199.53,281.85,200.68Z" style="fill:none;stroke:#fff;stroke-miterlimit:10;fill-rule:evenodd"/><path id="path17850" d="M288.39,174.24c1.31-.41,3.44.75,3,2.09s-3.47,2.28-4.33,1.35,0-3,1.34-3.44Z" style="fill:none;stroke:#fff;stroke-miterlimit:10;fill-rule:evenodd"/><path id="path17852" d="M313,212c-.69-.4-7.16,6.81-5.67,7.32C309.82,219.31,313.14,216.69,313,212Z" style="fill:none;stroke:#fff;stroke-miterlimit:10;fill-rule:evenodd"/><path id="path17854" d="M318.18,220c-1.8-1.35-5.22,5.79-3.58,6.42C316.11,225.91,317.74,224.4,318.18,220Z" style="fill:none;stroke:#fff;stroke-miterlimit:10;fill-rule:evenodd"/><path id="path17856" d="M302.84,218.12c-2.58,1.73-6.93,6.22-5.67,8.21C298.8,226.85,302.23,221.11,302.84,218.12Z" style="fill:none;stroke:#fff;stroke-miterlimit:10;fill-rule:evenodd"/><path id="path17858" d="M304.73,234.68c1.93,2.63-5.91,8.74-8.35,6.13,3.53-.92,5.91-3.57,8.35-6.13Z" style="fill:none;stroke:#fff;stroke-miterlimit:10;fill-rule:evenodd"/><path id="path17860" d="M310.21,238.69c-.15-.15-8.1,4.88-7.28,5.71C304,245.44,310.47,239,310.21,238.69Z" style="fill:none;stroke:#fff;stroke-miterlimit:10;fill-rule:evenodd"/><path id="path17862" d="M307.49,259.48c-.59-1.67-4.33,7.46-4,8.36C304.1,269.21,307.6,259.81,307.49,259.48Z" style="fill:none;stroke:#fff;stroke-miterlimit:10;fill-rule:evenodd"/><path id="path17864" d="M323.2,228.35c2.67,7.21-1,15.72-5.81,16.78-.7-1,3.33-2.57,4.49-7.85.93-4.24.66-9.19,1.32-8.93Z" style="fill:none;stroke:#fff;stroke-miterlimit:10;fill-rule:evenodd"/><path id="path17866" d="M300.08,270.37c-.45-.68-3.12,5-3.7,7.6-.48,2.22,2.43,2.84,2.54,2C299.24,277.53,300.42,270.87,300.08,270.37Z" style="fill:none;stroke:#fff;stroke-miterlimit:10;fill-rule:evenodd"/><path id="path17868" d="M289.82,244.43c.56.51.49,1.07,0,1.65a1.25,1.25,0,0,1-1.85.2,1,1,0,0,1-.1-1.56A1.38,1.38,0,0,1,289.82,244.43Z" style="fill:none;stroke:#fff;stroke-miterlimit:10;fill-rule:evenodd"/><path id="path17870" d="M292.15,234.35c.56.51.48,1.07,0,1.66a1.26,1.26,0,0,1-1.85.19,1,1,0,0,1-.1-1.56A1.39,1.39,0,0,1,292.15,234.35Z" style="fill:none;stroke:#fff;stroke-miterlimit:10;fill-rule:evenodd"/><path id="path17872" d="M286.8,238c-.75-.8-3,2.33-2.27,2.77C285.3,240.69,286.21,240.1,286.8,238Z" style="fill:none;stroke:#fff;stroke-miterlimit:10;fill-rule:evenodd"/><path id="path17874" d="M292.7,229.86c-.75-.8-3.23,1.29-2.49,1.73C291,231.48,292.12,231.94,292.7,229.86Z" style="fill:none;stroke:#fff;stroke-miterlimit:10;fill-rule:evenodd"/><path id="path17876" d="M287.09,240.67c.31-.89,1.83-1.58,2.38-.78s-.18,2.85-1.05,2.94-1.65-1.27-1.33-2.16Z" style="fill:none;stroke:#fff;stroke-miterlimit:10;fill-rule:evenodd"/><path id="path17878" d="M283.81,243.94c.25-.72,1.49-1.29,1.94-.63s-.15,2.32-.86,2.39S283.55,244.67,283.81,243.94Z" style="fill:none;stroke:#fff;stroke-miterlimit:10;fill-rule:evenodd"/><path id="path17880" d="M294.6,231.77c.21-.6,1.23-1.06,1.61-.52s-.13,1.92-.71,2-1.11-.86-.9-1.46Z" style="fill:none;stroke:#fff;stroke-miterlimit:10;fill-rule:evenodd"/><path id="path17882" d="M295.33,235.34c.53.67.33,2.17-.55,2.21s-2.11-1.52-1.76-2.23,1.78-.65,2.31,0Z" style="fill:none;stroke:#fff;stroke-miterlimit:10;fill-rule:evenodd"/><path id="path17884" d="M292.61,239c-.95-.55-2.73,2.16-1.9,2.37C291.41,241,292.64,241.11,292.61,239Z" style="fill:none;stroke:#fff;stroke-miterlimit:10;fill-rule:evenodd"/><path id="path17886" d="M289,225.14c-1.43-1.64-7.4,2.78-6.91,4.35C283,230.42,289.52,226.75,289,225.14Z" style="fill:none;stroke:#fff;stroke-miterlimit:10;fill-rule:evenodd"/><path id="path17888" d="M285.25,220.7c-1.81-1.21-5.37,4.29-5.55,6C281.69,226,286.16,222.12,285.25,220.7Z" style="fill:none;stroke:#fff;stroke-miterlimit:10;fill-rule:evenodd"/><path id="path17890" d="M279.46,218.65c-1.43.12-1.48,4.38-.3,5C280.47,223.45,281,219.23,279.46,218.65Z" style="fill:none;stroke:#fff;stroke-miterlimit:10;fill-rule:evenodd"/><path id="path17892" d="M281,209.5c-2,0-3.87,5.86-.29,6.55C281.09,215.89,281.18,210.09,281,209.5Z" style="fill:none;stroke:#fff;stroke-miterlimit:10;fill-rule:evenodd"/></g><g id="g2261"><g id="g2246"><path id="path40702" d="M242.18,210c0-1.13,13.61-2.68,19,1.27,5.88,5.81-2.47,9.41-6.23,7.81a35.05,35.05,0,0,1-5.24-3.9c-3.49-2.89-8.46-4.42-7.53-5.18Z" style="fill:none;stroke:#fff;stroke-miterlimit:10;fill-rule:evenodd"/><path id="path11993" d="M243,208.26c0-1.13,13.61-2.68,19,1.27,5.87,5.81-2.47,9.41-6.23,7.81a34.58,34.58,0,0,1-5.24-3.91C247.07,210.54,242.1,209,243,208.26Z" style="fill:none;stroke:#fff;stroke-miterlimit:10;fill-rule:evenodd"/><ellipse id="path12964" cx="257.44" cy="212.9" rx="4.06" ry="3.91" style="fill:none;stroke:#fff;stroke-miterlimit:10"/></g><g id="g2251"><path id="path41673" d="M309.34,209.76c0-1.13-13.61-2.68-19,1.27-5.88,5.81,2.47,9.41,6.23,7.81a35.05,35.05,0,0,0,5.24-3.9C305.3,212.05,310.27,210.52,309.34,209.76Z" style="fill:none;stroke:#fff;stroke-miterlimit:10;fill-rule:evenodd"/><path id="path17894" d="M308.74,208.18c0-1.13-13.61-2.67-19,1.27-5.87,5.81,2.47,9.41,6.23,7.81a35.05,35.05,0,0,0,5.24-3.9C304.7,210.47,309.67,208.94,308.74,208.18Z" style="fill:none;stroke:#fff;stroke-miterlimit:10;fill-rule:evenodd"/><ellipse id="path17896" cx="294.33" cy="212.83" rx="4.06" ry="3.91" style="fill:none;stroke:#fff;stroke-miterlimit:10"/></g></g></g><g id="g2089"><path id="path13937" d="M277.23,283.65a10.26,10.26,0,0,1,4.58,2c9.73,4.68,11.84-5.64,12.67-18.48,1.62-11.89,9.22-13.23,8.65-15.41-.44-.69-6,.46-8.76.95-10.28,1.78-13.82-.82-17.54-3.15-3.71,2.38-7.26,5-17.54,3.19-2.75-.48-8.32-1.64-8.76-.95-.57,2.18,7,3.52,8.66,15.42.82,12.84,2.94,23.15,12.66,18.47a10.29,10.29,0,0,1,5.38-2Z" style="fill:none;stroke:#fff;stroke-miterlimit:10;fill-rule:evenodd"/><g id="g2065"><g id="g2021"><path id="path14913" d="M277.83,277.09a4.55,4.55,0,0,1,2,.85c4.25,2,5.91-2.46,6.27-8.06-.14-7.09,3.18-13,2.93-13.91-.19-.3-2.73.2-3.93.42-4.48.77-5.92-.36-7.54-1.38-1.63,1-3.17,2.17-7.66,1.4-1.2-.22-4.26-.61-4.46-.31-.18.54,3.86,4.93,3.89,14.22.36,5.6,1.91,9.68,6.16,7.64a4.41,4.41,0,0,1,2.34-.87Z" style="fill:none;stroke:#fff;stroke-miterlimit:10;fill-rule:evenodd"/><path id="path1987" d="M277.52,256.3c-3,2.34-7.37,1-10.33.95,3.06,5,3,11.05,3.69,16.69.08,2.43,2.53,4.74,4.72,2.72,2.17-1.63,4.3.47,6.41.7,3.26-1.71,2.8-6.34,3.08-9.51.14-3.71,1.56-7.56,2.51-10.81C284.28,257.7,280.51,258.36,277.52,256.3Z" style="fill:none;stroke:#fff;stroke-miterlimit:10;fill-rule:evenodd"/><path id="path1993" d="M279.07,259.33c-.1,4.5-.25,9.79-.37,14.68a4.46,4.46,0,0,1,1.14.44c1.11.78,2.61.82,2.49-.94,1.05-4.58.28-9.56,2.38-13.92A11.73,11.73,0,0,1,279.07,259.33Zm-3,.11c-1.79.45-3.84.21-5.27.45,1.93,4.89,1.12,10.6,2.87,15.32a9.8,9.8,0,0,1,2.88-1.19C276.33,269.24,276.32,264.26,276.06,259.44Z" style="fill:none;stroke:#fff;stroke-miterlimit:10;fill-rule:evenodd"/></g><g id="g1985"><g id="g1968"><path id="path16861" d="M271.36,255.13c-.4-.83,1.65-1.72,2.09-.89a10.12,10.12,0,0,1,.45,3.65A17,17,0,0,1,271.36,255.13Z" style="fill:none;stroke:#fff;stroke-miterlimit:10;fill-rule:evenodd"/><path id="path17832" d="M281,254.74c.41-.83-1.65-1.73-2.09-.9a10.09,10.09,0,0,0-.44,3.66A17.09,17.09,0,0,0,281,254.74Z" style="fill:none;stroke:#fff;stroke-miterlimit:10;fill-rule:evenodd"/></g><g id="g1956"><path id="path15888" d="M289.5,256.25c.61-2.86,2.6-2.11,4.11-2.61,1.73,2-1.87,9.84-3.81,9.7Z" style="fill:none;stroke:#fff;stroke-miterlimit:10;fill-rule:evenodd"/><path id="path1906" d="M292.87,254.87c-2.92-.08-2.27,2.92-2,6.28C291.88,259.48,293.32,256.6,292.87,254.87Z" style="fill:none;stroke:#fff;stroke-miterlimit:10;fill-rule:evenodd"/></g><g id="g1946"><path id="path16859" d="M261.7,255.8c-.61-2.85-2.6-2.11-4.11-2.61-1.73,1.95,1.87,9.84,3.81,9.7Z" style="fill:none;stroke:#fff;stroke-miterlimit:10;fill-rule:evenodd"/><path id="path1908" d="M258.21,254.55a12,12,0,0,0,2.21,6.29c-.16-2.09,1.52-6.7-2.09-6.42h-.11Z" style="fill:none;stroke:#fff;stroke-miterlimit:10;fill-rule:evenodd"/></g><g id="g1964"><path id="path14915" d="M265.2,281.53c0,3.69,6.62,2.6,6.87.11.17-4-2.25-7-1.69-10.66-2.31,2.6-5,5.14-5.18,10.55Z" style="fill:none;stroke:#fff;stroke-miterlimit:10;fill-rule:evenodd"/><path id="path1910" d="M269,274.13c-1.71,2.23-3.43,5.52-2.42,8.29,1.85,1.24,5.55-.11,4.27-2.75-.33-2-1.19-3.92-1.51-5.95l-.34.41Z" style="fill:none;stroke:#fff;stroke-miterlimit:10;fill-rule:evenodd"/></g><g id="g1960"><path id="path15886" d="M288,281c0,3.69-6.61,2.61-6.86.11-.18-4,2.24-7,1.69-10.66,2.3,2.6,5,5.14,5.17,10.55Z" style="fill:none;stroke:#fff;stroke-miterlimit:10;fill-rule:evenodd"/><path id="path1912" d="M283.83,273.29c-.3,2.7-2.21,5.48-1.38,8.15,1.46,1.57,5.65,1.2,4.4-1.74A11.07,11.07,0,0,0,283.83,273.29Z" style="fill:none;stroke:#fff;stroke-miterlimit:10;fill-rule:evenodd"/></g></g></g></g></g></g><path id="path1690" d="M217.12,176.19c-5.35,0-8.25,5.53-5.86,19.93a30.44,30.44,0,0,0,4,7.55c.78-6.6-1.54-16.5,2.58-20.54,3.48-3.42,10.4,3.11,15.35,2.12a70.39,70.39,0,0,0-8.8-6.66A15.55,15.55,0,0,0,217.12,176.19Z" style="fill:none;stroke:#fff;stroke-miterlimit:10"/><path id="path1694" d="M334.65,176.11a15.47,15.47,0,0,0-7.23,2.41,68.84,68.84,0,0,0-8.82,6.68c4.94.89,11.8-5.54,15.26-2.14,4.15,4.07,1.77,14.06,2.6,20.66a30.65,30.65,0,0,0,4.05-7.68C342.9,181.64,340,176.08,334.65,176.11Z" style="fill:none;stroke:#fff;stroke-miterlimit:10"/></g><path id="path1893" d="M313.49,190.55a58.27,58.27,0,0,1,13.93-12c9.49-5.43,16.41-2.51,13.09,17.52a30.49,30.49,0,0,1-9.08,13.09l.43,1.27-3.38,3.17c-3.19,3.55-.82,6.22.63,8.87,5.76,12-.05,19.58-5.49,25.12l-10.34,8.24a19.25,19.25,0,0,0-3,8.44c-.68,3.4-4.87,7.58-7.6,12.67-1.72,4-1.15,7.67-1.9,12.67-4.45,14.45-18.23,12.53-24.94,12.81-6.7-.21-20.48,1.71-24.93-12.74-.75-5-.18-8.66-1.9-12.66-2.73-5.09-6.92-9.27-7.6-12.67a19.29,19.29,0,0,0-3-8.45l-10.34-8.23c-5.44-5.55-11.25-13.15-5.49-25.13,1.45-2.65,3.82-5.31.63-8.87l-3.38-3.16.43-1.27a30.61,30.61,0,0,1-9.08-13.09c-3.32-20,3.6-23,13.09-17.53a58.08,58.08,0,0,1,13.93,12l-4.88-5.43c6.55-5.07,17.34-7.24,25.38-9.7,13.47-11.87,21.66-11.61,34.94.3,8.45,2.39,18.24,5.09,24.48,9.55Z" style="fill:none;stroke:#fff;stroke-miterlimit:10"/></g></g><path d="M30.35,193.16l3.74-9.63a10.37,10.37,0,0,1,1.5-2.69,7.12,7.12,0,0,1,2-1.81,5.82,5.82,0,0,1,2.51-.74,6.79,6.79,0,0,1,2.86.5,5.34,5.34,0,0,1,1.57,1,6.33,6.33,0,0,1,1.21,1.47,7.36,7.36,0,0,1,.76,1.82,6.64,6.64,0,0,1,.21,2,3.71,3.71,0,0,1,.77-.59,5.07,5.07,0,0,1,1-.44,6.92,6.92,0,0,1,1.25-.23,6.49,6.49,0,0,1,1.39,0l5.45.64.78-2,2.86,1.08L58.55,188l-7.6-1a5.86,5.86,0,0,0-3.3.37,4,4,0,0,0-1.9,2.31l-1.16,3,8,3.09.9-2.32,2.58,1L53.12,202l-2.58-1,.85-2.2L33.8,192,33,194.16ZM35,189l7.17,2.78,1.72-4.44a5.36,5.36,0,0,0,.39-1.68,3.64,3.64,0,0,0-.19-1.52,3.41,3.41,0,0,0-.8-1.26,4,4,0,0,0-1.43-.9,3.67,3.67,0,0,0-3,0,5.2,5.2,0,0,0-2.23,2.93Z" style="fill:#fff;stroke:#fff;stroke-miterlimit:10"/><path d="M43.47,163.87l1.75-3.52.24.13,1.89,6.4-1.13,2.26Zm12.22,11a6.9,6.9,0,0,0,1.21.48,6.67,6.67,0,0,0,1.13.23,4.66,4.66,0,0,0,3-.65,5.75,5.75,0,0,0,2.07-2.34,9.22,9.22,0,0,0,.83-2.47,11.92,11.92,0,0,0,.15-2.86l2.38-.19a13.46,13.46,0,0,1,0,3.75,11.38,11.38,0,0,1-1.07,3.38,9,9,0,0,1-1.93,2.6,6.78,6.78,0,0,1-2.62,1.51,7.75,7.75,0,0,1-3.22.24,11.17,11.17,0,0,1-3.73-1.19,10.67,10.67,0,0,1-2.79-2,7.84,7.84,0,0,1-1.81-2.59,7.15,7.15,0,0,1-.57-3.07,8.14,8.14,0,0,1,.93-3.41,7.89,7.89,0,0,1,1.94-2.61,5.76,5.76,0,0,1,2.29-1.2,6.6,6.6,0,0,1,2.47-.14,12.16,12.16,0,0,1,2.47.58,11.18,11.18,0,0,1,1.16.46c.38.17.75.34,1.1.52Zm-3.83-7.23a5.22,5.22,0,0,0-.57,1.79,3.79,3.79,0,0,0,.17,1.59,4.06,4.06,0,0,0,.82,1.41,7.74,7.74,0,0,0,1.39,1.25l3.92-7.87a8.3,8.3,0,0,0-1.68-.49,3.66,3.66,0,0,0-1.55,0,3.3,3.3,0,0,0-1.37.72A4.87,4.87,0,0,0,51.86,167.63Z" style="fill:#fff;stroke:#fff;stroke-miterlimit:10"/><path d="M55.36,156.15l2.8-4.61,1.19.72a9.07,9.07,0,0,1,.11-2.7,7.23,7.23,0,0,1,.95-2.5,7.46,7.46,0,0,1,2.12-2.3,7,7,0,0,1,2.71-1.15,7.86,7.86,0,0,1,3.09,0A10.13,10.13,0,0,1,71.56,145a10.4,10.4,0,0,1,2.82,2.44,8.42,8.42,0,0,1,1.53,3,7.7,7.7,0,0,1,.22,3.21A8.58,8.58,0,0,1,75,156.76a9,9,0,0,1-1.43,1.83A12,12,0,0,1,72,159.88l4.61,2.8,1.38-2.26,2.37,1.43-4.18,6.89-2.37-1.44,1.2-2-16-9.73-1.22,2Zm6.89-7a5.8,5.8,0,0,0-.77,2.18,5.63,5.63,0,0,0,.12,2.28l7.72,4.7a4.87,4.87,0,0,0,1.64-.81,6.47,6.47,0,0,0,1.68-1.92,5.16,5.16,0,0,0,.7-1.93,4.74,4.74,0,0,0-.14-2.08,6,6,0,0,0-1.07-2,7.88,7.88,0,0,0-2.1-1.8,7,7,0,0,0-2.37-.94,5.28,5.28,0,0,0-2.17,0,4.71,4.71,0,0,0-1.84.82A5.15,5.15,0,0,0,62.25,149.12Z" style="fill:#fff;stroke:#fff;stroke-miterlimit:10"/><path d="M73,129.13l3.25-4.4L87.48,133l1.12-1.51,2.23,1.64-2.93,4-1.25-.92a9.49,9.49,0,0,1-.39,2.81,8.65,8.65,0,0,1-1.33,2.62,7,7,0,0,1-1.66,1.64,4.39,4.39,0,0,1-2,.76,5.17,5.17,0,0,1-2.23-.25,9.05,9.05,0,0,1-2.49-1.35l-6.42-4.74-1.36,1.85-2.23-1.65,3.25-4.4,8.36,6.17a4.19,4.19,0,0,0,2.87,1,3.32,3.32,0,0,0,2.33-1.5,7,7,0,0,0,1-1.9A8.72,8.72,0,0,0,84.8,135l-8.18-6-1.36,1.83Z" style="fill:#fff;stroke:#fff;stroke-miterlimit:10"/><path d="M74.11,113.88l3.65-4.12,7.31,6.48a9.6,9.6,0,0,1,.58-2.64,7.73,7.73,0,0,1,3.87-4.17,7,7,0,0,1,2.89-.66,7.9,7.9,0,0,1,3,.6,10.21,10.21,0,0,1,2.94,1.86,10,10,0,0,1,2.32,2.89,8.08,8.08,0,0,1,1,3.15,7.45,7.45,0,0,1-.38,3.17,8.33,8.33,0,0,1-1.74,2.92,7.77,7.77,0,0,1-1.83,1.54,6.89,6.89,0,0,1-2,.79l.78.69-2,2.28-16.7-14.78-1.62,1.84Zm14.37-.22a5.73,5.73,0,0,0-1.15,2,5.8,5.8,0,0,0-.28,2.29l6.72,5.94a4.47,4.47,0,0,0,1.72-.52,6.82,6.82,0,0,0,2-1.64A5.29,5.29,0,0,0,98.54,120a4.7,4.7,0,0,0,.25-2,5.74,5.74,0,0,0-.67-2.16,7.46,7.46,0,0,0-1.74-2.13,6.74,6.74,0,0,0-2.15-1.35,5.56,5.56,0,0,0-2.14-.39,4.89,4.89,0,0,0-2,.49A5.08,5.08,0,0,0,88.48,113.66Z" style="fill:#fff;stroke:#fff;stroke-miterlimit:10"/><path d="M89.13,97.36,93,93.49l15.7,15.83,1.81-1.79,2,2-5.72,5.66-2-2,1.74-1.73L92.82,97.6l-1.74,1.73Z" style="fill:#fff;stroke:#fff;stroke-miterlimit:10"/><path d="M100.6,89.7a1.94,1.94,0,0,1-.41-.71,2.15,2.15,0,0,1-.1-.79,2,2,0,0,1,.2-.79,2.26,2.26,0,0,1,.5-.69,2,2,0,0,1,.72-.42,2.19,2.19,0,0,1,.8-.12,2.35,2.35,0,0,1,.78.19,1.85,1.85,0,0,1,.66.47,2,2,0,0,1,.43.73,2.25,2.25,0,0,1,.12.81,2.22,2.22,0,0,1-.18.8,2.15,2.15,0,0,1-.49.67,2,2,0,0,1-.73.43,1.94,1.94,0,0,1-.82.11,2.24,2.24,0,0,1-.8-.2A2,2,0,0,1,100.6,89.7Zm2.58,5.65,4.1-3.72L116.62,102l1.9-1.72,1.86,2.06-6,5.4-1.86-2,1.79-1.63-7.48-8.26L105,97.4Z" style="fill:#fff;stroke:#fff;stroke-miterlimit:10"/><path d="M132.81,98.27l1.92-1.53L130.92,92a6.07,6.07,0,0,1-.71,2.14,6.25,6.25,0,0,1-1.6,1.85,8.69,8.69,0,0,1-2.87,1.53,7.16,7.16,0,0,1-3.08.26,8.06,8.06,0,0,1-3.07-1.12A11.08,11.08,0,0,1,116.75,94,10.11,10.11,0,0,1,115,90.92a7.74,7.74,0,0,1-.38-3.16,7.42,7.42,0,0,1,.94-3,8.92,8.92,0,0,1,2.27-2.6A8.53,8.53,0,0,1,119.74,81a6.63,6.63,0,0,1,2.05-.51l-.47-.58L123.7,78l13.42,16.82,2-1.59,1.73,2.17-6.3,5Zm-5.52-4.62a5.63,5.63,0,0,0,1.56-1.82,4.78,4.78,0,0,0,.54-1.79l-5.9-7.4a5.17,5.17,0,0,0-2,.42,8.07,8.07,0,0,0-1.85,1.1,5.16,5.16,0,0,0-1.34,1.58,4.66,4.66,0,0,0-.58,1.94,5.62,5.62,0,0,0,.28,2.15A7.35,7.35,0,0,0,119.2,92a8.4,8.4,0,0,0,2,1.89,5.76,5.76,0,0,0,2.08.86,4.53,4.53,0,0,0,2.07-.12A5.72,5.72,0,0,0,127.29,93.65Z" style="fill:#fff;stroke:#fff;stroke-miterlimit:10"/><path d="M136.51,69.11l4.55-3,7.71,11.59,1.57-1,1.53,2.31-4.11,2.74-.86-1.29a9.6,9.6,0,0,1-1.33,2.51,8.55,8.55,0,0,1-2.14,2,7,7,0,0,1-2.13,1,4.48,4.48,0,0,1-2.09,0,5.13,5.13,0,0,1-2-1,8.77,8.77,0,0,1-1.88-2.11l-4.42-6.65L129,77.43l-1.53-2.31,4.55-3,5.76,8.65a4.1,4.1,0,0,0,2.35,1.92,3.36,3.36,0,0,0,2.7-.61,7,7,0,0,0,1.55-1.46,9.1,9.1,0,0,0,1.2-2l-5.63-8.47L138,71.41Z" style="fill:#fff;stroke:#fff;stroke-miterlimit:10"/><path d="M154,68.48a7.36,7.36,0,0,0,.72,1.09,7.12,7.12,0,0,0,.8.84,4.71,4.71,0,0,0,2.87,1.19,5.68,5.68,0,0,0,3-.74,8.85,8.85,0,0,0,2.08-1.56,12.39,12.39,0,0,0,1.76-2.25l2.06,1.2a13.35,13.35,0,0,1-2.14,3.08,11.48,11.48,0,0,1-2.8,2.17,8.85,8.85,0,0,1-3.07,1,6.79,6.79,0,0,1-3-.25,7.84,7.84,0,0,1-2.78-1.64,11.3,11.3,0,0,1-2.39-3.1A11.45,11.45,0,0,1,150,66.33a8,8,0,0,1,0-3.16,7.22,7.22,0,0,1,1.29-2.84A8.14,8.14,0,0,1,154,58.05a7.76,7.76,0,0,1,3.08-1,5.66,5.66,0,0,1,2.56.32,6.49,6.49,0,0,1,2.11,1.29,12.61,12.61,0,0,1,1.7,1.88c.24.34.47.68.69,1l.61,1.06Zm1-8.12a5.3,5.3,0,0,0-1.49,1.15,3.8,3.8,0,0,0-.77,1.4,4.13,4.13,0,0,0-.13,1.62,8.31,8.31,0,0,0,.43,1.83l7.71-4.23a8,8,0,0,0-1.1-1.37,4,4,0,0,0-1.29-.85,3.3,3.3,0,0,0-1.54-.18A5,5,0,0,0,155,60.36Z" style="fill:#fff;stroke:#fff;stroke-miterlimit:10"/><path d="M169.83,41.85l8.57-3.43a11.81,11.81,0,0,1,3.17-.8,11.78,11.78,0,0,1,8.68,2.53,12.6,12.6,0,0,1,2.16,2.27A12.32,12.32,0,0,1,194,45.27a13.24,13.24,0,0,1,.84,3.18,12.85,12.85,0,0,1,0,3.16,11.76,11.76,0,0,1-4.51,7.88,11.63,11.63,0,0,1-2.85,1.61l-8.57,3.43-1-2.58,2.19-.87-7-17.52-2.19.87Zm6.2.52,7,17.52,3.59-1.44a7.11,7.11,0,0,0,2.72-1.89,8.38,8.38,0,0,0,1.71-2.86,9.55,9.55,0,0,0,.53-3.46,10.43,10.43,0,0,0-.77-3.7,10.14,10.14,0,0,0-2-3.17,9.33,9.33,0,0,0-2.76-2.1,8.48,8.48,0,0,0-3.19-.87,7.51,7.51,0,0,0-3.27.53Z" style="fill:#fff;stroke:#fff;stroke-miterlimit:10"/><path d="M201.23,47.6a7.63,7.63,0,0,0,.48,1.21,6.1,6.1,0,0,0,.61,1,4.67,4.67,0,0,0,2.55,1.77,5.67,5.67,0,0,0,3.13-.08,9.56,9.56,0,0,0,2.36-1.09,12.3,12.3,0,0,0,2.19-1.84l1.77,1.61a13.68,13.68,0,0,1-2.74,2.57,11.09,11.09,0,0,1-3.2,1.52,8.76,8.76,0,0,1-3.21.37,6.77,6.77,0,0,1-2.9-.88,7.75,7.75,0,0,1-2.37-2.19A11.25,11.25,0,0,1,198.22,48a11.09,11.09,0,0,1-.48-3.38,7.92,7.92,0,0,1,.66-3.09,7.25,7.25,0,0,1,1.85-2.51,8.2,8.2,0,0,1,3.13-1.66,8,8,0,0,1,3.23-.36,5.81,5.81,0,0,1,2.44.85,6.47,6.47,0,0,1,1.79,1.71,11.71,11.71,0,0,1,1.26,2.2,11.48,11.48,0,0,1,.46,1.15c.14.4.26.79.37,1.17Zm-.32-16.43,3.76-1.12.08.26-3.39,5.75-2.41.72Zm3,8.69a5.49,5.49,0,0,0-1.7.82,3.73,3.73,0,0,0-1,1.2,4.31,4.31,0,0,0-.47,1.56,8.55,8.55,0,0,0,0,1.88l8.43-2.52a8.13,8.13,0,0,0-.79-1.56,3.73,3.73,0,0,0-1.09-1.11,3.34,3.34,0,0,0-1.46-.5A5,5,0,0,0,203.9,39.86Z" style="fill:#fff;stroke:#fff;stroke-miterlimit:10"/><path d="M215.52,34.08l5.31-1,.35,1.92h0a12.42,12.42,0,0,1,1-1.07,8.41,8.41,0,0,1,1.13-.94,9.1,9.1,0,0,1,1.29-.73,6.34,6.34,0,0,1,1.46-.44,6.82,6.82,0,0,1,3.23.08,4.59,4.59,0,0,1,2.39,1.69c.34-.44.7-.86,1.09-1.28a10.12,10.12,0,0,1,1.25-1.12,9.4,9.4,0,0,1,1.43-.87,6.84,6.84,0,0,1,1.64-.53,7.89,7.89,0,0,1,2.5-.08,4.8,4.8,0,0,1,2,.77,4.92,4.92,0,0,1,1.51,1.7,8.78,8.78,0,0,1,.89,2.68l1.45,7.86,2.31-.42.5,2.72-7.79,1.43-.5-2.72,2.35-.44L241,35.81a4,4,0,0,0-1.49-2.69,3.85,3.85,0,0,0-3-.46,5.49,5.49,0,0,0-2.11.91,7,7,0,0,0-1.7,1.64l1.75,9.54,2.31-.42.5,2.72-7.78,1.43-.5-2.72,2.35-.44L230,37.83a3.92,3.92,0,0,0-1.5-2.68,3.81,3.81,0,0,0-3-.47,5,5,0,0,0-2,.88,10.78,10.78,0,0,0-1.79,1.59l1.76,9.62,2.35-.43.5,2.73-7.79,1.43-.5-2.73,2.32-.43-2-11L216,36.8Z" style="fill:#fff;stroke:#fff;stroke-miterlimit:10"/><path d="M250.2,36.75a10,10,0,0,1,.38-3.64,8.26,8.26,0,0,1,1.55-2.92,7.76,7.76,0,0,1,2.55-2,9,9,0,0,1,3.37-.88,9.22,9.22,0,0,1,3.48.38,7.66,7.66,0,0,1,2.8,1.58,8.28,8.28,0,0,1,1.93,2.65,10.75,10.75,0,0,1,.52,7.18,8.53,8.53,0,0,1-1.53,2.93,7.63,7.63,0,0,1-2.54,2,9.56,9.56,0,0,1-6.9.51A7.64,7.64,0,0,1,253,43a8.32,8.32,0,0,1-1.93-2.66A10.13,10.13,0,0,1,250.2,36.75Zm3.21-.23a7.52,7.52,0,0,0,.61,2.56A5.84,5.84,0,0,0,255.3,41a5.07,5.07,0,0,0,1.77,1.14,4.83,4.83,0,0,0,2.07.29,5.07,5.07,0,0,0,2.06-.58,4.89,4.89,0,0,0,1.6-1.37,6,6,0,0,0,1-2,8,8,0,0,0,.22-2.63,8.33,8.33,0,0,0-.6-2.66,5.74,5.74,0,0,0-1.26-1.88,4.72,4.72,0,0,0-1.78-1.07,5.58,5.58,0,0,0-2.13-.25,5.46,5.46,0,0,0-2,.55,4.78,4.78,0,0,0-1.59,1.31,5.7,5.7,0,0,0-1,2.05A8.09,8.09,0,0,0,253.41,36.52Z" style="fill:#fff;stroke:#fff;stroke-miterlimit:10"/><path d="M283,31.66a4.38,4.38,0,0,0-1.71-1.8,5.15,5.15,0,0,0-2.44-.6,4.65,4.65,0,0,0-2,.4,4.79,4.79,0,0,0-1.65,1.22,5.94,5.94,0,0,0-1.13,1.94,7.63,7.63,0,0,0-.44,2.56,7.3,7.3,0,0,0,.36,2.54,5.78,5.78,0,0,0,1.07,1.94,4.84,4.84,0,0,0,1.61,1.25,4.72,4.72,0,0,0,2,.46,4.89,4.89,0,0,0,2.75-.71,5.1,5.1,0,0,0,1.88-2.17l2.5,1.27a7.76,7.76,0,0,1-1.24,1.83,7.52,7.52,0,0,1-1.65,1.38,7.87,7.87,0,0,1-2,.86,8.24,8.24,0,0,1-2.3.28,8.14,8.14,0,0,1-3.26-.71,7.53,7.53,0,0,1-2.55-1.87,8.12,8.12,0,0,1-1.65-2.83,10.06,10.06,0,0,1-.55-3.57,9.72,9.72,0,0,1,.69-3.55,8.56,8.56,0,0,1,1.8-2.77,8.05,8.05,0,0,1,2.63-1.78,7.67,7.67,0,0,1,3.2-.61,8.3,8.3,0,0,1,3,.59,7,7,0,0,1,2.49,1.7l1.71,0,0,2.77Z" style="fill:#fff;stroke:#fff;stroke-miterlimit:10"/><path d="M301.61,31.79l-3.1-.23.07-1a3.6,3.6,0,0,0-1.11.12,3.52,3.52,0,0,0-1.1.54,3.65,3.65,0,0,0-.93,1,4.55,4.55,0,0,0-.64,1.46l-.59,8,2.87.21-.2,2.76-8.4-.61.21-2.77,2.33.17.84-11.12-2.36-.17.21-2.76,5.4.39-.17,2.3a7.27,7.27,0,0,1,.73-.91,5,5,0,0,1,.88-.71,4,4,0,0,1,1-.44,3.9,3.9,0,0,1,1.2-.1l1.6.12,1.5.14Z" style="fill:#fff;stroke:#fff;stroke-miterlimit:10"/><path d="M313.86,45.09a9.06,9.06,0,0,1-2.32,1.13,6.13,6.13,0,0,1-2.72.18,6.4,6.4,0,0,1-2.2-.71,5.54,5.54,0,0,1-1.63-1.3,4.8,4.8,0,0,1-.93-1.7,4.34,4.34,0,0,1-.15-1.93,5.34,5.34,0,0,1,.58-1.82,4.79,4.79,0,0,1,1.05-1.29,5.07,5.07,0,0,1,1.38-.83,7.7,7.7,0,0,1,1.56-.44,8.88,8.88,0,0,1,1.63-.12,10.73,10.73,0,0,1,1.54.11,19.44,19.44,0,0,1,2,.36c.52.12,1,.26,1.42.4l.21-1.35a4.22,4.22,0,0,0,0-1.56,2.8,2.8,0,0,0-.58-1.17,3.17,3.17,0,0,0-1-.8,4.75,4.75,0,0,0-1.44-.41,9.44,9.44,0,0,0-1.47-.11,11.4,11.4,0,0,0-1.35.08,9.33,9.33,0,0,0-1.17.23,4.56,4.56,0,0,0-.93.33l-.7-2.2a10.74,10.74,0,0,1,1.42-.52,11.35,11.35,0,0,1,1.58-.35,13,13,0,0,1,1.65-.13,9.84,9.84,0,0,1,1.64.09,9.35,9.35,0,0,1,2.57.72,5.17,5.17,0,0,1,1.83,1.35,4.64,4.64,0,0,1,1,2,7.39,7.39,0,0,1,.06,2.72L317,44.31l1.87.27-.4,2.74-4.87-.7Zm-4-1.08a5,5,0,0,0,1.22,0,6.43,6.43,0,0,0,1.19-.23,6,6,0,0,0,1.07-.43,4.93,4.93,0,0,0,.86-.57l.56-3.73-3.5-.5a6,6,0,0,0-1.63,0,3.77,3.77,0,0,0-1.32.38,2.54,2.54,0,0,0-1,.79,2.47,2.47,0,0,0-.47,1.2,2.41,2.41,0,0,0,.08,1.18,2.19,2.19,0,0,0,.57.91,3.1,3.1,0,0,0,1,.65A5.17,5.17,0,0,0,309.84,44Z" style="fill:#fff;stroke:#fff;stroke-miterlimit:10"/><path d="M329.72,32.6l3.89.81-.49,2.38L329.19,35l-2,9.43a4.83,4.83,0,0,0-.1,1.6,1.44,1.44,0,0,0,.55,1,2.64,2.64,0,0,0,1.08.46,4.9,4.9,0,0,0,1.21.13,5.59,5.59,0,0,0,1.2-.16l.28,2.11a8.53,8.53,0,0,1-1.75.29,8.14,8.14,0,0,1-2.05-.19,6.1,6.1,0,0,1-1.84-.66,3.06,3.06,0,0,1-1.18-1.16,3.94,3.94,0,0,1-.49-1.82,10.64,10.64,0,0,1,.27-2.63l1.92-9-2.64-.55.5-2.38,2.67.56.82-3.91,3.2-.75Z" style="fill:#fff;stroke:#fff;stroke-miterlimit:10"/><path d="M337.51,34.33l5.36,1.39L339.38,49.2l2.47.64-.7,2.68-7.79-2,.69-2.68,2.35.6,2.8-10.79L336.82,37Zm3.31-5.25a1.87,1.87,0,0,1,.37-.73,2,2,0,0,1,.61-.52,2,2,0,0,1,.77-.27,2.14,2.14,0,0,1,1.59.41,2.39,2.39,0,0,1,.54.61,2.17,2.17,0,0,1,.27.75,1.89,1.89,0,0,1,0,.82,2,2,0,0,1-.37.75,2.5,2.5,0,0,1-.62.55,2,2,0,0,1-.77.28,1.9,1.9,0,0,1-.82,0,2.12,2.12,0,0,1-.77-.37,2.28,2.28,0,0,1-.54-.62,2.58,2.58,0,0,1-.27-.78A2,2,0,0,1,340.82,29.08Z" style="fill:#fff;stroke:#fff;stroke-miterlimit:10"/><path d="M351.31,60.7l2.33.77,1.91-5.82a6,6,0,0,1-2.17.58,6.37,6.37,0,0,1-2.43-.32,8.7,8.7,0,0,1-2.86-1.56,7.17,7.17,0,0,1-1.9-2.44,7.75,7.75,0,0,1-.75-3.18A10.75,10.75,0,0,1,346,45a9.89,9.89,0,0,1,1.66-3.16,7.68,7.68,0,0,1,2.42-2,7.53,7.53,0,0,1,3-.85,9,9,0,0,1,3.41.47,8.4,8.4,0,0,1,2,.94,6.71,6.71,0,0,1,1.55,1.43l.23-.71,2.89.95-6.69,20.44,2.42.8-.86,2.63-7.65-2.5Zm.83-7.15a5.43,5.43,0,0,0,2.38.3,4.83,4.83,0,0,0,1.79-.53l2.94-9a5.06,5.06,0,0,0-1.47-1.48,7.75,7.75,0,0,0-1.94-.94,5.34,5.34,0,0,0-2-.26,4.81,4.81,0,0,0-1.94.59,5.47,5.47,0,0,0-1.64,1.42A7.09,7.09,0,0,0,349,45.9a8.49,8.49,0,0,0-.47,2.71,5.56,5.56,0,0,0,.43,2.22,4.6,4.6,0,0,0,1.22,1.67A5.57,5.57,0,0,0,352.14,53.55Z" style="fill:#fff;stroke:#fff;stroke-miterlimit:10"/><path d="M377.74,47.79l5,2.14-5.46,12.81,1.73.74L378,66l-4.54-1.94.6-1.42a9.25,9.25,0,0,1-2.82.26,8.15,8.15,0,0,1-2.85-.69,6.8,6.8,0,0,1-2-1.24,4.32,4.32,0,0,1-1.18-1.73,5,5,0,0,1-.27-2.22,8.83,8.83,0,0,1,.73-2.74L368.76,47l-2.11-.9,1.09-2.55,5,2.14-4.08,9.56a4.19,4.19,0,0,0-.31,3,3.33,3.33,0,0,0,2,1.92,6.83,6.83,0,0,0,2.07.5,9,9,0,0,0,2.31-.09l4-9.35-2.09-.89Z" style="fill:#fff;stroke:#fff;stroke-miterlimit:10"/><path d="M387.87,62.09a7.42,7.42,0,0,0-.51,1.2,6.8,6.8,0,0,0-.26,1.13,4.62,4.62,0,0,0,.57,3A5.78,5.78,0,0,0,390,69.61a9.48,9.48,0,0,0,2.45.89,12.69,12.69,0,0,0,2.85.22l.13,2.39a13.28,13.28,0,0,1-3.75-.1,11.28,11.28,0,0,1-3.35-1.15,8.68,8.68,0,0,1-2.55-2,6.65,6.65,0,0,1-1.44-2.66,7.63,7.63,0,0,1-.16-3.22,11.2,11.2,0,0,1,1.28-3.7,11.06,11.06,0,0,1,2-2.74,7.83,7.83,0,0,1,2.63-1.74,7.39,7.39,0,0,1,3.09-.49,8.22,8.22,0,0,1,3.39,1,7.84,7.84,0,0,1,2.55,2,5.72,5.72,0,0,1,1.14,2.32,6.4,6.4,0,0,1,.08,2.47,12.8,12.8,0,0,1-.64,2.45c-.15.39-.31.77-.49,1.15s-.37.74-.55,1.09Zm7.33-3.64a5.31,5.31,0,0,0-1.78-.61,3.83,3.83,0,0,0-1.59.12,4.22,4.22,0,0,0-1.43.79,8,8,0,0,0-1.29,1.36l7.77,4.12a8.3,8.3,0,0,0,.54-1.67,4,4,0,0,0,0-1.55,3.33,3.33,0,0,0-.69-1.38A5.07,5.07,0,0,0,395.2,58.45Z" style="fill:#fff;stroke:#fff;stroke-miterlimit:10"/><path d="M426.66,65.36l4.42,3L418.47,86.78l2,1.41L419,90.47l-4.56-3.12.78-1.13a6.14,6.14,0,0,1-2.3,0,6.35,6.35,0,0,1-2.28-1,8.57,8.57,0,0,1-2.31-2.3A7.22,7.22,0,0,1,407.14,80a8.07,8.07,0,0,1,.17-3.26,10.76,10.76,0,0,1,1.63-3.47,10.16,10.16,0,0,1,2.48-2.57,7.4,7.4,0,0,1,6-1.25,8.84,8.84,0,0,1,3.14,1.4,9,9,0,0,1,1.7,1.49,5.84,5.84,0,0,1,1.08,1.87L427,69l-1.9-1.3Zm-14.27,17.9a5.87,5.87,0,0,0,2.1,1,5.3,5.3,0,0,0,2.06,0l5.28-7.71a5.09,5.09,0,0,0-1-1.88,7.67,7.67,0,0,0-1.63-1.48,5.11,5.11,0,0,0-1.89-.82,4.74,4.74,0,0,0-2,0,5.47,5.47,0,0,0-2,.89,7.23,7.23,0,0,0-1.76,1.84,8.78,8.78,0,0,0-1.21,2.47,5.55,5.55,0,0,0-.21,2.25,4.39,4.39,0,0,0,.71,1.94A5.54,5.54,0,0,0,412.39,83.26Z" style="fill:#fff;stroke:#fff;stroke-miterlimit:10"/><path d="M439.38,85.52,443.6,89l-8.86,10.74,1.46,1.2-1.77,2.14-3.81-3.14,1-1.2a9.39,9.39,0,0,1-2.78-.54,8.49,8.49,0,0,1-2.54-1.47A6.85,6.85,0,0,1,424.72,95a4.4,4.4,0,0,1-.64-2,5.11,5.11,0,0,1,.37-2.22,8.78,8.78,0,0,1,1.48-2.41L431,82.21l-1.77-1.46L431,78.61l4.22,3.48-6.61,8a4.19,4.19,0,0,0-1.15,2.81,3.35,3.35,0,0,0,1.37,2.4,6.91,6.91,0,0,0,1.85,1.07,9,9,0,0,0,2.24.56l6.46-7.84-1.75-1.45Z" style="fill:#fff;stroke:#fff;stroke-miterlimit:10"/><path d="M468.32,111.62a8,8,0,0,0,.11-4.1,7.88,7.88,0,0,0-2-3.65,7.57,7.57,0,0,0-3-2,8.17,8.17,0,0,0-3.38-.51,9.9,9.9,0,0,0-3.44.83,11.73,11.73,0,0,0-5.59,5.35,8.67,8.67,0,0,0-.91,3.31,9.6,9.6,0,0,0,.37,3.25,7.45,7.45,0,0,0,1.78,3,8.08,8.08,0,0,0,4,2.43,9.62,9.62,0,0,0,5.19-.38l1,3a9.9,9.9,0,0,1-3.9.76,11.1,11.1,0,0,1-4.41-.89,11.58,11.58,0,0,1-4-2.85,11.29,11.29,0,0,1-2.5-4,11.82,11.82,0,0,1,.63-9.27,14.23,14.23,0,0,1,3-4,13.85,13.85,0,0,1,4.19-2.74,12.27,12.27,0,0,1,4.62-1,11.43,11.43,0,0,1,4.55.89,11.29,11.29,0,0,1,4,2.77,11.11,11.11,0,0,1,2.23,3.3,11.62,11.62,0,0,1,.81,3.09,11.44,11.44,0,0,1,0,2.75l1.19,1.27-2.09,2Z" style="fill:#fff;stroke:#fff;stroke-miterlimit:10"/><path d="M465.5,123.06a9.9,9.9,0,0,1,3.25-1.71A8.46,8.46,0,0,1,472,121a7.81,7.81,0,0,1,3.06,1,9.1,9.1,0,0,1,2.6,2.31,9.29,9.29,0,0,1,1.62,3.11,7.63,7.63,0,0,1,.23,3.21,8,8,0,0,1-1.13,3.07,10.62,10.62,0,0,1-5.68,4.42,8.26,8.26,0,0,1-3.28.35,7.62,7.62,0,0,1-3.09-1,8.82,8.82,0,0,1-2.63-2.32,9,9,0,0,1-1.62-3.13,7.66,7.66,0,0,1-.2-3.22,8.24,8.24,0,0,1,1.14-3.09A10.11,10.11,0,0,1,465.5,123.06Zm2,2.54a7.83,7.83,0,0,0-1.79,1.92,6,6,0,0,0-.86,2.12,5.11,5.11,0,0,0,.05,2.1,4.81,4.81,0,0,0,.9,1.88,5.16,5.16,0,0,0,1.63,1.4,5.05,5.05,0,0,0,2,.57,6,6,0,0,0,2.25-.32A7.84,7.84,0,0,0,474,134a8.28,8.28,0,0,0,1.88-2,5.73,5.73,0,0,0,.86-2.09,4.67,4.67,0,0,0-.1-2.07,5.35,5.35,0,0,0-1-1.91,5,5,0,0,0-1.57-1.36,4.77,4.77,0,0,0-2-.6,5.68,5.68,0,0,0-2.26.3A8,8,0,0,0,467.48,125.6Z" style="fill:#fff;stroke:#fff;stroke-miterlimit:10"/><path d="M479.36,151.71l1.29,2,6.41-4.12a4,4,0,0,0,1.91-2.41,3.84,3.84,0,0,0-.7-2.93,5.26,5.26,0,0,0-1.58-1.53,11.58,11.58,0,0,0-2.15-1l-8.23,5.3,1.3,2-2.33,1.5L471,143.83l2.33-1.5,1.27,2,9.38-6-1.28-2,2.33-1.5,2.93,4.54-1.66,1.07,0,0a14,14,0,0,1,1.37.49,10.2,10.2,0,0,1,1.31.69,7.81,7.81,0,0,1,1.16.92,6.41,6.41,0,0,1,1,1.19,7.65,7.65,0,0,1,1,2.26,4.71,4.71,0,0,1-.93,4.23,8.66,8.66,0,0,1-2.13,1.87l-6.72,4.32,1.28,2-2.33,1.5L477,153.21Z" style="fill:#fff;stroke:#fff;stroke-miterlimit:10"/><path d="M489.73,172.61a5.95,5.95,0,0,1-3.7-3.09,8.62,8.62,0,0,1-1-3.11,7.29,7.29,0,0,1,.33-3.08,8,8,0,0,1,1.68-2.8,10.76,10.76,0,0,1,3.06-2.3,9.91,9.91,0,0,1,3.39-1.11,7.76,7.76,0,0,1,3.17.22,7.43,7.43,0,0,1,2.75,1.5,8.84,8.84,0,0,1,2.13,2.71,8.73,8.73,0,0,1,.81,2.16,6.3,6.3,0,0,1,.07,2.22l.75-.4,1.42,2.7-14.2,7.45c-2.34,1.23-4.41,1.59-6.19,1.09s-3.31-1.93-4.56-4.31a14.57,14.57,0,0,1-.74-1.69,12.53,12.53,0,0,1-.53-1.88,12.91,12.91,0,0,1-.21-2,8.48,8.48,0,0,1,.17-2l2.92.32a6.4,6.4,0,0,0-.16,1.35,7.49,7.49,0,0,0,.09,1.48,10.12,10.12,0,0,0,.34,1.5,9,9,0,0,0,1.83,3.24,3.14,3.14,0,0,0,1.51.93,4.16,4.16,0,0,0,2,0,11,11,0,0,0,2.63-1.05Zm-1.2-4a5.88,5.88,0,0,0,1.62,2,5.36,5.36,0,0,0,.9.54,4.47,4.47,0,0,0,.88.28l8.09-4.24a5.21,5.21,0,0,0,0-2.19,8.19,8.19,0,0,0-.75-2.13,5.27,5.27,0,0,0-1.3-1.61,4.74,4.74,0,0,0-1.79-.94,5.52,5.52,0,0,0-2.16-.13,7.27,7.27,0,0,0-2.42.81,8.26,8.26,0,0,0-2.22,1.61,5.38,5.38,0,0,0-1.24,1.89,4.34,4.34,0,0,0-.28,2A5.45,5.45,0,0,0,488.53,168.65Z" style="fill:#fff;stroke:#fff;stroke-miterlimit:10"/><path d="M499.08,175.87a10.09,10.09,0,0,1,3.57-.8,8.16,8.16,0,0,1,3.26.53,7.89,7.89,0,0,1,2.7,1.78,8.92,8.92,0,0,1,1.91,2.91,9.17,9.17,0,0,1,.76,3.42,7.64,7.64,0,0,1-.6,3.16,8.06,8.06,0,0,1-1.89,2.67,9.89,9.89,0,0,1-3.09,2,10,10,0,0,1-3.54.82,8.38,8.38,0,0,1-3.27-.51,7.58,7.58,0,0,1-2.72-1.76,9.5,9.5,0,0,1-2.69-6.37,7.66,7.66,0,0,1,.63-3.16,8.28,8.28,0,0,1,1.9-2.68A10.11,10.11,0,0,1,499.08,175.87Zm1.25,3a7.62,7.62,0,0,0-2.23,1.39,5.86,5.86,0,0,0-1.37,1.82,5.29,5.29,0,0,0-.51,2,4.86,4.86,0,0,0,.39,2.05,5,5,0,0,0,1.21,1.77,4.91,4.91,0,0,0,1.81,1.08,5.93,5.93,0,0,0,2.26.27,7.92,7.92,0,0,0,2.56-.63,8.18,8.18,0,0,0,2.32-1.43,5.57,5.57,0,0,0,1.38-1.79,4.59,4.59,0,0,0,.44-2,5.4,5.4,0,0,0-.45-2.1,5.12,5.12,0,0,0-1.16-1.72,4.67,4.67,0,0,0-1.75-1.09,5.52,5.52,0,0,0-2.26-.29A7.64,7.64,0,0,0,500.33,178.85Z" style="fill:#fff;stroke:#fff;stroke-miterlimit:10"/><ellipse cx="276.88" cy="275.9" rx="275.88" ry="274.9" style="fill:none;stroke:#fff;stroke-miterlimit:10;stroke-width:2px"/><path d="M36.07,293.9a6.53,6.53,0,0,0,2.24-2.49,6.35,6.35,0,0,0,.7-3.33,6.27,6.27,0,0,0-.79-2.8,6.75,6.75,0,0,0-1.84-2.1,7.84,7.84,0,0,0-2.58-1.3,9.66,9.66,0,0,0-6.32.36,7.58,7.58,0,0,0-2.33,1.58A8.13,8.13,0,0,0,23.67,286a6,6,0,0,0-.5,2.83,6.67,6.67,0,0,0,1.18,3.62A8,8,0,0,0,27.8,295l-1,2.4A8.21,8.21,0,0,1,24,295.81a9.25,9.25,0,0,1-2.28-2.89,9.38,9.38,0,0,1-1-3.91,9.18,9.18,0,0,1,.58-3.84,9.64,9.64,0,0,1,5.31-5.43,11.73,11.73,0,0,1,4-.92,11.4,11.4,0,0,1,4.06.52,9.9,9.9,0,0,1,3.4,1.84A9.3,9.3,0,0,1,41.46,288a8.76,8.76,0,0,1-.37,3.23A9.16,9.16,0,0,1,40,293.54a9.46,9.46,0,0,1-1.48,1.7l.07,1.41-2.34.12Z" style="fill:#fff;stroke:#fff;stroke-miterlimit:10"/><path d="M28.64,299.66a8.2,8.2,0,0,1,3,.15A6.74,6.74,0,0,1,34.08,301a6.31,6.31,0,0,1,1.74,2,7.87,7.87,0,0,1,.7,5.56,6.11,6.11,0,0,1-1.17,2.35,6.69,6.69,0,0,1-2.08,1.69,8,8,0,0,1-2.87.87,8.14,8.14,0,0,1-3-.13A6.92,6.92,0,0,1,25,312.16a6.34,6.34,0,0,1-1.76-2,7.77,7.77,0,0,1-.71-5.6,6.37,6.37,0,0,1,1.19-2.35,6.89,6.89,0,0,1,2.1-1.69A8.27,8.27,0,0,1,28.64,299.66Zm.33,2.61a6.29,6.29,0,0,0-2.06.6A4.93,4.93,0,0,0,25.42,304a4.31,4.31,0,0,0-.85,1.5,4,4,0,0,0-.15,1.69,4.26,4.26,0,0,0,.57,1.66,4.05,4.05,0,0,0,1.19,1.25,4.84,4.84,0,0,0,1.72.71,6.42,6.42,0,0,0,2.16.06,6.64,6.64,0,0,0,2.14-.61,4.6,4.6,0,0,0,1.48-1.11,3.64,3.64,0,0,0,.79-1.49,4.45,4.45,0,0,0,.11-1.75,4.19,4.19,0,0,0-.53-1.61,3.86,3.86,0,0,0-1.14-1.24,4.57,4.57,0,0,0-1.71-.73A6.32,6.32,0,0,0,29,302.27Z" style="fill:#fff;stroke:#fff;stroke-miterlimit:10"/><path d="M37.33,315.1l1,4.31-1.56.34v0c.31.24.61.5.9.77a6.78,6.78,0,0,1,.8.9,5.87,5.87,0,0,1,1.07,4.84,3.73,3.73,0,0,1-1.31,2c.37.27.73.55,1.08.86A7.77,7.77,0,0,1,41,331.28a5.52,5.52,0,0,1,.48,1.31,6.58,6.58,0,0,1,.14,2,4,4,0,0,1-.57,1.68,4.06,4.06,0,0,1-1.35,1.28,7.16,7.16,0,0,1-2.16.82l-6.39,1.41.42,1.88-2.21.49L28,335.88l2.21-.5.42,1.91,6.09-1.35a3.26,3.26,0,0,0,2.15-1.3,3.11,3.11,0,0,0,.29-2.43,4.62,4.62,0,0,0-.8-1.7,5.81,5.81,0,0,0-1.39-1.33l-7.75,1.72.41,1.86-2.21.49L26,327l2.21-.49.43,1.91L34.69,327a3.2,3.2,0,0,0,2.15-1.31,3.12,3.12,0,0,0,.29-2.44,4.15,4.15,0,0,0-.77-1.62A9.52,9.52,0,0,0,35,320.24L27.19,322l.42,1.91-2.21.49L24,318.06l2.21-.5.42,1.88,8.91-2-.42-1.88Z" style="fill:#fff;stroke:#fff;stroke-miterlimit:10"/><path d="M43.35,341.6l1.45,4.16-1.51.53v0a10.75,10.75,0,0,1,1,.67,7.57,7.57,0,0,1,.9.8,7.13,7.13,0,0,1,.75,1,5,5,0,0,1,.54,1.12,5.84,5.84,0,0,1,.33,2.61,3.77,3.77,0,0,1-1.07,2.14c.39.22.78.46,1.17.73a8,8,0,0,1,1.06.87,7.43,7.43,0,0,1,.88,1,5.43,5.43,0,0,1,.63,1.25,6.31,6.31,0,0,1,.37,2,3.88,3.88,0,0,1-.37,1.74,4,4,0,0,1-1.19,1.43,7.15,7.15,0,0,1-2,1.05l-6.18,2.15.63,1.81-2.14.75-2.12-6.11,2.14-.75.64,1.85,5.89-2.05a3.26,3.26,0,0,0,2-1.53,3.18,3.18,0,0,0,0-2.45,4.38,4.38,0,0,0-1-1.59,5.47,5.47,0,0,0-1.54-1.17l-7.5,2.6.63,1.81-2.14.74-2.12-6.1,2.15-.74.63,1.84,5.9-2a3.24,3.24,0,0,0,2-1.54,3.16,3.16,0,0,0,0-2.46,4.15,4.15,0,0,0-1-1.52A9.12,9.12,0,0,0,41.63,347l-7.56,2.63.64,1.84-2.14.74-2.12-6.11,2.14-.74.63,1.82,8.62-3-.63-1.82Z" style="fill:#fff;stroke:#fff;stroke-miterlimit:10"/><path d="M52.65,367.07l1.8,4.14L44,375.75l.83,1.91-2.08.91-2.62-6,2.08-.91.78,1.82,8.37-3.64-.8-1.84Zm5.05-.52a1.5,1.5,0,0,1,.66-.13,1.56,1.56,0,0,1,.64.13,1.77,1.77,0,0,1,1,.93,1.66,1.66,0,0,1,.14.66,1.78,1.78,0,0,1-.12.65,2,2,0,0,1-.35.56,1.63,1.63,0,0,1-.54.39,1.76,1.76,0,0,1-.68.14,2.41,2.41,0,0,1-.66-.12,1.87,1.87,0,0,1-.57-.35,1.57,1.57,0,0,1-.39-.56,1.76,1.76,0,0,1-.14-.68,1.65,1.65,0,0,1,.13-.66,2,2,0,0,1,.36-.56A1.6,1.6,0,0,1,57.7,366.55Z" style="fill:#fff;stroke:#fff;stroke-miterlimit:10"/><path d="M57.13,383.27a2.06,2.06,0,0,0,.27-.88,3.39,3.39,0,0,0-.09-1,4.65,4.65,0,0,0-.33-.93,4,4,0,0,0-.54-.83,2.31,2.31,0,0,0-.65-.54,1.54,1.54,0,0,0-.71-.21,1.41,1.41,0,0,0-.72.16,1.44,1.44,0,0,0-.8.85,4,4,0,0,0,0,1.6l.34,2.79a5.28,5.28,0,0,1-.28,2.92,3.8,3.8,0,0,1-5,1.78,5.06,5.06,0,0,1-1.46-1.09,7.33,7.33,0,0,1-1.2-1.77,5.87,5.87,0,0,1-.69-2.59,3.87,3.87,0,0,1,.53-2l-.62-1.25,2-1,1.22,2.49a1.7,1.7,0,0,0-.76.65,1.89,1.89,0,0,0-.3.87,3.05,3.05,0,0,0,.07,1,4.53,4.53,0,0,0,.36,1,3.88,3.88,0,0,0,.55.85,3,3,0,0,0,.71.6,1.9,1.9,0,0,0,.78.26,1.38,1.38,0,0,0,.79-.15,1.57,1.57,0,0,0,.82-.88,3.69,3.69,0,0,0,.09-1.69l-.29-2.81a5.81,5.81,0,0,1,.24-2.79A3.23,3.23,0,0,1,53.06,377a4,4,0,0,1,1.59-.41,3.5,3.5,0,0,1,1.56.29,4.46,4.46,0,0,1,1.42,1,6.7,6.7,0,0,1,1.17,1.7,6.54,6.54,0,0,1,.73,2.41,4.63,4.63,0,0,1-.46,2.24l.57,1.16-2,1-1.2-2.46A1.67,1.67,0,0,0,57.13,383.27Z" style="fill:#fff;stroke:#fff;stroke-miterlimit:10"/><path d="M63.44,395a2.13,2.13,0,0,0,.22-.9,3.36,3.36,0,0,0-.14-1,5.09,5.09,0,0,0-.39-.92,3.78,3.78,0,0,0-.59-.79,2.39,2.39,0,0,0-.67-.51,1.71,1.71,0,0,0-.72-.16,1.44,1.44,0,0,0-.72.19,1.42,1.42,0,0,0-.74.9,3.93,3.93,0,0,0,0,1.59l.5,2.77a5.25,5.25,0,0,1-.12,2.94,3.65,3.65,0,0,1-1.65,1.83,3.8,3.8,0,0,1-1.63.49,3.55,3.55,0,0,1-1.64-.27,5.1,5.1,0,0,1-1.52-1,7.17,7.17,0,0,1-1.29-1.7,5.74,5.74,0,0,1-.84-2.54,3.86,3.86,0,0,1,.41-2l-.68-1.21,2-1.11L54.6,394a1.78,1.78,0,0,0-.72.69,2.08,2.08,0,0,0-.25.89,3,3,0,0,0,.13,1,5,5,0,0,0,.41,1,4.05,4.05,0,0,0,.6.81,3,3,0,0,0,.74.56,2,2,0,0,0,.8.22,1.38,1.38,0,0,0,.78-.2,1.54,1.54,0,0,0,.76-.92,3.68,3.68,0,0,0,0-1.7l-.44-2.78a5.7,5.7,0,0,1,.08-2.8A3.23,3.23,0,0,1,59,388.94a4,4,0,0,1,1.57-.5,3.66,3.66,0,0,1,1.57.2,4.56,4.56,0,0,1,1.47.92,6.36,6.36,0,0,1,1.27,1.63,6.66,6.66,0,0,1,.86,2.37,4.44,4.44,0,0,1-.34,2.25l.64,1.13-2,1.12-1.34-2.39A1.72,1.72,0,0,0,63.44,395Z" style="fill:#fff;stroke:#fff;stroke-miterlimit:10"/><path d="M68.51,398.24l2.39,3.83-9.66,6,1.1,1.77-1.92,1.2-3.48-5.58,1.92-1.2,1,1.68,7.74-4.83-1.06-1.7ZM73.43,397a1.46,1.46,0,0,1,.63-.23,1.84,1.84,0,0,1,.66,0,1.64,1.64,0,0,1,.6.28,1.76,1.76,0,0,1,.48.5,1.8,1.8,0,0,1,.21,1.3,1.77,1.77,0,0,1-.26.6,1.62,1.62,0,0,1-.48.46,1.57,1.57,0,0,1-.64.24,2.21,2.21,0,0,1-.68,0,1.73,1.73,0,0,1-.61-.26,1.57,1.57,0,0,1-.47-.49,1.61,1.61,0,0,1-.24-.65,1.56,1.56,0,0,1,0-.68,1.87,1.87,0,0,1,.28-.61A1.47,1.47,0,0,1,73.43,397Z" style="fill:#fff;stroke:#fff;stroke-miterlimit:10"/><path d="M67.43,409.47a8.44,8.44,0,0,1,2.72-1.26,6.71,6.71,0,0,1,2.7-.13,6.46,6.46,0,0,1,2.46.95,7.24,7.24,0,0,1,2,2,7.42,7.42,0,0,1,1.19,2.6,6.11,6.11,0,0,1,.06,2.62,6.62,6.62,0,0,1-1.06,2.47,8,8,0,0,1-2.13,2.1,8.35,8.35,0,0,1-2.69,1.27,6.91,6.91,0,0,1-2.7.15,6.26,6.26,0,0,1-2.48-.93,7.82,7.82,0,0,1-3.23-4.62,6.36,6.36,0,0,1,0-2.64,6.81,6.81,0,0,1,1.07-2.47A8.29,8.29,0,0,1,67.43,409.47Zm1.51,2.16a6.32,6.32,0,0,0-1.55,1.49,4.89,4.89,0,0,0-.79,1.69,4.35,4.35,0,0,0,0,1.72,3.94,3.94,0,0,0,.65,1.57,4.2,4.2,0,0,0,1.28,1.21,4,4,0,0,0,1.63.54,4.75,4.75,0,0,0,1.85-.16,6.45,6.45,0,0,0,1.94-.95,6.86,6.86,0,0,0,1.62-1.54,4.62,4.62,0,0,0,.79-1.67,3.86,3.86,0,0,0,0-1.69,4.52,4.52,0,0,0-.72-1.6,4,4,0,0,0-2.81-1.75,4.41,4.41,0,0,0-1.85.16A6.28,6.28,0,0,0,68.94,411.63Z" style="fill:#fff;stroke:#fff;stroke-miterlimit:10"/><path d="M79.37,433.24l1.23,1.51,4.84-3.92a3.21,3.21,0,0,0,1.34-2.13,3.1,3.1,0,0,0-.83-2.31,4,4,0,0,0-1.42-1.1,8.22,8.22,0,0,0-1.84-.66l-6.21,5,1.22,1.51-1.76,1.43-4.07-5,1.76-1.43,1.21,1.49,7.09-5.74-1.21-1.5L82.48,419l2.78,3.42-1.25,1v0a9.77,9.77,0,0,1,1.16.28,7.24,7.24,0,0,1,1.12.44,6.52,6.52,0,0,1,1,.64,5.74,5.74,0,0,1,.9.88,6.08,6.08,0,0,1,1,1.75,4,4,0,0,1,.25,1.76,4.08,4.08,0,0,1-.63,1.75,6.62,6.62,0,0,1-1.56,1.71l-5.08,4.12,1.21,1.49-1.76,1.43-4.07-5Z" style="fill:#fff;stroke:#fff;stroke-miterlimit:10"/><path d="M111.64,442.18l4.66,4.64-1.61,1.61-1.22-1.21L101,459.77l-2.42-2.42,5-18.39L93.48,449.1,95,450.57l-1.6,1.61-4.66-4.64,1.6-1.6,1.33,1.32,10.88-10.95L101.15,435l1.63-1.64,3.86,3.85-5,18.15.52-.37,9.51-9.55L110,443.8Z" style="fill:#fff;stroke:#fff;stroke-miterlimit:10"/><path d="M111.44,467.17a7.44,7.44,0,0,1-2.1-.23,4.87,4.87,0,0,1-1.94-1.07,5.11,5.11,0,0,1-1.21-1.45,4.34,4.34,0,0,1-.55-1.61,3.81,3.81,0,0,1,.1-1.58,3.64,3.64,0,0,1,.74-1.4,4.38,4.38,0,0,1,1.2-1,3.78,3.78,0,0,1,1.29-.43,3.61,3.61,0,0,1,1.31,0,6.29,6.29,0,0,1,1.28.38,7.27,7.27,0,0,1,1.17.62,9.13,9.13,0,0,1,1,.75c.49.42.89.79,1.19,1.1s.57.61.8.9l.74-.84a3.69,3.69,0,0,0,.66-1.1,2.3,2.3,0,0,0,.11-1.06,2.42,2.42,0,0,0-.36-1,4,4,0,0,0-.81-.92,9,9,0,0,0-1.93-1.24,7.13,7.13,0,0,0-.91-.36,4.61,4.61,0,0,0-.79-.18l.49-1.82a7.84,7.84,0,0,1,1.2.26,7.39,7.39,0,0,1,1.24.45,9.82,9.82,0,0,1,1.2.63,7.17,7.17,0,0,1,1.09.78,7.75,7.75,0,0,1,1.46,1.62,4.41,4.41,0,0,1,.67,1.73,3.93,3.93,0,0,1-.2,1.81,6.08,6.08,0,0,1-1.16,1.91L114,468l1.17,1-1.48,1.73-3-2.62Zm-2.29-2.5a4.27,4.27,0,0,0,.83.55,4.18,4.18,0,0,0,.92.36,4.34,4.34,0,0,0,.93.17,3.9,3.9,0,0,0,.84,0l2-2.34-2.19-1.88a5.12,5.12,0,0,0-1.1-.73,3.31,3.31,0,0,0-1.08-.32,2.08,2.08,0,0,0-1.86.76,2.19,2.19,0,0,0-.46.84,1.87,1.87,0,0,0,0,.88,2.56,2.56,0,0,0,.4.88A4.19,4.19,0,0,0,109.15,464.67Z" style="fill:#fff;stroke:#fff;stroke-miterlimit:10"/><path d="M127.86,464.48l2.57,2L129.22,468l-2.59-2-4.85,6.22a3.78,3.78,0,0,0-.65,1.14,1.16,1.16,0,0,0,.06.92,2.1,2.1,0,0,0,.62.72,4.58,4.58,0,0,0,.84.53,4.84,4.84,0,0,0,.95.3l-.55,1.66a7.63,7.63,0,0,1-1.39-.41,6.73,6.73,0,0,1-1.44-.87,5.21,5.21,0,0,1-1.12-1.14,2.47,2.47,0,0,1-.45-1.27,3.19,3.19,0,0,1,.29-1.51,8.77,8.77,0,0,1,1.14-1.85l4.62-5.93L123,463.21l1.22-1.58,1.77,1.36,2-2.59,2.62.59Z" style="fill:#fff;stroke:#fff;stroke-miterlimit:10"/><path d="M132.64,468.09l3.68,2.61-6.6,9.29,1.7,1.2L130.11,483l-5.36-3.81,1.31-1.85,1.62,1.15L133,471.1l-1.63-1.17ZM136.7,465a1.66,1.66,0,0,1,1.11-.67,1.71,1.71,0,0,1,1.76.8,1.74,1.74,0,0,1,.23.61,1.63,1.63,0,0,1,0,.66,1.61,1.61,0,0,1-.26.62,1.69,1.69,0,0,1-.5.46,1.87,1.87,0,0,1-.63.24,1.89,1.89,0,0,1-.67,0,1.72,1.72,0,0,1-.62-.27,1.66,1.66,0,0,1-.48-.51,1.84,1.84,0,0,1-.23-.63,2.22,2.22,0,0,1,0-.68A1.77,1.77,0,0,1,136.7,465Z" style="fill:#fff;stroke:#fff;stroke-miterlimit:10"/><path d="M136,478.86a8.18,8.18,0,0,1,2-2.21,6.84,6.84,0,0,1,2.44-1.16,6.51,6.51,0,0,1,2.64-.06,7.91,7.91,0,0,1,4.72,3,6.3,6.3,0,0,1,1.07,2.4,6.73,6.73,0,0,1,0,2.68,8.8,8.8,0,0,1-3.16,5,7,7,0,0,1-2.43,1.18,6.55,6.55,0,0,1-2.65.09,7.72,7.72,0,0,1-4.76-3,6.27,6.27,0,0,1-1.05-2.42,7,7,0,0,1,0-2.69A8.34,8.34,0,0,1,136,478.86Zm2.22,1.41a6.05,6.05,0,0,0-.85,2,4.72,4.72,0,0,0-.08,1.86,4.08,4.08,0,0,0,.61,1.61,4,4,0,0,0,1.2,1.2,4.12,4.12,0,0,0,1.64.62,4.17,4.17,0,0,0,1.72-.12,4.58,4.58,0,0,0,1.64-.87,6.15,6.15,0,0,0,1.43-1.62,6.35,6.35,0,0,0,.9-2,4.66,4.66,0,0,0,.1-1.84,3.75,3.75,0,0,0-.65-1.57,4.56,4.56,0,0,0-1.27-1.2,4.32,4.32,0,0,0-1.59-.62,4,4,0,0,0-1.68.09,4.49,4.49,0,0,0-1.65.85A6.54,6.54,0,0,0,138.18,480.27Z" style="fill:#fff;stroke:#fff;stroke-miterlimit:10"/><path d="M156.11,496.23l1.71.93,3-5.49a3.19,3.19,0,0,0,.42-2.47,3.14,3.14,0,0,0-1.65-1.82,4.24,4.24,0,0,0-1.74-.48,9.18,9.18,0,0,0-1.95.1l-3.81,7,1.72.93-1.08,2L147,493.88l1.08-2,1.69.92,4.35-8-1.7-.91,1.08-2,3.88,2.1-.76,1.42h0a8.92,8.92,0,0,1,1.17-.19,7,7,0,0,1,1.21,0,6.86,6.86,0,0,1,1.19.19,5.51,5.51,0,0,1,1.17.47,6.26,6.26,0,0,1,1.62,1.22,3.91,3.91,0,0,1,.9,1.54,4.1,4.1,0,0,1,.09,1.86,6.69,6.69,0,0,1-.79,2.17l-3.11,5.75,1.69.92-1.08,2L155,498.22Z" style="fill:#fff;stroke:#fff;stroke-miterlimit:10"/><path d="M171.76,505a7.38,7.38,0,0,1-2.08.36,5,5,0,0,1-2.17-.49,5.18,5.18,0,0,1-1.56-1.06,4.55,4.55,0,0,1-1-1.39,3.86,3.86,0,0,1-.35-1.56,3.63,3.63,0,0,1,.34-1.54,4.35,4.35,0,0,1,.87-1.3,4.08,4.08,0,0,1,1.12-.77,3.9,3.9,0,0,1,1.27-.33,5.92,5.92,0,0,1,1.33,0,7.35,7.35,0,0,1,1.3.28,10.77,10.77,0,0,1,1.18.44c.59.27,1.07.51,1.45.73s.72.43,1,.64l.48-1a3.43,3.43,0,0,0,.33-1.24,2.28,2.28,0,0,0-.18-1.05,2.58,2.58,0,0,0-.63-.86,4.15,4.15,0,0,0-1-.66,9.19,9.19,0,0,0-1.13-.42,7.71,7.71,0,0,0-1.07-.24,7,7,0,0,0-1-.1,5,5,0,0,0-.81.05l0-1.89a9.54,9.54,0,0,1,2.54,0,12.09,12.09,0,0,1,1.33.28,7.53,7.53,0,0,1,1.26.45,7.89,7.89,0,0,1,1.85,1.15,4.24,4.24,0,0,1,1.12,1.48,3.93,3.93,0,0,1,.31,1.8,6,6,0,0,1-.59,2.14l-2.85,6.21,1.4.64-.94,2.06-3.66-1.67Zm-2.9-1.77a3.89,3.89,0,0,0,.95.3,4.82,4.82,0,0,0,1,.1,5.87,5.87,0,0,0,.94-.09,4.73,4.73,0,0,0,.8-.25l1.29-2.8-2.62-1.2a5.27,5.27,0,0,0-1.26-.41,3.06,3.06,0,0,0-1.13,0,2,2,0,0,0-.93.4,2.08,2.08,0,0,0-.64.83,2.13,2.13,0,0,0-.21.95,1.92,1.92,0,0,0,.23.84,2.7,2.7,0,0,0,.63.74A4.47,4.47,0,0,0,168.86,503.25Z" style="fill:#fff;stroke:#fff;stroke-miterlimit:10"/><path d="M185.51,490l4.17,1.66-6.76,16.95,1.94.77L184,511.5l-6.11-2.44.84-2.1,1.86.74,5.93-14.84-1.87-.75Z" style="fill:#fff;stroke:#fff;stroke-miterlimit:10"/><path d="M191.16,507.22a6.76,6.76,0,0,0-.26,1,5.16,5.16,0,0,0-.06.95,3.78,3.78,0,0,0,.85,2.39,4.65,4.65,0,0,0,2.12,1.43,7.89,7.89,0,0,0,2.09.4,10.24,10.24,0,0,0,2.33-.19l.4,1.91a10.6,10.6,0,0,1-3,.41,9,9,0,0,1-2.85-.5,7,7,0,0,1-2.31-1.28,5.44,5.44,0,0,1-1.51-2,6.6,6.6,0,0,1-.54-2.58,9.45,9.45,0,0,1,.56-3.15,9.11,9.11,0,0,1,1.29-2.48,6.57,6.57,0,0,1,1.9-1.75,5.91,5.91,0,0,1,2.43-.79,6.53,6.53,0,0,1,2.86.38,6.16,6.16,0,0,1,2.32,1.29,4.74,4.74,0,0,1,1.22,1.72,5.34,5.34,0,0,1,.38,2,10.14,10.14,0,0,1-.21,2.06,8.9,8.9,0,0,1-.24,1c-.1.33-.2.65-.31,1Zm5.44-3.89a4.1,4.1,0,0,0-1.51-.26,3,3,0,0,0-1.27.3,3.26,3.26,0,0,0-1,.82,6.41,6.41,0,0,0-.86,1.27l6.78,2.32a6.26,6.26,0,0,0,.23-1.42,3.22,3.22,0,0,0-.2-1.25,2.63,2.63,0,0,0-.74-1A4.08,4.08,0,0,0,196.6,503.33Z" style="fill:#fff;stroke:#fff;stroke-miterlimit:10"/><path d="M221.26,501.58l4.24,1-4.3,17.73,2,.48-.54,2.21L218.25,522l.26-1.09a4.75,4.75,0,0,1-1.75.65,4.94,4.94,0,0,1-2-.11,6.92,6.92,0,0,1-2.42-1.08,5.77,5.77,0,0,1-1.71-1.87,6.49,6.49,0,0,1-.81-2.54,9,9,0,0,1,.24-3.12,8.2,8.2,0,0,1,1.15-2.69,6.44,6.44,0,0,1,1.85-1.83,6.08,6.08,0,0,1,2.4-.88,7.85,7.85,0,0,1,4.53.8,5.11,5.11,0,0,1,1.37,1.11l1.23-5.08-1.83-.45Zm-5.72,17.84a4.78,4.78,0,0,0,1.88.12,4.29,4.29,0,0,0,1.56-.62l1.81-7.43a4.33,4.33,0,0,0-1.3-1.14,6.32,6.32,0,0,0-1.67-.66,4.21,4.21,0,0,0-1.69-.08,4,4,0,0,0-1.54.59,4.54,4.54,0,0,0-1.25,1.26,6.24,6.24,0,0,0-.81,1.92,6.91,6.91,0,0,0-.21,2.24,4.63,4.63,0,0,0,.49,1.78,3.68,3.68,0,0,0,1.1,1.28A4.59,4.59,0,0,0,215.54,519.42Z" style="fill:#fff;stroke:#fff;stroke-miterlimit:10"/><path d="M229.15,517.62a5.9,5.9,0,0,0-.1,1.06,4.94,4.94,0,0,0,.09,1,3.76,3.76,0,0,0,1.22,2.22,4.51,4.51,0,0,0,2.31,1.08,7.25,7.25,0,0,0,2.13.07,10.21,10.21,0,0,0,2.27-.55l.7,1.82a10.68,10.68,0,0,1-2.94.88,9,9,0,0,1-2.89,0,7.13,7.13,0,0,1-2.48-.9,5.52,5.52,0,0,1-1.79-1.71,6.11,6.11,0,0,1-.94-2.46,9.13,9.13,0,0,1,.06-3.2,8.8,8.8,0,0,1,.88-2.65,6.42,6.42,0,0,1,1.6-2,5.78,5.78,0,0,1,2.27-1.17,6.63,6.63,0,0,1,2.89-.07,6.44,6.44,0,0,1,2.5.91,4.8,4.8,0,0,1,1.47,1.51,5.26,5.26,0,0,1,.68,1.91,9.48,9.48,0,0,1,.13,2.06q0,.51-.09,1l-.15,1Zm4.76-4.7a4.71,4.71,0,0,0-1.54,0,3.22,3.22,0,0,0-1.2.5,3.43,3.43,0,0,0-.91,1,6.8,6.8,0,0,0-.66,1.38l7.07,1.23a5.7,5.7,0,0,0,0-1.43,3,3,0,0,0-.39-1.21,2.73,2.73,0,0,0-.89-.9A4,4,0,0,0,233.91,512.92Z" style="fill:#fff;stroke:#fff;stroke-miterlimit:10"/><path d="M250.39,507.26l6.56.53-.19,2.28-2-.17-1.26,15.39,7,.56a.82.82,0,0,0,.43-.06,1.62,1.62,0,0,0,.41-.22,1.67,1.67,0,0,0,.31-.34.91.91,0,0,0,.14-.41l.2-2.51,2.53.21-.48,5.9-15.22-1.24.18-2.26,1.92.15,1.26-15.38-1.92-.16Z" style="fill:#fff;stroke:#fff;stroke-miterlimit:10"/><path d="M274.72,514.93l4.47.07L279,526.39l1.54,0,0,2.26-4-.06,0-1.27a7.38,7.38,0,0,1-2.06,1.08,7,7,0,0,1-2.36.36,5.67,5.67,0,0,1-1.89-.33,3.56,3.56,0,0,1-1.42-1,4.07,4.07,0,0,1-.89-1.6,7.19,7.19,0,0,1-.29-2.3l.11-6.52-1.87,0,0-2.27,4.46.07-.13,8.5a3.37,3.37,0,0,0,.7,2.39,2.74,2.74,0,0,0,2.09.84,5.35,5.35,0,0,0,1.72-.27,7.18,7.18,0,0,0,1.72-.77l.13-8.32-1.85,0Z" style="fill:#fff;stroke:#fff;stroke-miterlimit:10"/><path d="M288.29,514.68l3.25-.15.09,2-3.27.15.31,7.88a3.71,3.71,0,0,0,.24,1.29,1.19,1.19,0,0,0,.63.67,2.24,2.24,0,0,0,.95.14,4,4,0,0,0,1-.14,5,5,0,0,0,.92-.37l.65,1.62a7.54,7.54,0,0,1-1.33.58,6.88,6.88,0,0,1-1.66.26,5,5,0,0,1-1.59-.15,2.52,2.52,0,0,1-1.17-.68,3.25,3.25,0,0,1-.75-1.34,9.06,9.06,0,0,1-.32-2.14l-.29-7.51-2.21.09-.09-2,2.23-.1-.14-3.27,2.38-1.24Z" style="fill:#fff;stroke:#fff;stroke-miterlimit:10"/><path d="M298.36,514l3.24-.27.17,2-3.27.28.63,7.86a4,4,0,0,0,.3,1.28,1.15,1.15,0,0,0,.66.64,2.26,2.26,0,0,0,1,.11,4.4,4.4,0,0,0,1-.18,5,5,0,0,0,.9-.42l.71,1.6a7.43,7.43,0,0,1-1.3.63,6.17,6.17,0,0,1-1.65.33,5.08,5.08,0,0,1-1.59-.08,2.67,2.67,0,0,1-1.2-.63,3.4,3.4,0,0,1-.8-1.32,8.47,8.47,0,0,1-.41-2.12l-.6-7.5-2.2.19-.17-2,2.23-.19-.28-3.26,2.33-1.34Z" style="fill:#fff;stroke:#fff;stroke-miterlimit:10"/><path d="M307.73,520.26a5.92,5.92,0,0,0,.23,1,5.17,5.17,0,0,0,.37.87,3.84,3.84,0,0,0,1.84,1.75,4.67,4.67,0,0,0,2.53.32,7.53,7.53,0,0,0,2.05-.58,10.08,10.08,0,0,0,2-1.22L318,524a10.81,10.81,0,0,1-2.53,1.74,9.07,9.07,0,0,1-2.77.83,7,7,0,0,1-2.64-.1,5.46,5.46,0,0,1-2.22-1.07,6.25,6.25,0,0,1-1.65-2.07,9.94,9.94,0,0,1-.89-5.86,6.5,6.5,0,0,1,.92-2.41,5.66,5.66,0,0,1,1.81-1.8,7.46,7.46,0,0,1,5.38-.85,4.9,4.9,0,0,1,1.86,1,5.23,5.23,0,0,1,1.23,1.6,10,10,0,0,1,.75,1.94c.09.32.16.65.23,1s.11.67.15,1Zm3.1-5.93a4.25,4.25,0,0,0-1.46.45,3.05,3.05,0,0,0-1,.84,3.39,3.39,0,0,0-.57,1.21,6.41,6.41,0,0,0-.2,1.51l7.11-1a6.57,6.57,0,0,0-.44-1.36,3.27,3.27,0,0,0-.74-1,2.74,2.74,0,0,0-1.12-.59A4.07,4.07,0,0,0,310.83,514.33Z" style="fill:#fff;stroke:#fff;stroke-miterlimit:10"/><path d="M336.23,511.5a3.55,3.55,0,0,0-1.71-1.09,4.06,4.06,0,0,0-2,0,3.76,3.76,0,0,0-1.51.71,3.92,3.92,0,0,0-1.07,1.28,5.1,5.1,0,0,0-.52,1.76,6.57,6.57,0,0,0,.15,2.13,6.16,6.16,0,0,0,.78,1.94,4.83,4.83,0,0,0,1.23,1.34,4.07,4.07,0,0,0,1.52.68,3.88,3.88,0,0,0,1.66,0,4,4,0,0,0,2-1.09,4.3,4.3,0,0,0,1.07-2.09l2.23.52a6.54,6.54,0,0,1-.63,1.7,6.27,6.27,0,0,1-1,1.41,5.88,5.88,0,0,1-1.43,1.07,6.49,6.49,0,0,1-1.77.67,6.59,6.59,0,0,1-2.72.07,6.07,6.07,0,0,1-2.39-1,6.86,6.86,0,0,1-1.86-1.93,8.58,8.58,0,0,1-1.13-2.73,7.85,7.85,0,0,1-.13-3,6.85,6.85,0,0,1,.88-2.54,6.55,6.55,0,0,1,1.74-1.93,6.3,6.3,0,0,1,2.42-1.11,6.92,6.92,0,0,1,2.52-.11,5.71,5.71,0,0,1,2.3.87l1.37-.32.5,2.22Z" style="fill:#fff;stroke:#fff;stroke-miterlimit:10"/><path d="M341.86,513.43a8.21,8.21,0,0,1-.33-3,6.79,6.79,0,0,1,.72-2.6,6.31,6.31,0,0,1,1.69-2,7.82,7.82,0,0,1,5.37-1.59,6.26,6.26,0,0,1,2.51.78,6.62,6.62,0,0,1,2,1.78,8.39,8.39,0,0,1,1.32,2.68,8.3,8.3,0,0,1,.35,3,7,7,0,0,1-.71,2.61,6.32,6.32,0,0,1-1.67,2.05,7.09,7.09,0,0,1-2.55,1.31,7.16,7.16,0,0,1-2.86.3,6.33,6.33,0,0,1-2.51-.8,6.83,6.83,0,0,1-2-1.8A8.15,8.15,0,0,1,341.86,513.43Zm2.52-.74a6.24,6.24,0,0,0,.93,1.94,4.83,4.83,0,0,0,1.36,1.28,4.13,4.13,0,0,0,1.61.59,3.74,3.74,0,0,0,1.69-.12,4.07,4.07,0,0,0,1.55-.83,4,4,0,0,0,1-1.37,4.76,4.76,0,0,0,.42-1.81,6.34,6.34,0,0,0-.28-2.14,6.64,6.64,0,0,0-.95-2,4.59,4.59,0,0,0-1.33-1.28,3.73,3.73,0,0,0-1.6-.55,4.57,4.57,0,0,0-1.75.18,4.08,4.08,0,0,0-1.5.79,3.89,3.89,0,0,0-1.05,1.32,4.87,4.87,0,0,0-.44,1.81A6.89,6.89,0,0,0,344.38,512.69Z" style="fill:#fff;stroke:#fff;stroke-miterlimit:10"/><path d="M368.18,509.65,370,509l-2.18-5.84a3.23,3.23,0,0,0-1.6-1.94,3.12,3.12,0,0,0-2.45.05,4.2,4.2,0,0,0-1.5,1,8.7,8.7,0,0,0-1.2,1.54l2.8,7.49,1.83-.69.79,2.13L360.44,515l-.8-2.13,1.8-.67-3.2-8.55-1.8.68-.79-2.12,4.13-1.55.56,1.51h0a8.83,8.83,0,0,1,.62-1,7.68,7.68,0,0,1,.78-.93,6.34,6.34,0,0,1,.93-.77,5.13,5.13,0,0,1,1.12-.57,6.17,6.17,0,0,1,2-.42,3.93,3.93,0,0,1,1.75.33,4.05,4.05,0,0,1,1.47,1.15,6.88,6.88,0,0,1,1.12,2l2.29,6.12,1.8-.67.8,2.12L369,511.77Z" style="fill:#fff;stroke:#fff;stroke-miterlimit:10"/><path d="M376.23,494l3-1.31.8,1.82-3,1.33,3.15,7.22a3.93,3.93,0,0,0,.7,1.12,1.14,1.14,0,0,0,.83.39,2.08,2.08,0,0,0,.93-.2,4.65,4.65,0,0,0,.87-.49,5.67,5.67,0,0,0,.72-.69l1.19,1.28a7,7,0,0,1-1,1,6.53,6.53,0,0,1-1.45.85,5.42,5.42,0,0,1-1.54.44,2.51,2.51,0,0,1-1.33-.21,3.33,3.33,0,0,1-1.19-1,8.82,8.82,0,0,1-1.08-1.88l-3-6.89-2,.89-.8-1.82,2-.9-1.33-3,1.77-2Z" style="fill:#fff;stroke:#fff;stroke-miterlimit:10"/><path d="M392,489.66l-2.27,1.13-.38-.75a2.65,2.65,0,0,0-.73.55,2.86,2.86,0,0,0-.55.83,3.29,3.29,0,0,0-.24,1.08,4.09,4.09,0,0,0,.16,1.3l2.95,5.89,2.1-1.05,1,2-6.15,3.07-1-2,1.71-.85-4.07-8.17-1.72.86-1-2,3.95-2,.85,1.68a4.84,4.84,0,0,1,.13-.94,4.08,4.08,0,0,1,.31-.87,3,3,0,0,1,.55-.74,3.14,3.14,0,0,1,.79-.57l1.17-.58c.37-.19.74-.36,1.12-.53Z" style="fill:#fff;stroke:#fff;stroke-miterlimit:10"/><path d="M398.74,490.84a5.63,5.63,0,0,0,.6.88,6.05,6.05,0,0,0,.67.67,3.78,3.78,0,0,0,2.36.93,4.62,4.62,0,0,0,2.47-.65,7.44,7.44,0,0,0,1.68-1.31,10.23,10.23,0,0,0,1.4-1.87l1.7.95a10.87,10.87,0,0,1-1.69,2.55,9.32,9.32,0,0,1-2.26,1.82,7.27,7.27,0,0,1-2.48.89,5.55,5.55,0,0,1-2.47-.16,6.28,6.28,0,0,1-2.3-1.3,9.27,9.27,0,0,1-2-2.5,9,9,0,0,1-1-2.6,6.25,6.25,0,0,1-.06-2.58,5.86,5.86,0,0,1,1-2.35,6.67,6.67,0,0,1,2.17-1.9,6.31,6.31,0,0,1,2.5-.89,4.69,4.69,0,0,1,2.1.22,5.43,5.43,0,0,1,1.75,1,10.68,10.68,0,0,1,1.41,1.52,8.19,8.19,0,0,1,.58.83c.19.29.36.58.52.86Zm.66-6.66a4.28,4.28,0,0,0-1.2,1,3.2,3.2,0,0,0-.61,1.15,3.46,3.46,0,0,0-.07,1.33,7,7,0,0,0,.38,1.49l6.22-3.58a6.74,6.74,0,0,0-.91-1.1,3.09,3.09,0,0,0-1.08-.67,2.53,2.53,0,0,0-1.26-.13A4,4,0,0,0,399.4,484.18Z" style="fill:#fff;stroke:#fff;stroke-miterlimit:10"/><path d="M407.64,469.09l3.71-2.52,10.25,15.1,1.72-1.17,1.28,1.88-5.44,3.69-1.28-1.88,1.66-1.12-9-13.22L408.91,471Z" style="fill:#fff;stroke:#fff;stroke-miterlimit:10"/><path d="M432.82,474.78a7,7,0,0,1-.68,2,4.78,4.78,0,0,1-1.46,1.67,5.19,5.19,0,0,1-1.68.87,4.49,4.49,0,0,1-1.68.19,3.81,3.81,0,0,1-1.53-.44,3.59,3.59,0,0,1-1.2-1,4.21,4.21,0,0,1-.72-1.39,4,4,0,0,1-.15-1.35A4,4,0,0,1,424,474a6.31,6.31,0,0,1,.64-1.17,8.34,8.34,0,0,1,.86-1,10,10,0,0,1,1-.82c.51-.39,1-.7,1.33-.93a11.42,11.42,0,0,1,1.05-.58l-.66-.91a3.42,3.42,0,0,0-.93-.87,2.35,2.35,0,0,0-1-.35,2.61,2.61,0,0,0-1.06.14,4.58,4.58,0,0,0-1.07.59,9,9,0,0,0-.91.8,8.81,8.81,0,0,0-.72.82,7.26,7.26,0,0,0-.55.81,3.88,3.88,0,0,0-.34.73l-1.68-.87a10,10,0,0,1,.51-1.12,11,11,0,0,1,.71-1.11,12.4,12.4,0,0,1,.88-1,8.2,8.2,0,0,1,1-.89,7.69,7.69,0,0,1,1.91-1.07,4.08,4.08,0,0,1,1.83-.28,3.77,3.77,0,0,1,1.72.59,5.88,5.88,0,0,1,1.61,1.53l4.1,5.47,1.22-.92,1.37,1.81-3.22,2.42Zm-2.93,1.7a4.21,4.21,0,0,0,.71-.69,5,5,0,0,0,.56-.82,4.7,4.7,0,0,0,.36-.87,3.33,3.33,0,0,0,.17-.82l-1.84-2.48-2.31,1.74a5,5,0,0,0-1,.92,3.29,3.29,0,0,0-.54,1,2.18,2.18,0,0,0-.09,1,2.09,2.09,0,0,0,.43,1,2.13,2.13,0,0,0,.72.63,1.83,1.83,0,0,0,.86.19,2.59,2.59,0,0,0,1-.19A4.35,4.35,0,0,0,429.89,476.48Z" style="fill:#fff;stroke:#fff;stroke-miterlimit:10"/><path d="M431.45,451.94l10.77-9.72,3.79,4.2-2,1.84-2.26-2.51-5.37,4.84,4.3,4.77,5.17-4.66,1.48,1.64L442.13,457l4.55,5.05,1.51-1.36,1.52,1.68-4.88,4.4-1.52-1.68,1.43-1.29L434.4,452.35,433,453.63Z" style="fill:#fff;stroke:#fff;stroke-miterlimit:10"/><path d="M456.46,440.8l-1.78,1.81-.6-.59a2.76,2.76,0,0,0-.52.76,2.83,2.83,0,0,0-.25,1,3.57,3.57,0,0,0,.12,1.1A3.86,3.86,0,0,0,454,446l4.7,4.62,1.65-1.67,1.61,1.59-4.81,4.89-1.62-1.59,1.34-1.36-6.49-6.4L449,447.47l-1.62-1.59,3.1-3.16,1.35,1.33a5.36,5.36,0,0,1-.18-.94,3.22,3.22,0,0,1,.28-1.8,3,3,0,0,1,.57-.79l.92-.94c.29-.29.58-.58.88-.86Z" style="fill:#fff;stroke:#fff;stroke-miterlimit:10"/><path d="M471,438.83a7.08,7.08,0,0,1-.26,2.1,5,5,0,0,1-1.08,1.93,5.47,5.47,0,0,1-1.47,1.2,4.76,4.76,0,0,1-1.61.53,4.22,4.22,0,0,1-1.59-.12,3.63,3.63,0,0,1-1.38-.77,4.06,4.06,0,0,1-1-1.21,3.9,3.9,0,0,1-.42-1.29,4.13,4.13,0,0,1,0-1.31,6.25,6.25,0,0,1,.4-1.27,7.37,7.37,0,0,1,.64-1.17,9,9,0,0,1,.76-1c.43-.49.8-.88,1.11-1.18s.62-.56.91-.79l-.83-.74a3.22,3.22,0,0,0-1.09-.67,2.3,2.3,0,0,0-1.06-.13,2.55,2.55,0,0,0-1,.35,3.81,3.81,0,0,0-.93.8,8.11,8.11,0,0,0-.73,1,8.43,8.43,0,0,0-.54.95,9.18,9.18,0,0,0-.37.91,4.86,4.86,0,0,0-.19.78l-1.81-.51a10.13,10.13,0,0,1,.27-1.2,8.85,8.85,0,0,1,.47-1.23,11.53,11.53,0,0,1,.64-1.2,9.54,9.54,0,0,1,.79-1.07,8,8,0,0,1,1.64-1.44,4.32,4.32,0,0,1,1.74-.65,4,4,0,0,1,1.81.22,6.17,6.17,0,0,1,1.89,1.18l5.13,4.51,1-1.15,1.7,1.49-2.65,3Zm-2.53,2.26a4,4,0,0,0,.57-.82,5.43,5.43,0,0,0,.37-.91,5.09,5.09,0,0,0,.18-.93,3.33,3.33,0,0,0,0-.84l-2.31-2-1.9,2.17a4.84,4.84,0,0,0-.75,1.09,3.34,3.34,0,0,0-.33,1.08,2.11,2.11,0,0,0,.12,1,2.17,2.17,0,0,0,.61.86,2.09,2.09,0,0,0,.84.47,1.87,1.87,0,0,0,.88,0,2.78,2.78,0,0,0,.89-.39A4.51,4.51,0,0,0,468.46,441.09Z" style="fill:#fff;stroke:#fff;stroke-miterlimit:10"/><path d="M471.11,419l2.71-3.55,9.06,6.91.93-1.22,1.8,1.38-2.45,3.2-1-.77a7.47,7.47,0,0,1-.36,2.3,6.94,6.94,0,0,1-1.12,2.11,5.71,5.71,0,0,1-1.38,1.32,3.58,3.58,0,0,1-1.61.59,4.23,4.23,0,0,1-1.82-.24,7,7,0,0,1-2-1.13l-5.18-4-1.14,1.48-1.8-1.37,2.71-3.55,6.76,5.16a3.41,3.41,0,0,0,2.33.86,2.74,2.74,0,0,0,1.92-1.19,5.61,5.61,0,0,0,.81-1.54,7.73,7.73,0,0,0,.4-1.85l-6.62-5-1.12,1.47Z" style="fill:#fff;stroke:#fff;stroke-miterlimit:10"/><path d="M475.56,400.74l2.39-3.65,15.27,10,1.11-1.7,1.9,1.25-2.48,3.77-.93-.61a4.71,4.71,0,0,1,0,1.87,5,5,0,0,1-.78,1.88,6.9,6.9,0,0,1-1.83,1.93,6.07,6.07,0,0,1-2.33,1,6.72,6.72,0,0,1-2.67-.09,8.83,8.83,0,0,1-2.86-1.27,8.24,8.24,0,0,1-2.15-2,6.37,6.37,0,0,1-1.11-2.36,6.13,6.13,0,0,1,0-2.56,7.23,7.23,0,0,1,1.09-2.59,7,7,0,0,1,1.18-1.41,4.87,4.87,0,0,1,1.51-.91l-4.38-2.87-1,1.57Zm14.89,11.36a4.81,4.81,0,0,0,.75-1.73,4.36,4.36,0,0,0-.06-1.68l-6.4-4.19a4.2,4.2,0,0,0-1.51.85A6.41,6.41,0,0,0,482,406.7a4.21,4.21,0,0,0-.63,1.56,3.83,3.83,0,0,0,0,1.65,4.62,4.62,0,0,0,.77,1.6,5.85,5.85,0,0,0,1.54,1.4,6.93,6.93,0,0,0,2,1,4.68,4.68,0,0,0,1.84.13,3.56,3.56,0,0,0,1.57-.61A4.64,4.64,0,0,0,490.45,412.1Z" style="fill:#fff;stroke:#fff;stroke-miterlimit:10"/><path d="M493.32,398.65a6.36,6.36,0,0,0,1,.45,6.51,6.51,0,0,0,.92.23,3.81,3.81,0,0,0,2.51-.41,4.52,4.52,0,0,0,1.78-1.82,7.29,7.29,0,0,0,.78-2,10.37,10.37,0,0,0,.24-2.33l2-.05a11,11,0,0,1-.15,3.06,9,9,0,0,1-1,2.71,7.2,7.2,0,0,1-1.67,2,5.46,5.46,0,0,1-2.21,1.12,6.24,6.24,0,0,1-2.63.07,9.33,9.33,0,0,1-3-1.12,9,9,0,0,1-2.21-1.72,6.5,6.5,0,0,1-1.37-2.19,5.92,5.92,0,0,1-.34-2.53,6.77,6.77,0,0,1,.89-2.74,6.5,6.5,0,0,1,1.69-2.05,4.69,4.69,0,0,1,1.92-.88,5.28,5.28,0,0,1,2,0,10.34,10.34,0,0,1,2,.58,7.78,7.78,0,0,1,.93.42c.31.15.6.31.89.47Zm-2.84-6A4.3,4.3,0,0,0,490,394a3,3,0,0,0,.07,1.3,3.5,3.5,0,0,0,.61,1.18,6.56,6.56,0,0,0,1.09,1.08l3.52-6.26a7.25,7.25,0,0,0-1.35-.47,3,3,0,0,0-1.27,0,2.8,2.8,0,0,0-1.15.53A4,4,0,0,0,490.48,392.6Z" style="fill:#fff;stroke:#fff;stroke-miterlimit:10"/><path d="M507.12,382.26l.74-1.78-14.05-5.82-.73,1.78-2.33-1,2.45-5.93,18.41.66L498.15,357.6l2.32-5.62,2.33,1-.73,1.76,14,5.82.74-1.77,2.09.87-2.51,6.07-2.1-.87.83-2L501,357l13.57,13.28-.87,2.09-19.06-.12,14.22,5.89.79-1.93,2.1.87-2.51,6.07Z" style="fill:#fff;stroke:#fff;stroke-miterlimit:10"/><path d="M502.86,348.53a1.48,1.48,0,0,1-.58-.34,1.74,1.74,0,0,1-.58-1.16,1.64,1.64,0,0,1,.08-.69,1.72,1.72,0,0,1,.33-.59,1.81,1.81,0,0,1,.52-.4,1.59,1.59,0,0,1,.63-.19,1.46,1.46,0,0,1,.66.06,1.77,1.77,0,0,1,.6.34,2.13,2.13,0,0,1,.42.53,1.58,1.58,0,0,1,.19.64,1.52,1.52,0,0,1-.07.67,1.6,1.6,0,0,1-.34.61,1.76,1.76,0,0,1-.53.41,1.8,1.8,0,0,1-.65.18A1.57,1.57,0,0,1,502.86,348.53Zm4.13,3,1.39-4.3,10.84,3.5.64-2,2.15.7-2,6.26-2.16-.7.6-1.88-8.68-2.8-.61,1.9Z" style="fill:#fff;stroke:#fff;stroke-miterlimit:10"/><path d="M523.06,337.2l.5-1.89-6-1.57a3.25,3.25,0,0,0-2.5.18,3.14,3.14,0,0,0-1.37,2,4.17,4.17,0,0,0,0,1.8,8.93,8.93,0,0,0,.56,1.87l7.74,2,.5-1.89,2.19.57L523,346.59l-2.2-.57.49-1.86-8.83-2.3-.48,1.86-2.2-.57,1.12-4.27,1.55.4v0a9.06,9.06,0,0,1-.46-1.1,5.84,5.84,0,0,1-.31-1.16,6.12,6.12,0,0,1-.1-1.21,5.46,5.46,0,0,1,.18-1.24,5.84,5.84,0,0,1,.8-1.86,4,4,0,0,1,1.27-1.25,4.17,4.17,0,0,1,1.78-.53,6.61,6.61,0,0,1,2.3.25l6.33,1.65.49-1.87,2.19.58-1.63,6.25Z" style="fill:#fff;stroke:#fff;stroke-miterlimit:10"/><path d="M509.66,323.19a1.55,1.55,0,0,1-.62-.26,1.87,1.87,0,0,1-.45-.48,1.85,1.85,0,0,1-.26-.61,2.06,2.06,0,0,1,0-.7,1.74,1.74,0,0,1,.74-1.08,1.81,1.81,0,0,1,.6-.27,1.52,1.52,0,0,1,.67,0,1.47,1.47,0,0,1,.63.27,2,2,0,0,1,.48.47,1.7,1.7,0,0,1,0,1.93,1.65,1.65,0,0,1-.48.47,2,2,0,0,1-.63.26A1.56,1.56,0,0,1,509.66,323.19Zm4.44,2.46.89-4.43,11.16,2.24.41-2,2.23.44-1.3,6.45-2.22-.45.39-1.93-8.95-1.8-.39,2Z" style="fill:#fff;stroke:#fff;stroke-miterlimit:10"/><path d="M514.86,310.9l-4.24,3.25-.22,0,.48-3.28,4.26-1.85Zm8.4,4.86a5.71,5.71,0,0,0,1.06.07,5.63,5.63,0,0,0,.94-.11,3.81,3.81,0,0,0,2.2-1.28,4.7,4.7,0,0,0,1-2.34,7.92,7.92,0,0,0,0-2.12,10.2,10.2,0,0,0-.61-2.26l1.8-.75a10.78,10.78,0,0,1,1,2.91,9.33,9.33,0,0,1,0,2.89,7.29,7.29,0,0,1-.84,2.51,5.58,5.58,0,0,1-1.65,1.83,6.45,6.45,0,0,1-2.44,1,9.28,9.28,0,0,1-3.21,0,9,9,0,0,1-2.67-.81,6.57,6.57,0,0,1-2.06-1.56,5.74,5.74,0,0,1-1.22-2.24,7.45,7.45,0,0,1,.69-5.4,4.86,4.86,0,0,1,1.48-1.51,5.36,5.36,0,0,1,1.89-.73,10.18,10.18,0,0,1,2.06-.18l1,.06,1,.13Zm-4.82-4.64a4.15,4.15,0,0,0,0,1.54,3,3,0,0,0,.53,1.19,3.43,3.43,0,0,0,1,.88,6.23,6.23,0,0,0,1.4.62l1-7.1a6.72,6.72,0,0,0-1.43,0,3.14,3.14,0,0,0-1.19.43,2.48,2.48,0,0,0-.88.91A3.84,3.84,0,0,0,518.44,311.12Z" style="fill:#fff;stroke:#fff;stroke-miterlimit:10"/><path d="M521.73,292l-.21,2.53-.85-.08a2.94,2.94,0,0,0,.09.92,2.86,2.86,0,0,0,.43.9,3.06,3.06,0,0,0,.79.77,3.84,3.84,0,0,0,1.19.54l6.57.57.2-2.34,2.26.19-.6,6.85-2.25-.2.16-1.9-9.09-.81-.16,1.92-2.26-.19.38-4.41,1.88.16a5.39,5.39,0,0,1-.74-.6,4.29,4.29,0,0,1-.57-.72,3,3,0,0,1-.42-1.83c0-.46.08-.9.12-1.31s.08-.81.13-1.22Z" style="fill:#fff;stroke:#fff;stroke-miterlimit:10"/><path d="M526.27,286.81a5.93,5.93,0,0,0,1.06-.05,5.5,5.5,0,0,0,.93-.23,3.78,3.78,0,0,0,2-1.52,4.65,4.65,0,0,0,.74-2.45,7.43,7.43,0,0,0-.24-2.11,10.24,10.24,0,0,0-.87-2.17l1.7-1a10.83,10.83,0,0,1,1.29,2.78,8.88,8.88,0,0,1,.37,2.87,7,7,0,0,1-.53,2.58,5.4,5.4,0,0,1-1.43,2,6.35,6.35,0,0,1-2.3,1.29,9.42,9.42,0,0,1-3.18.4,9.17,9.17,0,0,1-2.75-.49,6.66,6.66,0,0,1-2.23-1.29,6,6,0,0,1-1.48-2.08,6.72,6.72,0,0,1-.49-2.85,6.47,6.47,0,0,1,.54-2.6,4.77,4.77,0,0,1,1.29-1.68,5.45,5.45,0,0,1,1.78-.95,10.32,10.32,0,0,1,2-.42l1-.06h1Zm-5.34-4a4.44,4.44,0,0,0,.21,1.52,3.05,3.05,0,0,0,.66,1.12,3.37,3.37,0,0,0,1.1.76,6.58,6.58,0,0,0,1.46.45l.2-7.17a6.94,6.94,0,0,0-1.42.2,3.09,3.09,0,0,0-1.13.57,2.62,2.62,0,0,0-.77,1A4,4,0,0,0,520.93,282.78Z" style="fill:#fff;stroke:#fff;stroke-miterlimit:10"/><ellipse cx="276.88" cy="275.9" rx="212.88" ry="212.12" style="fill:none;stroke:#fff;stroke-miterlimit:10;stroke-width:2px"/><polygon points="35.66 232.03 45.4 226.9 43.54 237.76 51.43 245.44 40.53 247.03 35.66 256.9 30.78 247.03 19.88 245.44 27.77 237.76 25.91 226.9 35.66 232.03" style="fill:#fff"/><polygon points="517 219.9 526.75 214.78 524.89 225.63 532.77 233.32 521.88 234.9 517 244.78 512.13 234.9 501.23 233.32 509.12 225.63 507.25 214.78 517 219.9" style="fill:#fff"/></g></g></svg>